<svg xmlns="http://www.w3.org/2000/svg" width="24" height="25" viewBox="0 0 24 25" fill="none">
  <path d="M7.8 18.0953C7.46863 18.4267 6.93137 18.4267 6.6 18.0953C6.26863 17.7639 6.26863 17.2267 6.6 16.8953L10.8 12.6953L6.6 8.49531C6.26863 8.16394 6.26863 7.62668 6.6 7.29531C6.93137 6.96394 7.46863 6.96394 7.8 7.29531L12 11.4953L16.2 7.29531C16.5314 6.96394 17.0686 6.96394 17.4 7.29531C17.7314 7.62668 17.7314 8.16394 17.4 8.49531L13.2 12.6953L17.4 16.8953C17.7314 17.2267 17.7314 17.7639 17.4 18.0953C17.0686 18.4267 16.5314 18.4267 16.2 18.0953L12 13.8953L7.8 18.0953Z" fill="#5F4F7F"/>
</svg>