<svg width="16" height="16" viewBox="0 0 16 16" fill="none" xmlns="http://www.w3.org/2000/svg">
<path d="M8.94332 7.04541C8.76129 7.04541 8.61408 6.90297 8.61408 6.72747C8.61408 6.55197 8.76129 6.40954 8.94332 6.40954H16C15.9927 6.27124 15.9722 6.13166 15.9288 5.99305C15.7212 5.32539 15.15 4.893 14.475 4.893H11.3079C10.9078 4.893 10.5565 4.62911 10.4344 4.23487L9.45703 1.09687C9.24629 0.42921 8.67822 0 8.00324 0C7.32827 0 6.76019 0.42921 6.54945 1.09687L5.57211 4.23487C5.44995 4.62911 5.09872 4.893 4.69862 4.893H1.53144C0.856462 4.893 0.285331 5.32539 0.0776463 5.99305C-0.130038 6.66071 0.0868088 7.35698 0.633507 7.77029L3.19596 9.70969C3.51971 9.95132 3.65409 10.3805 3.52887 10.7748L3.5023 10.8606H7.96537C8.15503 10.8606 8.30866 11.0027 8.30866 11.1785C8.30866 11.3544 8.15503 11.4965 7.96537 11.4965H3.30408L2.55153 13.9128C2.34079 14.5804 2.56069 15.2767 3.10434 15.69C3.65104 16.1033 4.35655 16.1033 4.9002 15.69L7.46571 13.7506C7.7864 13.509 8.22009 13.509 8.54078 13.7506L11.1063 15.69C11.3781 15.8967 11.6896 16.0016 12.0042 15.9984C12.3157 15.9984 12.6273 15.8967 12.9021 15.69C13.4458 15.2767 13.6657 14.5804 13.455 13.9128L12.4776 10.7748C12.3524 10.3805 12.4868 9.95132 12.8105 9.70969L15.373 7.77029C15.6256 7.57922 15.8042 7.32646 15.9065 7.04541H8.94332Z" fill="url(#paint0_linear_6526_95175)"/>
<defs>
<linearGradient id="paint0_linear_6526_95175" x1="-2.14927e-08" y1="15.25" x2="16.7246" y2="14.0815" gradientUnits="userSpaceOnUse">
<stop offset="0.00281618" stop-color="#FFE0AA"/>
<stop offset="0.335691" stop-color="#FFAEA9"/>
<stop offset="0.679605" stop-color="#FFA7F6"/>
<stop offset="0.999293" stop-color="#DD7CFF"/>
</linearGradient>
</defs>
</svg>
