<svg width="40" height="40" viewBox="0 0 40 40" fill="none" xmlns="http://www.w3.org/2000/svg">
<rect width="40" height="40" rx="20" fill="#272533"/>
<path d="M15.7836 11.666C16.1302 11.666 16.4111 11.9362 16.4111 12.2695V13.4867C16.9677 13.4764 17.5916 13.4764 18.2936 13.4764H21.6401C22.3421 13.4764 22.966 13.4764 23.5226 13.4867V12.2695C23.5226 11.9362 23.8035 11.666 24.1501 11.666C24.4966 11.666 24.7776 11.9362 24.7776 12.2695V13.5401C25.9818 13.6329 26.7723 13.8605 27.3531 14.419C27.9339 14.9776 28.1705 15.7378 28.267 16.8959L28.3334 17.4993H12.4372H11.6667V16.8959C11.7632 15.7378 11.9998 14.9776 12.5806 14.419C13.1614 13.8605 13.952 13.6329 15.1562 13.5401V12.2695C15.1562 11.9362 15.4371 11.666 15.7836 11.666Z" fill="#5F4F7F"/>
<mask id="path-4-outside-1_6906_3996" maskUnits="userSpaceOnUse" x="9.66626" y="15.5" width="21" height="15" fill="black">
<rect fill="white" x="9.66626" y="15.5" width="21" height="15"/>
<path d="M28.3333 21.6667V20.0001C28.3333 19.3009 28.3306 18.0544 28.3199 17.5H11.6747C11.664 18.0544 11.6667 19.3009 11.6667 20.0001V21.6667C11.6667 24.8094 11.6667 26.3808 12.643 27.3571C13.6193 28.3334 15.1906 28.3334 18.3333 28.3334H21.6667C24.8094 28.3334 26.3807 28.3334 27.357 27.3571C28.3333 26.3808 28.3333 24.8094 28.3333 21.6667Z"/>
</mask>
<path d="M28.3333 21.6667V20.0001C28.3333 19.3009 28.3306 18.0544 28.3199 17.5H11.6747C11.664 18.0544 11.6667 19.3009 11.6667 20.0001V21.6667C11.6667 24.8094 11.6667 26.3808 12.643 27.3571C13.6193 28.3334 15.1906 28.3334 18.3333 28.3334H21.6667C24.8094 28.3334 26.3807 28.3334 27.357 27.3571C28.3333 26.3808 28.3333 24.8094 28.3333 21.6667Z" fill="#5F4F7F"/>
<path d="M12.643 27.3571L13.7036 26.2964H13.7036L12.643 27.3571ZM27.357 27.3571L26.2964 26.2964L26.2964 26.2964L27.357 27.3571ZM11.6747 17.5V16H10.2035L10.175 17.4709L11.6747 17.5ZM28.3199 17.5L29.8196 17.4709L29.7911 16H28.3199V17.5ZM26.8333 20.0001V21.6667H29.8333V20.0001H26.8333ZM21.6667 26.8334H18.3333V29.8334H21.6667V26.8334ZM13.1667 21.6667V20.0001H10.1667V21.6667H13.1667ZM18.3333 26.8334C16.7196 26.8334 15.6602 26.8302 14.8756 26.7247C14.1343 26.6251 13.8667 26.4594 13.7036 26.2964L11.5823 28.4178C12.3956 29.2311 13.4019 29.5536 14.4759 29.698C15.5068 29.8366 16.8044 29.8334 18.3333 29.8334V26.8334ZM10.1667 21.6667C10.1667 23.1957 10.1635 24.4933 10.3021 25.5242C10.4465 26.5982 10.769 27.6044 11.5823 28.4178L13.7036 26.2964C13.5406 26.1334 13.375 25.8658 13.2753 25.1244C13.1699 24.3399 13.1667 23.2805 13.1667 21.6667H10.1667ZM26.8333 21.6667C26.8333 23.2805 26.8302 24.3399 26.7247 25.1244C26.625 25.8658 26.4594 26.1334 26.2964 26.2964L28.4177 28.4178C29.231 27.6044 29.5535 26.5982 29.6979 25.5242C29.8365 24.4933 29.8333 23.1957 29.8333 21.6667H26.8333ZM21.6667 29.8334C23.1956 29.8334 24.4932 29.8366 25.5241 29.698C26.5982 29.5536 27.6044 29.2311 28.4177 28.4178L26.2964 26.2964C26.1334 26.4594 25.8658 26.6251 25.1244 26.7247C24.3398 26.8302 23.2804 26.8334 21.6667 26.8334V29.8334ZM10.175 17.4709C10.1639 18.0445 10.1667 19.3148 10.1667 20.0001H13.1667C13.1667 19.287 13.1641 18.0643 13.1744 17.5291L10.175 17.4709ZM29.8333 20.0001C29.8333 19.3049 29.8307 18.0428 29.8196 17.4709L26.8202 17.5291C26.8306 18.066 26.8333 19.2968 26.8333 20.0001H29.8333ZM11.6747 19H28.3199V16H11.6747V19Z" fill="#272533" mask="url(#path-4-outside-1_6906_3996)"/>
<path d="M24.9999 24.1667C24.9999 24.6269 24.6268 25 24.1666 25C23.7063 25 23.3333 24.6269 23.3333 24.1667C23.3333 23.7064 23.7063 23.3333 24.1666 23.3333C24.6268 23.3333 24.9999 23.7064 24.9999 24.1667Z" fill="#272533"/>
<path d="M24.9999 20.8333C24.9999 21.2936 24.6268 21.6667 24.1666 21.6667C23.7063 21.6667 23.3333 21.2936 23.3333 20.8333C23.3333 20.3731 23.7063 20 24.1666 20C24.6268 20 24.9999 20.3731 24.9999 20.8333Z" fill="#272533"/>
<path d="M20.8334 24.1667C20.8334 24.6269 20.4603 25 20.0001 25C19.5398 25 19.1667 24.6269 19.1667 24.1667C19.1667 23.7064 19.5398 23.3333 20.0001 23.3333C20.4603 23.3333 20.8334 23.7064 20.8334 24.1667Z" fill="#272533"/>
<path d="M20.8334 20.8333C20.8334 21.2936 20.4603 21.6667 20.0001 21.6667C19.5398 21.6667 19.1667 21.2936 19.1667 20.8333C19.1667 20.3731 19.5398 20 20.0001 20C20.4603 20 20.8334 20.3731 20.8334 20.8333Z" fill="#272533"/>
<path d="M16.6667 24.1667C16.6667 24.6269 16.2936 25 15.8333 25C15.3731 25 15 24.6269 15 24.1667C15 23.7064 15.3731 23.3333 15.8333 23.3333C16.2936 23.3333 16.6667 23.7064 16.6667 24.1667Z" fill="#272533"/>
<path d="M16.6667 20.8333C16.6667 21.2936 16.2936 21.6667 15.8333 21.6667C15.3731 21.6667 15 21.2936 15 20.8333C15 20.3731 15.3731 20 15.8333 20C16.2936 20 16.6667 20.3731 16.6667 20.8333Z" fill="#272533"/>
</svg>
