<svg width="40" height="40" viewBox="0 0 40 40" fill="none" xmlns="http://www.w3.org/2000/svg">
<rect width="40" height="40" rx="20" fill="#272533"/>
<path d="M15.7839 11.667C16.1304 11.667 16.4114 11.9372 16.4114 12.2704V13.4877C16.968 13.4773 17.5918 13.4773 18.2938 13.4773H21.6404C22.3424 13.4773 22.9662 13.4773 23.5228 13.4877V12.2704C23.5228 11.9372 23.8038 11.667 24.1503 11.667C24.4969 11.667 24.7778 11.9372 24.7778 12.2704V13.5411C25.982 13.6338 26.7725 13.8614 27.3533 14.42C27.9341 14.9785 28.1708 15.7388 28.2672 16.8969L28.3337 17.5003H12.4375H11.667V16.8969C11.7634 15.7388 12.0001 14.9785 12.5809 14.42C13.1617 13.8614 13.9522 13.6338 15.1564 13.5411V12.2704C15.1564 11.9372 15.4373 11.667 15.7839 11.667Z" fill="#5F4F7F"/>
<mask id="path-4-outside-1_4880_47948" maskUnits="userSpaceOnUse" x="9.66602" y="15.5" width="21" height="15" fill="black">
<rect fill="white" x="9.66602" y="15.5" width="21" height="15"/>
<path d="M28.3331 21.6667V20.0001C28.3331 19.3009 28.3304 18.0544 28.3196 17.5H11.6745C11.6637 18.0544 11.6664 19.3009 11.6664 20.0001V21.6667C11.6664 24.8094 11.6664 26.3808 12.6427 27.3571C13.6191 28.3334 15.1904 28.3334 18.3331 28.3334H21.6664C24.8091 28.3334 26.3805 28.3334 27.3568 27.3571C28.3331 26.3808 28.3331 24.8094 28.3331 21.6667Z"/>
</mask>
<path d="M28.3331 21.6667V20.0001C28.3331 19.3009 28.3304 18.0544 28.3196 17.5H11.6745C11.6637 18.0544 11.6664 19.3009 11.6664 20.0001V21.6667C11.6664 24.8094 11.6664 26.3808 12.6427 27.3571C13.6191 28.3334 15.1904 28.3334 18.3331 28.3334H21.6664C24.8091 28.3334 26.3805 28.3334 27.3568 27.3571C28.3331 26.3808 28.3331 24.8094 28.3331 21.6667Z" fill="#5F4F7F"/>
<path d="M12.6427 27.3571L13.7034 26.2964H13.7034L12.6427 27.3571ZM27.3568 27.3571L26.2961 26.2964L26.2961 26.2964L27.3568 27.3571ZM11.6745 17.5V16H10.2033L10.1748 17.4709L11.6745 17.5ZM28.3196 17.5L29.8194 17.4709L29.7908 16H28.3196V17.5ZM26.8331 20.0001V21.6667H29.8331V20.0001H26.8331ZM21.6664 26.8334H18.3331V29.8334H21.6664V26.8334ZM13.1664 21.6667V20.0001H10.1664V21.6667H13.1664ZM18.3331 26.8334C16.7193 26.8334 15.6599 26.8302 14.8754 26.7247C14.134 26.6251 13.8664 26.4594 13.7034 26.2964L11.5821 28.4178C12.3954 29.2311 13.4016 29.5536 14.4757 29.698C15.5066 29.8366 16.8042 29.8334 18.3331 29.8334V26.8334ZM10.1664 21.6667C10.1664 23.1957 10.1632 24.4933 10.3018 25.5242C10.4463 26.5982 10.7688 27.6044 11.5821 28.4178L13.7034 26.2964C13.5404 26.1334 13.3748 25.8658 13.2751 25.1244C13.1696 24.3399 13.1664 23.2805 13.1664 21.6667H10.1664ZM26.8331 21.6667C26.8331 23.2805 26.8299 24.3399 26.7244 25.1244C26.6248 25.8658 26.4591 26.1334 26.2961 26.2964L28.4174 28.4178C29.2308 27.6044 29.5533 26.5982 29.6977 25.5242C29.8363 24.4933 29.8331 23.1957 29.8331 21.6667H26.8331ZM21.6664 29.8334C23.1954 29.8334 24.493 29.8366 25.5239 29.698C26.5979 29.5536 27.6041 29.2311 28.4174 28.4178L26.2961 26.2964C26.1331 26.4594 25.8655 26.6251 25.1241 26.7247C24.3396 26.8302 23.2802 26.8334 21.6664 26.8334V29.8334ZM10.1748 17.4709C10.1636 18.0445 10.1664 19.3148 10.1664 20.0001H13.1664C13.1664 19.287 13.1638 18.0643 13.1742 17.5291L10.1748 17.4709ZM29.8331 20.0001C29.8331 19.3049 29.8304 18.0428 29.8194 17.4709L26.8199 17.5291C26.8303 18.066 26.8331 19.2968 26.8331 20.0001H29.8331ZM11.6745 19H28.3196V16H11.6745V19Z" fill="#272533" mask="url(#path-4-outside-1_4880_47948)"/>
<path d="M24.9997 24.1667C24.9997 24.6269 24.6266 25 24.1663 25C23.7061 25 23.333 24.6269 23.333 24.1667C23.333 23.7064 23.7061 23.3333 24.1663 23.3333C24.6266 23.3333 24.9997 23.7064 24.9997 24.1667Z" fill="#272533"/>
<path d="M24.9997 20.8333C24.9997 21.2936 24.6266 21.6667 24.1663 21.6667C23.7061 21.6667 23.333 21.2936 23.333 20.8333C23.333 20.3731 23.7061 20 24.1663 20C24.6266 20 24.9997 20.3731 24.9997 20.8333Z" fill="#272533"/>
<path d="M20.8337 24.1667C20.8337 24.6269 20.4606 25 20.0003 25C19.5401 25 19.167 24.6269 19.167 24.1667C19.167 23.7064 19.5401 23.3333 20.0003 23.3333C20.4606 23.3333 20.8337 23.7064 20.8337 24.1667Z" fill="#272533"/>
<path d="M20.8337 20.8333C20.8337 21.2936 20.4606 21.6667 20.0003 21.6667C19.5401 21.6667 19.167 21.2936 19.167 20.8333C19.167 20.3731 19.5401 20 20.0003 20C20.4606 20 20.8337 20.3731 20.8337 20.8333Z" fill="#272533"/>
<path d="M16.6667 24.1667C16.6667 24.6269 16.2936 25 15.8333 25C15.3731 25 15 24.6269 15 24.1667C15 23.7064 15.3731 23.3333 15.8333 23.3333C16.2936 23.3333 16.6667 23.7064 16.6667 24.1667Z" fill="#272533"/>
<path d="M16.6667 20.8333C16.6667 21.2936 16.2936 21.6667 15.8333 21.6667C15.3731 21.6667 15 21.2936 15 20.8333C15 20.3731 15.3731 20 15.8333 20C16.2936 20 16.6667 20.3731 16.6667 20.8333Z" fill="#272533"/>
</svg>
