<svg width="32" height="32" viewBox="0 0 32 32" fill="none" xmlns="http://www.w3.org/2000/svg">
<g id="Close">
<path id="Vector" d="M29.3337 15.9993C29.3337 23.3631 23.3641 29.3327 16.0003 29.3327C8.63653 29.3327 2.66699 23.3631 2.66699 15.9993C2.66699 8.63555 8.63653 2.66602 16.0003 2.66602C23.3641 2.66602 29.3337 8.63555 29.3337 15.9993Z" fill="#E9E3F5"/>
<path id="Subtract" fill-rule="evenodd" clip-rule="evenodd" d="M16.0003 2.66602C8.63653 2.66602 2.66699 8.63555 2.66699 15.9993C2.66699 23.3631 8.63653 29.3327 16.0003 29.3327C23.3641 29.3327 29.3337 23.3631 29.3337 15.9993C29.3337 8.63555 23.3641 2.66602 16.0003 2.66602ZM13.6486 12.1972C13.2481 11.7967 12.5987 11.7967 12.1982 12.1972C11.7976 12.5977 11.7976 13.2471 12.1982 13.6477L14.5499 15.9993L12.1982 18.351C11.7976 18.7516 11.7976 19.401 12.1982 19.8015C12.5987 20.202 13.2481 20.202 13.6486 19.8015L16.0003 17.4498L18.352 19.8015C18.7526 20.202 19.4019 20.202 19.8025 19.8015C20.203 19.401 20.203 18.7516 19.8025 18.351L17.4508 15.9993L19.8025 13.6477C20.203 13.2471 20.203 12.5977 19.8025 12.1972C19.4019 11.7967 18.7526 11.7967 18.352 12.1972L16.0003 14.5489L13.6486 12.1972Z" fill="#5F4F7F"/>
</g>
</svg>
