<svg width="24" height="24" viewBox="0 0 24 24" fill="none" xmlns="http://www.w3.org/2000/svg">
  <rect width="24" height="24" rx="12" fill="#39364A" fill-opacity="0.8" />
  <path
    d="M13.6608 10.1538L13.451 15.6923M10.549 15.6923L10.3392 10.1538M16.3804 8.17881C16.5877 8.21059 16.7942 8.2446 17 8.28079M16.3804 8.17881L15.7332 16.7216C15.6786 17.443 15.0861 18 14.3736 18H9.62641C8.91386 18 8.32144 17.443 8.26679 16.7216L7.61961 8.17881M16.3804 8.17881C15.6856 8.07227 14.9827 7.99068 14.2727 7.93497M7 8.28079C7.2058 8.2446 7.41235 8.21059 7.61961 8.17881M7.61961 8.17881C8.31441 8.07227 9.01727 7.99068 9.72727 7.93497M14.2727 7.93497V7.37119C14.2727 6.64543 13.7208 6.03953 13.0064 6.01632C12.6723 6.00547 12.3368 6 12 6C11.6632 6 11.3277 6.00547 10.9936 6.01632C10.2792 6.03953 9.72727 6.64543 9.72727 7.37119V7.93497M14.2727 7.93497C13.5228 7.87612 12.7648 7.84615 12 7.84615C11.2352 7.84615 10.4772 7.87612 9.72727 7.93497"
    stroke="white" stroke-linecap="round" stroke-linejoin="round" />
</svg>