<svg width="32" height="32" viewBox="0 0 32 32" fill="none" xmlns="http://www.w3.org/2000/svg">
<path d="M26.0602 13.7488L21.0474 18.7785C21.4749 19.9663 21.6521 21.9557 19.8109 24.4035C19.6821 24.5756 19.5177 24.7179 19.3289 24.8207C19.14 24.9234 18.9313 24.9842 18.7168 24.9988H18.6109C18.4138 24.9989 18.2186 24.9601 18.0365 24.8846C17.8544 24.8092 17.6889 24.6986 17.5496 24.5591L13.0252 20.0301L9.02868 24.0295C8.88795 24.1702 8.69708 24.2493 8.49805 24.2493C8.29903 24.2493 8.10816 24.1702 7.96743 24.0295C7.8267 23.8887 7.74764 23.6979 7.74764 23.4988C7.74764 23.2998 7.8267 23.1089 7.96743 22.9682L11.9668 18.9717L7.43868 14.4435C7.28984 14.2945 7.17405 14.1158 7.09886 13.9191C7.02366 13.7223 6.99074 13.512 7.00224 13.3016C7.01373 13.0913 7.06939 12.8858 7.16559 12.6984C7.26178 12.5111 7.39636 12.3461 7.56055 12.2141C9.94368 10.2913 12.2246 10.6691 13.2231 10.9823L18.2481 5.93946C18.3873 5.80014 18.5527 5.68962 18.7347 5.61421C18.9167 5.53881 19.1118 5.5 19.3088 5.5C19.5058 5.5 19.7009 5.53881 19.8829 5.61421C20.065 5.68962 20.2303 5.80014 20.3696 5.93946L26.0593 11.6282C26.3405 11.9094 26.4986 12.2907 26.4988 12.6883C26.4989 13.086 26.3412 13.4674 26.0602 13.7488Z" fill="#5F4F7F"/>
</svg>
