<svg width="24" height="24" viewBox="0 0 24 24" fill="none" xmlns="http://www.w3.org/2000/svg">
<path d="M22.0602 9.74884L17.0474 14.7785C17.4749 15.9663 17.6521 17.9557 15.8109 20.4035C15.6821 20.5756 15.5177 20.7179 15.3289 20.8207C15.14 20.9234 14.9313 20.9842 14.7168 20.9988H14.6109C14.4138 20.9989 14.2186 20.9601 14.0365 20.8846C13.8544 20.8092 13.6889 20.6986 13.5496 20.5591L9.02524 16.0301L5.02868 20.0295C4.88795 20.1702 4.69708 20.2493 4.49805 20.2493C4.29903 20.2493 4.10816 20.1702 3.96743 20.0295C3.8267 19.8887 3.74764 19.6979 3.74764 19.4988C3.74764 19.2998 3.8267 19.1089 3.96743 18.9682L7.9668 14.9717L3.43868 10.4435C3.28984 10.2945 3.17405 10.1158 3.09886 9.91906C3.02366 9.72232 2.99074 9.51195 3.00224 9.30165C3.01373 9.09134 3.06939 8.88581 3.16559 8.69844C3.26178 8.51107 3.39636 8.34606 3.56055 8.21415C5.94368 6.29134 8.22462 6.66915 9.22305 6.98227L14.2481 1.93946C14.3873 1.80014 14.5527 1.68962 14.7347 1.61421C14.9167 1.53881 15.1118 1.5 15.3088 1.5C15.5058 1.5 15.7009 1.53881 15.8829 1.61421C16.065 1.68962 16.2303 1.80014 16.3696 1.93946L22.0593 7.62821C22.3405 7.90936 22.4986 8.29067 22.4988 8.68833C22.4989 9.08598 22.3412 9.46744 22.0602 9.74884Z" fill="#5F4F7F"/>
</svg>
