<svg width="12" height="12" viewBox="0 0 12 12" fill="none" xmlns="http://www.w3.org/2000/svg">
<path d="M11.0301 4.87442L8.52372 7.38926C8.73746 7.98317 8.82606 8.97786 7.90543 10.2018C7.84105 10.2878 7.75884 10.359 7.66443 10.4103C7.57002 10.4617 7.46563 10.4921 7.3584 10.4994H7.30543C7.20688 10.4994 7.10929 10.48 7.01824 10.4423C6.92719 10.4046 6.84447 10.3493 6.77481 10.2796L4.51262 8.01504L2.51434 10.0147C2.44397 10.0851 2.34854 10.1246 2.24903 10.1246C2.14952 10.1246 2.05408 10.0851 1.98371 10.0147C1.91335 9.94437 1.87382 9.84893 1.87382 9.74942C1.87382 9.64991 1.91335 9.55447 1.98371 9.48411L3.9834 7.48583L1.71934 5.22176C1.64492 5.14725 1.58703 5.0579 1.54943 4.95953C1.51183 4.86116 1.49537 4.75598 1.50112 4.65082C1.50687 4.54567 1.5347 4.44291 1.58279 4.34922C1.63089 4.25554 1.69818 4.17303 1.78028 4.10707C2.97184 3.14567 4.11231 3.33457 4.61153 3.49114L7.12403 0.969731C7.19367 0.900068 7.27636 0.844808 7.36737 0.807107C7.45837 0.769405 7.55591 0.75 7.65442 0.75C7.75292 0.75 7.85046 0.769405 7.94147 0.807107C8.03248 0.844808 8.11516 0.900068 8.18481 0.969731L11.0297 3.81411C11.1703 3.95468 11.2493 4.14534 11.2494 4.34416C11.2495 4.54299 11.1706 4.73372 11.0301 4.87442Z" fill="white"/>
</svg>
