<svg width="40" height="40" viewBox="0 0 40 40" fill="none" xmlns="http://www.w3.org/2000/svg">
<path d="M16.875 13.75C16.875 12.0241 18.2741 10.625 20 10.625C21.7259 10.625 23.125 12.0241 23.125 13.75V20.625C23.125 22.3509 21.7259 23.75 20 23.75C18.2741 23.75 16.875 22.3509 16.875 20.625V13.75Z" fill="#5F4F7F"/>
<path d="M15 18.75C15.3452 18.75 15.625 19.0298 15.625 19.375V20.625C15.625 23.0412 17.5838 25 20 25C22.4162 25 24.375 23.0412 24.375 20.625V19.375C24.375 19.0298 24.6548 18.75 25 18.75C25.3452 18.75 25.625 19.0298 25.625 19.375V20.625C25.625 23.5203 23.4375 25.9048 20.625 26.2157V28.125H23.125C23.4702 28.125 23.75 28.4048 23.75 28.75C23.75 29.0952 23.4702 29.375 23.125 29.375H16.875C16.5298 29.375 16.25 29.0952 16.25 28.75C16.25 28.4048 16.5298 28.125 16.875 28.125H19.375V26.2157C16.5625 25.9048 14.375 23.5203 14.375 20.625V19.375C14.375 19.0298 14.6548 18.75 15 18.75Z" fill="#5F4F7F"/>
</svg>
