<svg width="40" height="40" viewBox="0 0 40 40" fill="none" xmlns="http://www.w3.org/2000/svg">
<rect width="40" height="40" rx="20" fill="#272533"/>
<path fill-rule="evenodd" clip-rule="evenodd" d="M12 14.2857C12 13.0233 13.0233 12 14.2857 12H15.3308C15.9863 12 16.5577 12.4461 16.7167 13.0821L17.5592 16.4521C17.6986 17.0098 17.4902 17.5966 17.0304 17.9415L16.0448 18.6807C15.9425 18.7574 15.9202 18.8699 15.949 18.9483C16.8141 21.3101 18.6899 23.1859 21.0517 24.051C21.1302 24.0798 21.2426 24.0575 21.3193 23.9552L22.0585 22.9696C22.4034 22.5098 22.9902 22.3014 23.5479 22.4408L26.9179 23.2833C27.5539 23.4423 28 24.0137 28 24.6692V25.7143C28 26.9767 26.9767 28 25.7143 28H24C17.3726 28 12 22.6274 12 16V14.2857Z" fill="#5F4F7F"/>
</svg>
