<svg width="12" height="13" viewBox="0 0 12 13" fill="none" xmlns="http://www.w3.org/2000/svg">
<g id="Component 121">
<path id="Vector" d="M11.0301 5.37442L8.52372 7.88926C8.73746 8.48317 8.82606 9.47786 7.90543 10.7018C7.84105 10.7878 7.75884 10.859 7.66443 10.9103C7.57002 10.9617 7.46563 10.9921 7.3584 10.9994H7.30543C7.20688 10.9994 7.10929 10.98 7.01824 10.9423C6.92719 10.9046 6.84447 10.8493 6.77481 10.7796L4.51262 8.51504L2.51434 10.5147C2.44397 10.5851 2.34854 10.6246 2.24903 10.6246C2.14952 10.6246 2.05408 10.5851 1.98371 10.5147C1.91335 10.4444 1.87382 10.3489 1.87382 10.2494C1.87382 10.1499 1.91335 10.0545 1.98371 9.98411L3.9834 7.98583L1.71934 5.72176C1.64492 5.64725 1.58703 5.5579 1.54943 5.45953C1.51183 5.36116 1.49537 5.25598 1.50112 5.15082C1.50687 5.04567 1.5347 4.94291 1.58279 4.84922C1.63089 4.75554 1.69818 4.67303 1.78028 4.60707C2.97184 3.64567 4.11231 3.83457 4.61153 3.99114L7.12403 1.46973C7.19367 1.40007 7.27636 1.34481 7.36737 1.30711C7.45837 1.2694 7.55591 1.25 7.65442 1.25C7.75292 1.25 7.85046 1.2694 7.94147 1.30711C8.03248 1.34481 8.11516 1.40007 8.18481 1.46973L11.0297 4.31411C11.1703 4.45468 11.2493 4.64534 11.2494 4.84416C11.2495 5.04299 11.1706 5.23372 11.0301 5.37442Z" fill="#E9E3F5"/>
</g>
</svg>
