<svg width="40" height="40" viewBox="0 0 40 40" fill="none" xmlns="http://www.w3.org/2000/svg">
<rect width="40" height="40" rx="20" fill="#272533"/>
<path fill-rule="evenodd" clip-rule="evenodd" d="M18.75 13.125C15.6434 13.125 13.125 15.6434 13.125 18.75C13.125 21.8566 15.6434 24.375 18.75 24.375C20.3035 24.375 21.7089 23.7461 22.7275 22.7275C23.7461 21.7089 24.375 20.3035 24.375 18.75C24.375 15.6434 21.8566 13.125 18.75 13.125ZM11.875 18.75C11.875 14.953 14.953 11.875 18.75 11.875C22.547 11.875 25.625 14.953 25.625 18.75C25.625 20.4232 25.0266 21.9575 24.0333 23.1494L27.9419 27.0581C28.186 27.3021 28.186 27.6979 27.9419 27.9419C27.6979 28.186 27.3021 28.186 27.0581 27.9419L23.1494 24.0333C21.9575 25.0266 20.4232 25.625 18.75 25.625C14.953 25.625 11.875 22.547 11.875 18.75Z" fill="#E9E3F5"/>
</svg>
