<svg width="24" height="24" viewBox="0 0 24 24" fill="none" xmlns="http://www.w3.org/2000/svg">
<path d="M14.6573 8.54545L14.3217 17.2727M9.67832 17.2727L9.34266 8.54545M19.0086 5.43328C19.3402 5.48336 19.6707 5.53694 20 5.59398M19.0086 5.43328L17.9731 18.8946C17.8857 20.0313 16.9378 20.9091 15.7978 20.9091H8.20225C7.06217 20.9091 6.1143 20.0313 6.02686 18.8946L4.99137 5.43328M19.0086 5.43328C17.8969 5.26539 16.7724 5.13683 15.6364 5.04904M4 5.59398C4.32928 5.53694 4.65975 5.48336 4.99137 5.43328M4.99137 5.43328C6.10305 5.26539 7.22763 5.13683 8.36364 5.04904M15.6364 5.04904V4.16067C15.6364 3.01704 14.7533 2.06228 13.6103 2.02572C13.0756 2.00862 12.5388 2 12 2C11.4612 2 10.9244 2.00862 10.3897 2.02572C9.2467 2.06228 8.36364 3.01704 8.36364 4.16067V5.04904M15.6364 5.04904C14.4364 4.95632 13.2237 4.90909 12 4.90909C10.7763 4.90909 9.56358 4.95632 8.36364 5.04904" stroke="#D75048" stroke-width="1.5" stroke-linecap="round" stroke-linejoin="round"/>
</svg>
