<svg width="24" height="24" viewBox="0 0 24 24" fill="none" xmlns="http://www.w3.org/2000/svg">
<rect width="24" height="24" rx="12" fill="#5F4F7F"/>
<path fill-rule="evenodd" clip-rule="evenodd" d="M9 8.4C9 8.17909 9.19188 8 9.42857 8H10.2857C10.5224 8 10.7143 8.17909 10.7143 8.4V15.6C10.7143 15.8209 10.5224 16 10.2857 16H9.42857C9.31491 16 9.2059 15.9579 9.12553 15.8828C9.04515 15.8078 9 15.7061 9 15.6L9 8.4ZM13.2857 8.4C13.2857 8.17909 13.4776 8 13.7143 8H14.5714C14.6851 8 14.7941 8.04214 14.8745 8.11716C14.9548 8.19217 15 8.29391 15 8.4L15 15.6C15 15.8209 14.8081 16 14.5714 16H13.7143C13.4776 16 13.2857 15.8209 13.2857 15.6V8.4Z" fill="white"/>
</svg>
