<svg width="30" height="30" viewBox="0 0 30 30" fill="none" xmlns="http://www.w3.org/2000/svg">
<path d="M18.9775 18.9775C16.7808 21.1742 13.2192 21.1742 11.0225 18.9775M26.25 15C26.25 21.2132 21.2132 26.25 15 26.25C8.7868 26.25 3.75 21.2132 3.75 15C3.75 8.7868 8.7868 3.75 15 3.75C21.2132 3.75 26.25 8.7868 26.25 15ZM12.1875 12.1875C12.1875 12.7053 11.9776 13.125 11.7188 13.125C11.4599 13.125 11.25 12.7053 11.25 12.1875C11.25 11.6697 11.4599 11.25 11.7188 11.25C11.9776 11.25 12.1875 11.6697 12.1875 12.1875ZM11.7188 12.1875H11.7281V12.2063H11.7188V12.1875ZM18.75 12.1875C18.75 12.7053 18.5401 13.125 18.2812 13.125C18.0224 13.125 17.8125 12.7053 17.8125 12.1875C17.8125 11.6697 18.0224 11.25 18.2812 11.25C18.5401 11.25 18.75 11.6697 18.75 12.1875ZM18.2812 12.1875H18.2906V12.2063H18.2812V12.1875Z" stroke="#5F4F7F" stroke-width="1.5" stroke-linecap="round" stroke-linejoin="round"/>
</svg>
