<svg width="40" height="40" viewBox="0 0 40 40" fill="none" xmlns="http://www.w3.org/2000/svg">
<circle cx="20" cy="20" r="20" fill="#5F4F7F"/>
<path fill-rule="evenodd" clip-rule="evenodd" d="M10 20C10 14.4772 14.4772 10 20 10C25.5228 10 30 14.4772 30 20C30 25.5228 25.5228 30 20 30C14.4772 30 10 25.5228 10 20ZM21.6694 15.9828C20.7578 15.1852 19.2427 15.1852 18.3311 15.9828C18.0113 16.2626 17.5254 16.2302 17.2456 15.9105C16.9659 15.5908 16.9983 15.1048 17.318 14.825C18.8096 13.5199 21.1909 13.5199 22.6825 14.825C24.2344 16.1829 24.2344 18.4325 22.6825 19.7903C22.4193 20.0207 22.1293 20.2094 21.8236 20.3573C21.13 20.693 20.7695 21.151 20.7695 21.5385V22.3077C20.7695 22.7325 20.4251 23.0769 20.0002 23.0769C19.5754 23.0769 19.231 22.7325 19.231 22.3077V21.5385C19.231 20.2266 20.3174 19.3771 21.1534 18.9725C21.3408 18.8818 21.5144 18.7682 21.6694 18.6325C22.5208 17.8876 22.5208 16.7278 21.6694 15.9828ZM20 26.1538C20.4248 26.1538 20.7692 25.8095 20.7692 25.3846C20.7692 24.9598 20.4248 24.6154 20 24.6154C19.5752 24.6154 19.2308 24.9598 19.2308 25.3846C19.2308 25.8095 19.5752 26.1538 20 26.1538Z" fill="#E9E3F5"/>
</svg>
