<svg width="70" height="70" viewBox="0 0 70 70" fill="none" xmlns="http://www.w3.org/2000/svg">
<circle cx="35" cy="35" r="34" fill="#C896EF" stroke="#5F4F7F" stroke-width="2"/>
<g clip-path="url(#clip0_5131_39445)">
<path d="M23.3335 30.0007C23.3335 26.9065 24.5627 23.939 26.7506 21.7511C28.9385 19.5631 31.906 18.334 35.0002 18.334C38.0944 18.334 41.0618 19.5631 43.2497 21.7511C45.4377 23.939 46.6668 26.9065 46.6668 30.0007V31.7257C49.4935 32.1307 51.6668 34.5623 51.6668 37.5007V37.9173C51.6668 40.8757 49.1152 43.469 46.1135 43.3306C44.8802 46.864 41.7435 49.2457 38.3585 49.849C37.5752 50.1357 36.6485 50.0007 35.8335 50.0007C35.1705 50.0007 34.5346 49.7373 34.0657 49.2684C33.5969 48.7996 33.3335 48.1637 33.3335 47.5007C33.3335 46.8376 33.5969 46.2017 34.0657 45.7329C34.5346 45.264 35.1705 45.0007 35.8335 45.0007C37.1552 45.0007 38.6185 44.809 39.5118 46.0156C41.6718 44.9873 43.3335 42.8157 43.3335 40.0007V30.0007C43.3335 27.7905 42.4555 25.6709 40.8927 24.1081C39.3299 22.5453 37.2103 21.6673 35.0002 21.6673C32.79 21.6673 30.6704 22.5453 29.1076 24.1081C27.5448 25.6709 26.6668 27.7905 26.6668 30.0007V40.4173C26.6668 41.1909 26.3595 41.9327 25.8126 42.4797C25.2656 43.0267 24.5237 43.334 23.7502 43.334C22.3136 43.334 20.9358 42.7633 19.92 41.7475C18.9042 40.7317 18.3335 39.3539 18.3335 37.9173V37.5007C18.3331 36.0977 18.8384 34.7416 19.7568 33.6809C20.6751 32.6202 21.9449 31.9261 23.3335 31.7257V30.0007Z" fill="#5F4F7F"/>
</g>
<defs>
<clipPath id="clip0_5131_39445">
<rect width="40" height="40" fill="white" transform="translate(15 15)"/>
</clipPath>
</defs>
</svg>
