<svg width="18" height="18" viewBox="0 0 18 18" fill="none" xmlns="http://www.w3.org/2000/svg">
<rect width="18" height="18" rx="9" fill="#5F4F7F">
</rect>
<path d="M5.85 13.05C5.60147 13.2985 5.19853 13.2985 4.95 13.05C4.70147 12.8015 4.70147 12.3985 4.95 12.15L8.1 9L4.95 5.85C4.70147 5.60147 4.70147 5.19853 4.95 4.95C5.19853 4.70147 5.60147 4.70147 5.85 4.95L9 8.1L12.15 4.95C12.3985 4.70147 12.8015 4.70147 13.05 4.95C13.2985 5.19853 13.2985 5.60147 13.05 5.85L9.9 9L13.05 12.15C13.2985 12.3985 13.2985 12.8015 13.05 13.05C12.8015 13.2985 12.3985 13.2985 12.15 13.05L9 9.9L5.85 13.05Z" fill="#272533"/>
</svg>
