<svg
xmlns="http://www.w3.org/2000/svg"
width="24"
height="24"
viewBox="0 0 24 24"
fill="none"
>
<path
d="M15.5355 15.5355C13.5829 17.4882 10.4171 17.4882 8.46447 15.5355M22 12C22 17.5228 17.5228 22 12 22C6.47715 22 2 17.5228 2 12C2 6.47715 6.47715 2 12 2C17.5228 2 22 6.47715 22 12ZM9.5 9.5C9.5 9.96024 9.31345 10.3333 9.08333 10.3333C8.85321 10.3333 8.66667 9.96024 8.66667 9.5C8.66667 9.03976 8.85321 8.66667 9.08333 8.66667C9.31345 8.66667 9.5 9.03976 9.5 9.5ZM9.08333 9.5H9.09167V9.51667H9.08333V9.5ZM15.3333 9.5C15.3333 9.96024 15.1468 10.3333 14.9167 10.3333C14.6865 10.3333 14.5 9.96024 14.5 9.5C14.5 9.03976 14.6865 8.66667 14.9167 8.66667C15.1468 8.66667 15.3333 9.03976 15.3333 9.5ZM14.9167 9.5H14.925V9.51667H14.9167V9.5Z"
stroke="#5F4F7F"
stroke-width="1.5"
stroke-linecap="round"
stroke-linejoin="round"
/>
</svg>