<svg width="48" height="48" viewBox="0 0 48 48" fill="none" xmlns="http://www.w3.org/2000/svg">
<circle cx="24" cy="24" r="23" fill="#C896EF" stroke="#5F4F7F" stroke-width="2"/>
<g clip-path="url(#clip0_8209_61092)">
<path d="M14.6641 20.0013C14.6641 17.5259 15.6474 15.152 17.3977 13.4016C19.1481 11.6513 21.522 10.668 23.9974 10.668C26.4727 10.668 28.8467 11.6513 30.5971 13.4016C32.3474 15.152 33.3307 17.5259 33.3307 20.0013V21.3813C35.5921 21.7053 37.3307 23.6506 37.3307 26.0013V26.3346C37.3307 28.7013 35.2894 30.776 32.8881 30.6653C31.9014 33.492 29.3921 35.3973 26.6841 35.88C26.0574 36.1093 25.3161 36.0013 24.6641 36.0013C24.1336 36.0013 23.6249 35.7906 23.2498 35.4155C22.8748 35.0404 22.6641 34.5317 22.6641 34.0013C22.6641 33.4709 22.8748 32.9622 23.2498 32.5871C23.6249 32.212 24.1336 32.0013 24.6641 32.0013C25.7214 32.0013 26.8921 31.848 27.6067 32.8133C29.3347 31.9906 30.6641 30.2533 30.6641 28.0013V20.0013C30.6641 18.2332 29.9617 16.5375 28.7114 15.2873C27.4612 14.037 25.7655 13.3346 23.9974 13.3346C22.2293 13.3346 20.5336 14.037 19.2833 15.2873C18.0331 16.5375 17.3307 18.2332 17.3307 20.0013V28.3346C17.3307 28.9535 17.0849 29.547 16.6473 29.9846C16.2097 30.4221 15.6162 30.668 14.9974 30.668C13.8481 30.668 12.7459 30.2114 11.9333 29.3988C11.1206 28.5861 10.6641 27.4839 10.6641 26.3346V26.0013C10.6638 24.8789 11.068 23.794 11.8027 22.9455C12.5373 22.097 13.5532 21.5416 14.6641 21.3813V20.0013Z" fill="#5F4F7F"/>
</g>
<defs>
<clipPath id="clip0_8209_61092">
<rect width="32" height="32" fill="white" transform="translate(8 8)"/>
</clipPath>
</defs>
</svg>
