<svg width="25" height="24" viewBox="0 0 25 24" fill="none" xmlns="http://www.w3.org/2000/svg">
<circle cx="10.5" cy="14" r="7" stroke="#5F4F7F" stroke-width="2"/>
<path d="M21.5 3H22.5C22.5 2.44772 22.0523 2 21.5 2V3ZM20.5 8C20.5 8.55228 20.9477 9 21.5 9C22.0523 9 22.5 8.55228 22.5 8H20.5ZM16.5 2C15.9477 2 15.5 2.44772 15.5 3C15.5 3.55228 15.9477 4 16.5 4V2ZM16.7071 9.20711L22.2071 3.70711L20.7929 2.29289L15.2929 7.79289L16.7071 9.20711ZM20.5 3V8H22.5V3H20.5ZM16.5 4H21.5V2H16.5V4Z" fill="#5F4F7F"/>
</svg>
