<svg width="25" height="25" viewBox="0 0 25 25" fill="none" xmlns="http://www.w3.org/2000/svg">
<g opacity="0.9">
<path fill-rule="evenodd" clip-rule="evenodd" d="M12.039 21.852C12.0692 21.8695 12.093 21.883 12.1098 21.8925L12.1377 21.9081C12.3606 22.0304 12.637 22.0295 12.8601 21.9085L12.8888 21.8925C12.9056 21.883 12.9293 21.8695 12.9595 21.852C13.0199 21.817 13.1062 21.766 13.2148 21.6992C13.4317 21.5656 13.738 21.3685 14.1039 21.1101C14.8344 20.5941 15.809 19.8284 16.7858 18.8283C18.7299 16.8378 20.7493 13.8471 20.7493 10.001C20.7493 5.44463 17.0556 1.75098 12.4993 1.75098C7.94292 1.75098 4.24927 5.44463 4.24927 10.001C4.24927 13.8471 6.26859 16.8378 8.21272 18.8283C9.18952 19.8284 10.1642 20.5941 10.8947 21.1101C11.2605 21.3685 11.5668 21.5656 11.7838 21.6992C11.8923 21.766 11.9786 21.817 12.039 21.852ZM12.4993 13.001C14.1561 13.001 15.4993 11.6578 15.4993 10.001C15.4993 8.34412 14.1561 7.00098 12.4993 7.00098C10.8424 7.00098 9.49927 8.34412 9.49927 10.001C9.49927 11.6578 10.8424 13.001 12.4993 13.001Z" fill="#5F4F7F"/>
</g>
</svg>
