<svg width="18" height="18" viewBox="0 0 18 18" fill="none" xmlns="http://www.w3.org/2000/svg">
<path d="M2.75 4.625H3.625C4.08913 4.625 4.53425 4.44063 4.86244 4.11244C5.19063 3.78425 5.375 3.33913 5.375 2.875C5.375 2.64294 5.46719 2.42038 5.63128 2.25628C5.79538 2.09219 6.01794 2 6.25 2H11.5C11.7321 2 11.9546 2.09219 12.1187 2.25628C12.2828 2.42038 12.375 2.64294 12.375 2.875C12.375 3.33913 12.5594 3.78425 12.8876 4.11244C13.2158 4.44063 13.6609 4.625 14.125 4.625H15C15.4641 4.625 15.9092 4.80937 16.2374 5.13756C16.5656 5.46575 16.75 5.91087 16.75 6.375V14.25C16.75 14.7141 16.5656 15.1592 16.2374 15.4874C15.9092 15.8156 15.4641 16 15 16H2.75C2.28587 16 1.84075 15.8156 1.51256 15.4874C1.18437 15.1592 1 14.7141 1 14.25V6.375C1 5.91087 1.18437 5.46575 1.51256 5.13756C1.84075 4.80937 2.28587 4.625 2.75 4.625Z" stroke="#5F4F7F" stroke-linecap="round" stroke-linejoin="round"/>
<path d="M5.375 9.875C5.375 10.8033 5.74375 11.6935 6.40013 12.3499C7.0565 13.0063 7.94674 13.375 8.875 13.375C9.80326 13.375 10.6935 13.0063 11.3499 12.3499C12.0063 11.6935 12.375 10.8033 12.375 9.875C12.375 8.94674 12.0063 8.0565 11.3499 7.40013C10.6935 6.74375 9.80326 6.375 8.875 6.375C7.94674 6.375 7.0565 6.74375 6.40013 7.40013C5.74375 8.0565 5.375 8.94674 5.375 9.875Z" stroke="#5F4F7F" stroke-linecap="round" stroke-linejoin="round"/>
</svg>
