<svg width="46" height="46" viewBox="0 0 46 46" fill="none" xmlns="http://www.w3.org/2000/svg">
<path fill-rule="evenodd" clip-rule="evenodd" d="M23 0.25C10.4355 0.25 0.25 10.4355 0.25 23C0.25 35.5645 10.4355 45.75 23 45.75C35.5645 45.75 45.75 35.5645 45.75 23C45.75 10.4355 35.5645 0.25 23 0.25ZM24.75 16C24.75 15.0335 23.9665 14.25 23 14.25C22.0335 14.25 21.25 15.0335 21.25 16V21.25H16C15.0335 21.25 14.25 22.0335 14.25 23C14.25 23.9665 15.0335 24.75 16 24.75H21.25V30C21.25 30.9665 22.0335 31.75 23 31.75C23.9665 31.75 24.75 30.9665 24.75 30V24.75H30C30.9665 24.75 31.75 23.9665 31.75 23C31.75 22.0335 30.9665 21.25 30 21.25H24.75V16Z" fill="#EB53A2"/>
</svg>
