<svg width="32" height="32" viewBox="0 0 32 32" fill="none" xmlns="http://www.w3.org/2000/svg">
<rect width="32" height="32" rx="16" fill="#5F4F7F"/>
<path d="M18.2145 13.5385L17.9348 20.9231M14.0653 20.9231L13.7856 13.5385M21.8406 10.9051C22.1169 10.9475 22.3923 10.9928 22.6667 11.0411M21.8406 10.9051L20.9777 22.2954C20.9048 23.2573 20.1149 24 19.1648 24H12.8352C11.8852 24 11.0953 23.2573 11.0224 22.2954L10.1595 10.9051M21.8406 10.9051C20.9142 10.763 19.977 10.6542 19.0303 10.58M9.33337 11.0411C9.60778 10.9928 9.88317 10.9475 10.1595 10.9051M10.1595 10.9051C11.0859 10.763 12.0231 10.6542 12.9697 10.58M19.0303 10.58V9.82826C19.0303 8.86057 18.2945 8.0527 17.3419 8.02176C16.8964 8.00729 16.449 8 16 8C15.551 8 15.1037 8.00729 14.6582 8.02176C13.7056 8.0527 12.9697 8.86057 12.9697 9.82826V10.58M19.0303 10.58C18.0304 10.5015 17.0198 10.4615 16 10.4615C14.9803 10.4615 13.9697 10.5015 12.9697 10.58" stroke="white" stroke-width="1.5" stroke-linecap="round" stroke-linejoin="round"/>
</svg>
