<svg width="47" height="47" viewBox="0 0 47 47" fill="none" xmlns="http://www.w3.org/2000/svg">
<path fill-rule="evenodd" clip-rule="evenodd" d="M39.5945 7.41969C30.7101 -1.46474 16.3056 -1.46474 7.42113 7.41969C-1.46329 16.3041 -1.46329 30.7086 7.42113 39.593C16.3056 48.4775 30.7101 48.4775 39.5945 39.593C48.4789 30.7086 48.4789 16.3041 39.5945 7.41969ZM29.695 19.7941C30.3784 19.1106 30.3784 18.0026 29.695 17.3192C29.0116 16.6358 27.9035 16.6358 27.2201 17.3192L23.5078 21.0315L19.7955 17.3192C19.1121 16.6358 18.004 16.6358 17.3206 17.3192C16.6372 18.0026 16.6372 19.1106 17.3206 19.7941L21.0329 23.5064L17.3206 27.2187C16.6372 27.9021 16.6372 29.0101 17.3206 29.6935C18.004 30.377 19.1121 30.377 19.7955 29.6935L23.5078 25.9812L27.2201 29.6935C27.9035 30.377 29.0116 30.377 29.695 29.6935C30.3784 29.0101 30.3784 27.9021 29.695 27.2187L25.9827 23.5064L29.695 19.7941Z" fill="#EB53A2"/>
</svg>
