<svg width="24" height="24" viewBox="0 0 24 24" fill="none" xmlns="http://www.w3.org/2000/svg">
<path d="M9.5 18.5C8.94772 18.5 8.5 18.9477 8.5 19.5C8.5 20.0523 8.94772 20.5 9.5 20.5V18.5ZM14.5 20.5C15.0523 20.5 15.5 20.0523 15.5 19.5C15.5 18.9477 15.0523 18.5 14.5 18.5V20.5ZM11 23.0001C11 23.5524 11.4478 24 12.0001 24C12.5524 24 13 23.5522 13 22.9999L11 23.0001ZM10.9997 16.5V19.5H12.9997V16.5H10.9997ZM11.9997 18.5H9.5V20.5H11.9997V18.5ZM14.5 18.5H11.9997V20.5H14.5V18.5ZM10.9997 19.5001L11 23.0001L13 22.9999L12.9997 19.4999L10.9997 19.5001Z" fill="#5F4F7F"/>
<path d="M19 9C19 12.866 15.866 16 12 16C8.13401 16 5 12.866 5 9C5 5.13401 8.13401 2 12 2C15.866 2 19 5.13401 19 9Z" stroke="#5F4F7F" stroke-width="2"/>
</svg>
