<svg width="81" height="68" viewBox="0 0 81 68" fill="none" xmlns="http://www.w3.org/2000/svg">
<path d="M21.1008 12.1559C19.7468 14.3258 17.4798 15.7524 14.9475 16.1123C13.5246 16.3145 12.107 16.5333 10.695 16.7686C6.74669 17.4266 3.9375 20.8999 3.9375 24.9026V56.5C3.9375 61.1599 7.7151 64.9375 12.375 64.9375H68.625C73.2849 64.9375 77.0625 61.1599 77.0625 56.5V24.9026C77.0625 20.8999 74.2533 17.4266 70.305 16.7687C68.893 16.5334 67.4754 16.3145 66.0525 16.1123C63.5202 15.7524 61.2532 14.3258 59.8992 12.1559L56.8196 7.22084C55.4003 4.94637 52.9852 3.46894 50.3081 3.32518C47.0609 3.15081 43.7907 3.0625 40.5 3.0625C37.2093 3.0625 33.9391 3.15081 30.6919 3.32518C28.0148 3.46894 25.5997 4.94637 24.1804 7.22084L21.1008 12.1559Z" stroke="#5F4F7F" stroke-width="6" stroke-linecap="round" stroke-linejoin="round"/>
<path d="M57.375 36.8125C57.375 46.1323 49.8198 53.6875 40.5 53.6875C31.1802 53.6875 23.625 46.1323 23.625 36.8125C23.625 27.4927 31.1802 19.9375 40.5 19.9375C49.8198 19.9375 57.375 27.4927 57.375 36.8125Z" stroke="#5F4F7F" stroke-width="6" stroke-linecap="round" stroke-linejoin="round"/>
<path d="M65.8125 28.375H65.8406V28.4031H65.8125V28.375Z" stroke="#5F4F7F" stroke-width="6" stroke-linecap="round" stroke-linejoin="round"/>
</svg>
