<svg width="32" height="32" viewBox="0 0 32 32" fill="none" xmlns="http://www.w3.org/2000/svg">
<rect width="32" height="32" rx="16" fill="#5F4F7F"/>
<path d="M16.8334 9.75251C16.8334 8.63888 15.4869 8.08116 14.6995 8.86862L10.9495 12.6186H9.34092C8.38981 12.6186 7.40925 13.1723 7.12446 14.2062C6.9346 14.8954 6.83337 15.6207 6.83337 16.3686C6.83337 17.1166 6.9346 17.8418 7.12446 18.5311C7.40925 19.5649 8.38981 20.1186 9.34092 20.1186H10.9495L14.6995 23.8686C15.4869 24.6561 16.8334 24.0984 16.8334 22.9847V9.75251Z" fill="white"/>
<path d="M21.0698 10.6233C21.3139 10.3792 21.7096 10.3792 21.9537 10.6233C25.1267 13.7963 25.1267 18.9408 21.9537 22.1138C21.7096 22.3579 21.3139 22.3579 21.0698 22.1138C20.8257 21.8697 20.8257 21.474 21.0698 21.2299C23.7546 18.5451 23.7546 14.1921 21.0698 11.5072C20.8257 11.2631 20.8257 10.8674 21.0698 10.6233Z" fill="white"/>
<path d="M18.8603 12.8331C19.1044 12.589 19.5001 12.589 19.7442 12.8331C21.6968 14.7857 21.6968 17.9516 19.7442 19.9042C19.5001 20.1482 19.1044 20.1482 18.8603 19.9042C18.6162 19.6601 18.6162 19.2644 18.8603 19.0203C20.3248 17.5558 20.3248 15.1815 18.8603 13.717C18.6162 13.4729 18.6162 13.0772 18.8603 12.8331Z" fill="white"/>
</svg>
