<svg width="32" height="32" viewBox="0 0 32 32" fill="none" xmlns="http://www.w3.org/2000/svg">
<rect width="32" height="32" rx="16" fill="#5F4F7F"/>
<path fill-rule="evenodd" clip-rule="evenodd" d="M8.72793 12.6953C7.99871 12.8801 7.34764 13.3955 7.12434 14.2062C6.93448 14.8954 6.83325 15.6207 6.83325 16.3686C6.83325 17.1166 6.93448 17.8418 7.12434 18.5311C7.40913 19.5649 8.38968 20.1186 9.3408 20.1186H10.9494L14.6994 23.8686C15.4868 24.6561 16.8333 24.0984 16.8333 22.9847V20.8006L8.72793 12.6953ZM20.7842 18.3877L19.8106 17.414C20.1779 16.144 19.8611 14.7179 18.8602 13.717C18.6161 13.4729 18.6161 13.0772 18.8602 12.8331C19.1043 12.589 19.5 12.589 19.7441 12.8331C21.2459 14.3349 21.5926 16.5544 20.7842 18.3877ZM23.0892 20.6926L22.1782 19.7817C23.6816 17.1557 23.3121 13.7496 21.0697 11.5072C20.8256 11.2631 20.8256 10.8674 21.0697 10.6233C21.3137 10.3792 21.7095 10.3792 21.9535 10.6233C24.6871 13.3569 25.0657 17.5538 23.0892 20.6926ZM16.8333 14.4367L12.9823 10.5857L14.6994 8.86862C15.4868 8.08116 16.8333 8.63888 16.8333 9.75251V14.4367Z" fill="white"/>
<path d="M8 9L22 23" stroke="white" stroke-width="1.5" stroke-linecap="round" stroke-linejoin="round"/>
</svg>
