<svg width="10" height="10" viewBox="0 0 10 10" fill="none" xmlns="http://www.w3.org/2000/svg">
<path d="M8.73955 3.05176L6.23955 3.86426V1.23926C6.23955 0.974041 6.13419 0.719688 5.94665 0.532151C5.75912 0.344615 5.50476 0.239258 5.23955 0.239258C4.97433 0.239258 4.71998 0.344615 4.53244 0.532151C4.3449 0.719688 4.23955 0.974041 4.23955 1.23926V3.86426L1.73955 3.05176C1.48726 2.96888 1.21238 2.98961 0.975384 3.1094C0.738385 3.22919 0.558678 3.43822 0.475798 3.69051C0.392918 3.9428 0.413653 4.21767 0.533442 4.45467C0.653231 4.69167 0.862261 4.87138 1.11455 4.95426L3.61455 5.76551L2.07205 7.89051C1.99053 7.99642 1.93107 8.11761 1.89719 8.24689C1.86331 8.37618 1.85568 8.51095 1.87477 8.64323C1.89386 8.77551 1.93927 8.90263 2.00832 9.01706C2.07737 9.1315 2.16866 9.23093 2.27679 9.30948C2.38493 9.38803 2.50771 9.44411 2.63789 9.4744C2.76806 9.50469 2.90299 9.50858 3.03469 9.48583C3.16639 9.46309 3.2922 9.41417 3.40468 9.34198C3.51716 9.26978 3.61402 9.17578 3.68955 9.06551L5.23205 6.94051L6.77455 9.06551C6.85007 9.17578 6.94694 9.26978 7.05941 9.34198C7.17189 9.41417 7.2977 9.46309 7.4294 9.48583C7.56111 9.50858 7.69603 9.50469 7.82621 9.4744C7.95639 9.44411 8.07917 9.38803 8.1873 9.30948C8.29544 9.23093 8.38672 9.1315 8.45578 9.01706C8.52483 8.90263 8.57024 8.77551 8.58933 8.64323C8.60841 8.51095 8.60079 8.37618 8.56691 8.24689C8.53302 8.11761 8.47356 7.99642 8.39205 7.89051L6.84955 5.76551L9.34955 4.95426C9.59069 4.86456 9.78799 4.68537 9.90041 4.45395C10.0128 4.22252 10.0317 3.95667 9.95318 3.71167C9.87462 3.46667 9.70466 3.26138 9.47863 3.13847C9.25259 3.01557 8.98789 2.98451 8.73955 3.05176Z" fill="#D75048"/>
</svg>
