<svg width="18" height="18" viewBox="0 0 18 18" fill="none" xmlns="http://www.w3.org/2000/svg">
<path d="M11.8125 12.9375V15.4688C11.8125 15.9347 11.4347 16.3125 10.9688 16.3125H3.65625C3.19026 16.3125 2.8125 15.9347 2.8125 15.4688V5.90625C2.8125 5.44026 3.19026 5.0625 3.65625 5.0625H5.0625C5.4458 5.0625 5.82164 5.09445 6.1875 5.15583M11.8125 12.9375H14.3438C14.8097 12.9375 15.1875 12.5597 15.1875 12.0938V8.4375C15.1875 5.09288 12.7549 2.31642 9.5625 1.78083C9.19664 1.71945 8.8208 1.6875 8.4375 1.6875H7.03125C6.56526 1.6875 6.1875 2.06526 6.1875 2.53125V5.15583M11.8125 12.9375H7.03125C6.56526 12.9375 6.1875 12.5597 6.1875 12.0938V5.15583M15.1875 10.125V8.71875C15.1875 7.32078 14.0542 6.1875 12.6562 6.1875H11.5312C11.0653 6.1875 10.6875 5.80974 10.6875 5.34375V4.21875C10.6875 2.82078 9.55422 1.6875 8.15625 1.6875H7.3125" stroke="#5F4F7F" stroke-linecap="round" stroke-linejoin="round"/>
</svg>
