<svg width="24" height="24" viewBox="0 0 24 24" fill="none" xmlns="http://www.w3.org/2000/svg">
<path d="M22.0616 7.62821L16.3719 1.93946C16.2326 1.80014 16.0672 1.68962 15.8852 1.61421C15.7032 1.53881 15.5081 1.5 15.3111 1.5C15.1141 1.5 14.919 1.53881 14.737 1.61421C14.555 1.68962 14.3896 1.80014 14.2503 1.93946L9.22253 6.98321C8.22316 6.67009 5.94128 6.29227 3.56003 8.21509C3.3959 8.34707 3.2614 8.51213 3.16529 8.69954C3.06918 8.88694 3.01361 9.09249 3.0022 9.30279C2.99079 9.5131 3.0238 9.72345 3.09908 9.92015C3.17435 10.1169 3.2902 10.2955 3.4391 10.4445L7.9691 14.9726L3.96972 18.9692C3.82899 19.1099 3.74993 19.3008 3.74993 19.4998C3.74993 19.6988 3.82899 19.8897 3.96972 20.0304C4.11045 20.1711 4.30132 20.2502 4.50035 20.2502C4.69937 20.2502 4.89024 20.1711 5.03097 20.0304L9.02753 16.031L13.5547 20.5582C13.6939 20.698 13.8593 20.8089 14.0414 20.8847C14.2235 20.9604 14.4187 20.9996 14.616 20.9998H14.7219C14.9357 20.985 15.1439 20.9243 15.3322 20.8219C15.5205 20.7195 15.6845 20.5778 15.8132 20.4063C17.6544 17.9595 17.4772 15.9701 17.0497 14.7813L22.0625 9.74977C22.2018 9.61042 22.3122 9.445 22.3876 9.26295C22.4629 9.08091 22.5016 8.88581 22.5015 8.6888C22.5014 8.49179 22.4625 8.29672 22.3871 8.11474C22.3116 7.93277 22.201 7.76744 22.0616 7.62821ZM21.0003 8.68946L15.6313 14.0763C15.5204 14.1876 15.4473 14.3309 15.4222 14.486C15.3971 14.6411 15.4214 14.8002 15.4916 14.9407C16.3785 16.7154 15.3228 18.5585 14.616 19.4988L4.50035 9.38227C5.63285 8.46915 6.7166 8.22821 7.54535 8.22821C8.07122 8.22103 8.59275 8.32419 9.07628 8.53102C9.21735 8.60162 9.37709 8.62595 9.53278 8.60053C9.68847 8.57512 9.83218 8.50126 9.94347 8.38946L15.3116 2.99977L21.0003 8.68852V8.68946Z" fill="#5F4F7F"/>
</svg>
