<svg width="26" height="26" viewBox="0 0 26 26" fill="none" xmlns="http://www.w3.org/2000/svg">
  <path fill-rule="evenodd" clip-rule="evenodd" d="M10.5628 2.70964C10.5628 2.56598 10.5058 2.4282 10.4042 2.32662C10.3026 2.22504 10.1648 2.16797 10.0212 2.16797H8.66699C8.52333 2.16797 8.38556 2.22504 8.28398 2.32662C8.18239 2.4282 8.12533 2.56598 8.12533 2.70964V9.30822C8.12527 9.36248 8.11381 9.41612 8.0917 9.46567C8.06958 9.51522 8.0373 9.55957 7.99695 9.59584C7.18494 10.3267 6.53565 11.2202 6.09119 12.2182C5.64673 13.2162 5.41703 14.2965 5.41699 15.389V22.6386C5.41699 23.2995 5.9527 23.8346 6.61299 23.8346H11.7236C11.8913 23.8347 12.0573 23.8017 12.2122 23.7376C12.367 23.6735 12.5078 23.5796 12.6264 23.461C12.7449 23.3425 12.839 23.2018 12.9031 23.047C12.9673 22.8921 13.0003 22.7261 13.0003 22.5585V15.2021C13.0003 13.0993 12.1651 11.0827 10.6782 9.59584C10.6043 9.52201 10.5628 9.42186 10.5628 9.31743V2.70964ZM6.50033 15.7096H11.917V20.043H6.50033V15.7096ZM19.3048 13.0013H15.362L15.7087 9.7513H18.9587L19.3048 13.0013ZM14.7337 8.66797H19.9337L20.4824 13.8333C20.5674 14.6326 20.3454 15.4343 19.8613 16.076C19.3772 16.7177 18.6672 17.1514 17.8753 17.2891V22.7513H19.5003C19.644 22.7513 19.7818 22.8084 19.8833 22.91C19.9849 23.0115 20.042 23.1493 20.042 23.293C20.042 23.4366 19.9849 23.5744 19.8833 23.676C19.7818 23.7776 19.644 23.8346 19.5003 23.8346H15.167C15.0233 23.8346 14.8856 23.7776 14.784 23.676C14.6824 23.5744 14.6253 23.4366 14.6253 23.293C14.6253 23.1493 14.6824 23.0115 14.784 22.91C14.8856 22.8084 15.0233 22.7513 15.167 22.7513H16.792V17.2886C16.0002 17.1508 15.2903 16.7173 14.8063 16.0757C14.3222 15.4341 14.1001 14.6325 14.185 13.8333L14.7337 8.66797Z" fill="#302E3D" />
</svg>