<svg width="26" height="26" viewBox="0 0 26 26" fill="none" xmlns="http://www.w3.org/2000/svg">
  <path d="M9.95214 5.21094C9.95214 3.52817 11.3163 2.16406 12.999 2.16406C14.6818 2.16406 16.0459 3.52817 16.0459 5.21094C16.0459 6.89366 14.6818 8.25781 12.999 8.25781C11.3163 8.25781 9.95214 6.89366 9.95214 5.21094ZM20.7274 5.26904C20.1986 4.7402 19.3411 4.7402 18.8123 5.26904L15.1464 8.9349H10.8516L7.18571 5.26904C6.6569 4.7402 5.79946 4.7402 5.27066 5.26904C4.74181 5.79788 4.74181 6.65528 5.27066 7.18413L9.27506 11.1885V22.4766C9.27506 23.2244 9.88135 23.8307 10.6292 23.8307H11.3063C12.0542 23.8307 12.6605 23.2244 12.6605 22.4766V17.737H13.3376V22.4766C13.3376 23.2244 13.9439 23.8307 14.6917 23.8307H15.3688C16.1167 23.8307 16.723 23.2244 16.723 22.4766V11.1885L20.7274 7.18409C21.2562 6.65524 21.2562 5.79788 20.7274 5.26904Z" fill="#302E3D" />
</svg>