<svg width="26" height="22" viewBox="0 0 26 22" fill="none" xmlns="http://www.w3.org/2000/svg">
<path d="M12.6751 1.04062C12.8825 0.950002 13.1183 0.950002 13.3257 1.04062C17.3545 2.80084 21.1727 4.95262 24.7324 7.44774C24.99 7.62831 25.1202 7.94136 25.0666 8.25135C25.0131 8.56135 24.7854 8.81258 24.4822 8.89629C23.7402 9.1011 23.0046 9.32169 22.2757 9.55676C19.317 10.511 16.4689 11.7115 13.7556 13.1344L13.7521 13.1363C13.629 13.2008 13.5063 13.2658 13.3838 13.3312C13.1446 13.459 12.8573 13.459 12.618 13.3312C12.4944 13.2651 12.3705 13.1995 12.2463 13.1344C10.9046 12.4308 9.53 11.7816 8.12537 11.1897V10.9473C8.12537 10.805 8.1984 10.6788 8.31141 10.6103C9.94196 9.62248 11.6239 8.71101 13.3522 7.88086C13.7566 7.68657 13.927 7.20117 13.7328 6.79668C13.5385 6.39219 13.0531 6.22179 12.6486 6.41607C10.8727 7.26907 9.14463 8.20557 7.4694 9.22047C6.97824 9.51803 6.64805 10.005 6.53944 10.5506C5.61328 10.1944 4.67494 9.86254 3.72518 9.55626C2.99629 9.32119 2.26067 9.10108 1.51871 8.89627C1.21546 8.81257 0.987782 8.56134 0.934243 8.25134C0.880704 7.94134 1.01093 7.6283 1.26853 7.44773C4.82819 4.95261 8.64642 2.80084 12.6751 1.04062Z" fill="#302E3D"/>
<path d="M14.1496 14.7644C16.7918 13.3527 19.5676 12.1593 22.4533 11.208C22.5988 12.7407 22.6916 14.2887 22.7301 15.85C22.7383 16.185 22.5401 16.4907 22.2309 16.6198C19.1421 17.9094 16.2042 19.4884 13.451 21.3232C13.1781 21.505 12.8227 21.505 12.5498 21.3232C9.7966 19.4884 6.85866 17.9094 3.76993 16.6198C3.46071 16.4907 3.26246 16.185 3.27071 15.85C3.30918 14.2886 3.40204 12.7405 3.5475 11.2077C4.54524 11.5366 5.52986 11.8944 6.50037 12.2802V13.6565C6.01465 13.9374 5.68787 14.4626 5.68787 15.0641C5.68787 15.6007 5.94795 16.0765 6.34894 16.3724C6.25196 16.7848 6.10844 17.1883 5.91837 17.5747C6.40879 17.8061 6.89501 18.045 7.37689 18.2912C7.65134 17.7331 7.85033 17.1472 7.97386 16.549C8.5419 16.2958 8.93787 15.7261 8.93787 15.0641C8.93787 14.4626 8.61108 13.9374 8.12537 13.6565V12.958C9.39438 13.5124 10.6375 14.1154 11.8522 14.7644C12.57 15.148 13.4319 15.148 14.1496 14.7644Z" fill="#302E3D"/>
<path d="M4.83444 19.0857C5.2885 18.6316 5.64997 18.1202 5.91837 17.5747C6.40879 17.8061 6.89501 18.045 7.37689 18.2912C7.03179 18.9931 6.56714 19.6511 5.98349 20.2348C5.66619 20.5521 5.15174 20.5521 4.83444 20.2348C4.51714 19.9175 4.51714 19.403 4.83444 19.0857Z" fill="#302E3D"/>
</svg>
