<svg width="26" height="26" viewBox="0 0 26 26" fill="none" xmlns="http://www.w3.org/2000/svg">
  <path d="M12.6751 3.04062C12.8825 2.95 13.1183 2.95 13.3257 3.04062C17.3545 4.80084 21.1727 6.95262 24.7324 9.44774C24.99 9.62831 25.1202 9.94136 25.0666 10.2514C25.0131 10.5614 24.7854 10.8126 24.4822 10.8963C23.7402 11.1011 23.0046 11.3217 22.2757 11.5568C19.317 12.511 16.4689 13.7115 13.7556 15.1344L13.7521 15.1363C13.629 15.2008 13.5063 15.2658 13.3838 15.3312C13.1446 15.459 12.8573 15.459 12.618 15.3312C12.4944 15.2651 12.3705 15.1995 12.2463 15.1344C10.9046 14.4308 9.53 13.7816 8.12537 13.1897V12.9473C8.12537 12.805 8.1984 12.6788 8.31141 12.6103C9.94196 11.6225 11.6239 10.711 13.3522 9.88086C13.7566 9.68657 13.927 9.20117 13.7328 8.79668C13.5385 8.39219 13.0531 8.22179 12.6486 8.41607C10.8727 9.26907 9.14463 10.2056 7.4694 11.2205C6.97824 11.518 6.64805 12.005 6.53944 12.5506C5.61328 12.1944 4.67494 11.8625 3.72518 11.5563C2.99629 11.3212 2.26067 11.1011 1.51871 10.8963C1.21546 10.8126 0.987782 10.5613 0.934243 10.2513C0.880704 9.94134 1.01093 9.6283 1.26853 9.44773C4.82819 6.95261 8.64642 4.80084 12.6751 3.04062Z" fill="#302E3D" />
  <path d="M14.1496 16.7644C16.7918 15.3527 19.5676 14.1593 22.4533 13.208C22.5988 14.7407 22.6916 16.2887 22.7301 17.85C22.7383 18.185 22.5401 18.4907 22.2309 18.6198C19.1421 19.9094 16.2042 21.4884 13.451 23.3232C13.1781 23.505 12.8227 23.505 12.5498 23.3232C9.7966 21.4884 6.85866 19.9094 3.76993 18.6198C3.46071 18.4907 3.26246 18.185 3.27071 17.85C3.30918 16.2886 3.40204 14.7405 3.5475 13.2077C4.54524 13.5366 5.52986 13.8944 6.50037 14.2802V15.6565C6.01465 15.9374 5.68787 16.4626 5.68787 17.0641C5.68787 17.6007 5.94795 18.0765 6.34894 18.3724C6.25196 18.7848 6.10844 19.1883 5.91837 19.5747C6.40879 19.8061 6.89501 20.045 7.37689 20.2912C7.65134 19.7331 7.85033 19.1472 7.97386 18.549C8.5419 18.2958 8.93787 17.7261 8.93787 17.0641C8.93787 16.4626 8.61108 15.9374 8.12537 15.6565V14.958C9.39438 15.5124 10.6375 16.1154 11.8522 16.7644C12.57 17.148 13.4319 17.148 14.1496 16.7644Z" fill="#302E3D" />
  <path d="M4.83444 21.0857C5.2885 20.6316 5.64997 20.1202 5.91837 19.5747C6.40879 19.8061 6.89501 20.045 7.37689 20.2912C7.03179 20.9931 6.56714 21.6511 5.98349 22.2348C5.66619 22.5521 5.15174 22.5521 4.83444 22.2348C4.51714 21.9175 4.51714 21.403 4.83444 21.0857Z" fill="#302E3D" />
</svg>
