<svg width="26" height="26" viewBox="0 0 26 26" fill="none" xmlns="http://www.w3.org/2000/svg">
  <path d="M15.471 10.9184C17.161 10.9184 18.201 8.44844 18.201 6.88844C18.201 5.58844 17.551 4.02844 16.251 4.02844C14.561 4.02844 13.521 6.49844 13.521 8.05844C13.521 9.35844 14.171 10.9184 15.471 10.9184ZM10.531 10.9184C11.831 10.9184 12.481 9.35844 12.481 8.05844C12.481 6.36844 11.441 3.89844 9.75102 3.89844C8.45102 3.89844 7.80102 5.45844 7.80102 6.75844C7.67102 8.44844 8.71102 10.9184 10.531 10.9184ZM20.151 9.61844C18.461 9.61844 17.291 11.9584 17.291 13.6484C17.291 14.8184 17.811 15.9884 18.981 15.9884C20.671 15.9884 21.841 13.6484 21.841 11.9584C21.841 10.7884 21.191 9.61844 20.151 9.61844ZM8.84102 13.6484C8.84102 11.9584 7.54102 9.61844 5.98102 9.61844C4.81102 9.61844 4.29102 10.7884 4.29102 11.9584C4.29102 13.6484 5.59102 15.9884 7.15102 15.9884C8.32102 15.9884 8.84102 14.8184 8.84102 13.6484ZM13.001 13.3884C10.401 13.3884 6.89102 17.5484 6.89102 20.4084C6.89102 21.7084 7.80102 22.0984 8.84102 22.0984C10.401 22.0984 11.571 21.0584 13.001 21.0584C14.301 21.0584 15.471 22.0984 16.901 22.0984C17.941 22.0984 19.111 21.8384 19.111 20.4084C19.111 17.5484 15.601 13.3884 13.001 13.3884Z" fill="#302E3D" />
</svg>