<svg width="26" height="26" viewBox="0 0 26 26" fill="none" xmlns="http://www.w3.org/2000/svg">
  <path fill-rule="evenodd" clip-rule="evenodd" d="M8.9375 7.3125C8.9375 5.06884 10.7563 3.25 13 3.25C15.2437 3.25 17.0625 5.06884 17.0625 7.3125C17.0625 9.55616 15.2437 11.375 13 11.375C10.7563 11.375 8.9375 9.55616 8.9375 7.3125Z" fill="#302E3D" />
  <path fill-rule="evenodd" clip-rule="evenodd" d="M17.0625 10.5625C17.0625 8.76757 18.5176 7.3125 20.3125 7.3125C22.1074 7.3125 23.5625 8.76757 23.5625 10.5625C23.5625 12.3574 22.1074 13.8125 20.3125 13.8125C18.5176 13.8125 17.0625 12.3574 17.0625 10.5625Z" fill="#302E3D" />
  <path fill-rule="evenodd" clip-rule="evenodd" d="M2.4375 10.5625C2.4375 8.76757 3.89257 7.3125 5.6875 7.3125C7.48243 7.3125 8.9375 8.76757 8.9375 10.5625C8.9375 12.3574 7.48243 13.8125 5.6875 13.8125C3.89257 13.8125 2.4375 12.3574 2.4375 10.5625Z" fill="#302E3D" />
  <path fill-rule="evenodd" clip-rule="evenodd" d="M6.83568 16.3773C8.13349 14.3481 10.409 13 13 13C15.5913 13 17.8671 14.3484 19.1648 16.3781C20.062 17.7812 20.4501 19.4731 20.268 21.1228C20.2396 21.3805 20.0898 21.6093 19.8648 21.7383C17.8419 22.8991 15.4972 23.5625 13 23.5625C10.5028 23.5625 8.15814 22.8991 6.13518 21.7383C5.91022 21.6093 5.76041 21.3805 5.73195 21.1228C5.54985 19.4728 5.93819 17.7806 6.83568 16.3773Z" fill="#302E3D" />
  <path d="M5.50581 15.4415C5.49276 15.4615 5.47979 15.4816 5.46691 15.5018C4.42099 17.1371 3.94234 19.0847 4.08927 21.0048C3.43056 20.9047 2.79142 20.7438 2.17796 20.5277L2.05343 20.4839C1.82624 20.4039 1.6675 20.1975 1.64839 19.9574L1.63792 19.8258C1.62935 19.7182 1.625 19.6095 1.625 19.5C1.625 17.3172 3.34647 15.5365 5.50581 15.4415Z" fill="#302E3D" />
  <path d="M21.9111 21.0047C22.058 19.0851 21.5796 17.1379 20.5341 15.5027C20.521 15.4822 20.5078 15.4618 20.4946 15.4415C22.6537 15.5367 24.375 17.3174 24.375 19.5C24.375 19.6095 24.3706 19.7182 24.3621 19.8258L24.3516 19.9574C24.3325 20.1975 24.1738 20.4039 23.9466 20.4839L23.822 20.5277C23.2087 20.7437 22.5697 20.9046 21.9111 21.0047Z" fill="#302E3D" />
</svg>
