<svg width="26" height="26" viewBox="0 0 26 26" fill="none" xmlns="http://www.w3.org/2000/svg">
  <path d="M7.68413 3.65C7.68413 4.56127 8.41464 5.3 9.31571 5.3C10.2168 5.3 10.9473 4.56127 10.9473 3.65C10.9473 2.73873 10.2168 2 9.31571 2C8.41464 2 7.68413 2.73873 7.68413 3.65Z" fill="#302E3D" />
  <path fill-rule="evenodd" clip-rule="evenodd" d="M9.31571 4.2C9.01539 4.2 8.77185 3.95375 8.77185 3.65C8.77185 3.34625 9.01539 3.1 9.31571 3.1C9.61603 3.1 9.85958 3.34625 9.85958 3.65C9.85958 3.95375 9.61603 4.2 9.31571 4.2ZM9.31571 5.3C8.41464 5.3 7.68413 4.56127 7.68413 3.65C7.68413 2.73873 8.41464 2 9.31571 2C10.2168 2 10.9473 2.73873 10.9473 3.65C10.9473 4.56127 10.2168 5.3 9.31571 5.3Z" fill="#302E3D" />
  <path d="M24 2.55C24 2.24624 23.7538 2 23.45 2H19.1114C18.8076 2 18.5614 2.24624 18.5614 2.55C18.5614 2.85376 18.8076 3.1 19.1114 3.1H23.45C23.7538 3.1 24 2.85376 24 2.55Z" fill="#302E3D" />
  <path d="M21.2807 2C20.9803 2 20.7368 2.2435 20.7368 2.54386V23.4561C20.7368 23.7565 20.9803 24 21.2807 24C21.5811 24 21.8245 23.7565 21.8245 23.4561V2.54386C21.8245 2.2435 21.5811 2 21.2807 2Z" fill="#302E3D" />
  <path d="M24 23.45C24 23.1462 23.7538 22.9 23.45 22.9H19.1114C18.8076 22.9 18.5614 23.1462 18.5614 23.45C18.5614 23.7538 18.8076 24 19.1114 24H23.45C23.7538 24 24 23.7538 24 23.45Z" fill="#302E3D" />
  <path d="M21.8245 19.05C21.8245 18.7462 21.5783 18.5 21.2746 18.5H19.1114C18.8076 18.5 18.5614 18.7462 18.5614 19.05C18.5614 19.3538 18.8076 19.6 19.1114 19.6H21.2746C21.5783 19.6 21.8245 19.3538 21.8245 19.05Z" fill="#302E3D" />
  <path d="M21.8245 15.75C21.8245 15.4462 21.5783 15.2 21.2745 15.2H19.1114C18.8076 15.2 18.5614 15.4462 18.5614 15.75C18.5614 16.0538 18.8076 16.3 19.1114 16.3H21.2745C21.5783 16.3 21.8245 16.0538 21.8245 15.75Z" fill="#302E3D" />
  <path d="M21.8245 12.45C21.8245 12.1462 21.5783 11.9 21.2745 11.9H19.1114C18.8076 11.9 18.5614 12.1462 18.5614 12.45C18.5614 12.7538 18.8076 13 19.1114 13H21.2745C21.5783 13 21.8245 12.7538 21.8245 12.45Z" fill="#302E3D" />
  <path d="M21.8245 9.15C21.8245 8.84624 21.5783 8.6 21.2745 8.6H19.1114C18.8076 8.6 18.5614 8.84624 18.5614 9.15C18.5614 9.45376 18.8076 9.7 19.1114 9.7H21.2745C21.5783 9.7 21.8245 9.45376 21.8245 9.15Z" fill="#302E3D" />
  <path d="M21.8245 5.85C21.8245 5.54624 21.5783 5.3 21.2745 5.3H19.1114C18.8076 5.3 18.5614 5.54624 18.5614 5.85C18.5614 6.15376 18.8076 6.4 19.1114 6.4H21.2745C21.5783 6.4 21.8245 6.15376 21.8245 5.85Z" fill="#302E3D" />
  <path fill-rule="evenodd" clip-rule="evenodd" d="M12.0351 9.60001C12.0351 9.04772 11.5874 8.6 11.0351 8.6H7.5965C7.04422 8.6 6.59651 9.04771 6.5965 9.59999L6.5964 22.9C6.5964 23.5075 7.08338 24 7.68413 24C8.28488 24 8.77185 23.5075 8.77185 22.9V15.7439C8.77185 15.4435 9.01535 15.2 9.31571 15.2C9.61608 15.2 9.85958 15.4435 9.85958 15.7439V22.9C9.85958 23.5075 10.3465 24 10.9473 24C11.5481 24 12.035 23.5075 12.035 22.9L12.0351 9.60001Z" fill="#302E3D" />
  <path fill-rule="evenodd" clip-rule="evenodd" d="M8.93381 7.5H9.69761C10.0076 7.5 10.3137 7.53496 10.611 7.60261C10.9155 7.67191 10.7705 8.05 10.4582 8.05H8.17328C7.86096 8.05 7.71594 7.67191 8.02047 7.60261C8.31771 7.53496 8.62385 7.5 8.93381 7.5ZM16.4288 11.337L13.5987 8.15703C12.6034 7.03863 11.1854 6.4 9.69761 6.4H8.93381C7.44602 6.4 6.02807 7.03863 5.03269 8.15702L2.20265 11.337C1.92179 11.6526 1.93431 12.1353 2.23125 12.4356C2.53951 12.7473 3.03922 12.7473 3.34748 12.4356L5.48137 10.2776C6.19536 9.55563 7.16365 9.15 8.17328 9.15H10.4582C11.4678 9.15 12.4361 9.55563 13.1501 10.2776L15.284 12.4356C15.5922 12.7473 16.092 12.7473 16.4002 12.4356C16.6971 12.1353 16.7096 11.6526 16.4288 11.337Z" fill="#302E3D" />
  <path d="M8.93381 6.4H9.69761C11.1854 6.4 12.6034 7.03863 13.5987 8.15703L16.4288 11.337C16.7096 11.6526 16.6971 12.1353 16.4002 12.4356C16.092 12.7473 15.5922 12.7473 15.284 12.4356L13.1501 10.2776C12.4361 9.55563 11.4678 9.15 10.4582 9.15H8.17328C7.16365 9.15 6.19536 9.55563 5.48137 10.2776L3.34748 12.4356C3.03922 12.7473 2.53951 12.7473 2.23125 12.4356C1.93431 12.1353 1.92179 11.6526 2.20265 11.337L5.03269 8.15702C6.02807 7.03863 7.44602 6.4 8.93381 6.4Z" fill="#302E3D" />
</svg>