<svg width="26" height="26" viewBox="0 0 26 26" fill="none" xmlns="http://www.w3.org/2000/svg">
  <g clip-path="url(#clip0_11408_15165)">
    <path d="M14.0102 13.2082C13.7255 13.9718 13.5099 14.7596 13.366 15.5621H11.7307C12.2207 14.5532 13.0195 13.7284 14.0102 13.2082Z" fill="#302E3D" />
    <path d="M18.167 15.5621H14.7003C14.896 14.5591 15.2203 13.5859 15.6651 12.6665C15.7011 12.66 15.7403 12.6534 15.7795 12.6501C16.2138 12.5932 16.6535 12.5932 17.0877 12.6501C17.127 12.6534 17.1662 12.66 17.2022 12.6665C17.647 13.5859 17.9713 14.5591 18.167 15.5621Z" fill="#302E3D" />
    <path d="M21.1365 15.5621H19.5013C19.3574 14.7596 19.1417 13.9718 18.857 13.2082C19.8478 13.7284 20.6466 14.5532 21.1365 15.5621Z" fill="#302E3D" />
    <path d="M13.366 20.1582C13.5099 20.9606 13.7255 21.7485 14.0102 22.5121C13.0195 21.9919 12.2207 21.167 11.7307 20.1582H13.366Z" fill="#302E3D" />
    <path d="M18.167 20.1582C17.9713 21.1611 17.647 22.1344 17.2022 23.0538C17.1662 23.0603 17.127 23.0669 17.0877 23.0702C16.6535 23.1271 16.2138 23.1271 15.7795 23.0702C15.7403 23.0669 15.7011 23.0603 15.6651 23.0538C15.2203 22.1344 14.896 21.1611 14.7003 20.1582H18.167Z" fill="#302E3D" />
    <path d="M21.1365 20.1582C20.6466 21.167 19.8478 21.9919 18.857 22.5121C19.1417 21.7485 19.3574 20.9606 19.5013 20.1582H21.1365Z" fill="#302E3D" />
    <path d="M13.2024 16.8753C13.1763 17.2036 13.1632 17.5318 13.1632 17.8601C13.1632 18.1884 13.1763 18.5167 13.2024 18.845H11.2958C11.1693 18.1946 11.1693 17.5257 11.2958 16.8753H13.2024Z" fill="#302E3D" />
    <path d="M18.3959 17.8601C18.3959 18.1983 18.3828 18.5266 18.3534 18.845H14.5139C14.4845 18.5266 14.4714 18.1983 14.4714 17.8601C14.4714 17.522 14.4845 17.1937 14.5139 16.8753H18.3534C18.3828 17.1937 18.3959 17.522 18.3959 17.8601Z" fill="#302E3D" />
    <path d="M21.6663 17.8601C21.6665 18.1907 21.6348 18.5206 21.5715 18.845H19.6648C19.691 18.5167 19.7041 18.1884 19.7041 17.8601C19.7041 17.5318 19.691 17.2036 19.6648 16.8753H21.5715C21.6348 17.1997 21.6665 17.5295 21.6663 17.8601Z" fill="#302E3D" />
    <path d="M12.5091 23.1128H5.47112C5.16935 23.1126 4.88002 22.9921 4.66664 22.7779C4.45326 22.5637 4.33327 22.2733 4.33301 21.9704V17.5877C4.33439 16.0931 4.92645 14.6602 5.97923 13.6034C7.03202 12.5466 8.4595 11.9522 9.94835 11.9509H12.4535C12.777 11.9508 13.0998 11.9794 13.4183 12.0362C12.4366 12.5479 11.6002 13.3013 10.9875 14.2258C10.3748 15.1503 10.0057 16.2157 9.9149 17.3224C9.82407 18.429 10.0144 19.5407 10.4681 20.5534C10.9218 21.5661 11.6241 22.4467 12.5091 23.1128Z" fill="#302E3D" />
    <path d="M11.528 2.89062H10.8739C9.06767 2.89062 7.60345 4.36045 7.60345 6.17356V6.69815C7.60345 8.51127 9.06767 9.98109 10.8739 9.98109H11.528C13.3342 9.98109 14.7984 8.51127 14.7984 6.69815V6.17356C14.7984 4.36045 13.3342 2.89062 11.528 2.89062Z" fill="#302E3D" />
  </g>
  <defs>
    <clipPath id="clip0_11408_15165">
      <rect width="26" height="26" fill="white" />
    </clipPath>
  </defs>
</svg>
