<svg width="26" height="26" viewBox="0 0 26 26" fill="none" xmlns="http://www.w3.org/2000/svg">
  <path d="M21.125 2.4375H7.3125C6.45055 2.4375 5.6239 2.77991 5.0144 3.3894C4.40491 3.9989 4.0625 4.82555 4.0625 5.6875V22.75C4.0625 22.9655 4.1481 23.1722 4.30048 23.3245C4.45285 23.4769 4.65951 23.5625 4.875 23.5625H19.5C19.7155 23.5625 19.9222 23.4769 20.0745 23.3245C20.2269 23.1722 20.3125 22.9655 20.3125 22.75C20.3125 22.5345 20.2269 22.3278 20.0745 22.1755C19.9222 22.0231 19.7155 21.9375 19.5 21.9375H5.6875C5.6875 21.5065 5.8587 21.0932 6.16345 20.7885C6.4682 20.4837 6.88152 20.3125 7.3125 20.3125H21.125C21.3405 20.3125 21.5472 20.2269 21.6995 20.0745C21.8519 19.9222 21.9375 19.7155 21.9375 19.5V3.25C21.9375 3.03451 21.8519 2.82785 21.6995 2.67548C21.5472 2.5231 21.3405 2.4375 21.125 2.4375ZM18.6875 12.1875L16.0865 10.2375C16.0162 10.1848 15.9306 10.1562 15.8427 10.1562C15.7548 10.1562 15.6693 10.1848 15.599 10.2375L13 12.1875V4.0625H18.6875V12.1875Z" fill="#302E3D" />
</svg>