<svg width="26" height="26" viewBox="0 0 26 26" fill="none" xmlns="http://www.w3.org/2000/svg">
  <path d="M10.7148 8.53859L11.795 9.94499C10.9764 10.7136 10.4203 11.7689 10.2189 12.9355C10.0176 14.102 10.1833 15.3097 10.6884 16.3577C11.1934 17.4057 12.0076 18.2311 12.9954 18.6966C13.9833 19.1621 15.0854 19.2398 16.1187 18.9167C17.152 18.5936 18.0542 17.8891 18.6755 16.9205C19.2967 15.9518 19.5996 14.7771 19.5337 13.5918C19.4679 12.4064 19.0373 11.2816 18.3135 10.4043C17.5897 9.52698 16.6163 8.95 15.5551 8.76921L15.808 6.94316C16.2911 7.02507 16.7638 7.16974 17.2163 7.37416L19.1374 3.62376L16.2661 4.50087L16.0815 3.58974L15.8627 2.71263L20.6482 1.24574L21.455 1L23 7.18134L21.39 7.67283L20.6038 4.5349L18.6759 8.31553C19.6928 9.16022 20.4575 10.3224 20.8715 11.6523C21.2856 12.9822 21.3299 14.4188 20.9989 15.7768C20.6678 17.1349 19.9765 18.3521 19.0142 19.2715C18.0518 20.191 16.8624 20.7705 15.5995 20.9353C15.342 20.9696 15.0829 20.9873 14.8236 20.9882C13.5209 20.9833 12.251 20.537 11.1848 19.7093C10.1186 18.8817 9.30733 17.7124 8.86038 16.3592C8.41342 15.0059 8.35222 13.5337 8.68502 12.1408C9.01781 10.7479 9.72861 9.50123 10.7217 8.56884L10.7148 8.53859Z" fill="#302E3D" />
  <path d="M1 18.3044L1.91609 16.7582L3.92602 18.2175L4.81476 16.7052C3.83149 15.767 3.13073 14.5191 2.80624 13.1283C2.48175 11.7376 2.54902 10.2705 2.99903 8.92316C3.44904 7.57587 4.26033 6.41271 5.32436 5.58931C6.38839 4.76591 7.6544 4.32155 8.95301 4.31569C10.2516 4.30982 11.5209 4.74272 12.5909 5.55648C13.661 6.37023 14.4809 7.52603 14.9408 8.86921C15.4008 10.2124 15.4789 11.6789 15.1647 13.0725C14.8505 14.4661 14.1589 15.7204 13.1826 16.6674L12.082 15.2837C12.8368 14.5506 13.3595 13.5695 13.5737 12.4841C13.7879 11.3986 13.6823 10.2658 13.2723 9.25152C12.8623 8.23726 12.1695 7.39481 11.2953 6.84754C10.4211 6.30026 9.41144 6.07691 8.41418 6.21019C7.2731 6.36317 6.22218 6.973 5.45988 7.92449C4.69759 8.87597 4.2767 10.1033 4.2767 11.3745C4.2767 12.6458 4.69759 13.8731 5.45988 14.8246C6.22218 15.7761 7.2731 16.3859 8.41418 16.5389L8.21592 18.3687C7.52163 18.277 6.8459 18.0585 6.21624 17.7222L5.32408 19.2345L7.33059 20.6938L6.4145 22.2401L4.40457 20.7808L3.08513 23L1.69049 21.9868L3.00993 19.7676L1 18.3044Z" fill="#302E3D" />
</svg>