<svg width="26" height="26" viewBox="0 0 26 26" fill="none" xmlns="http://www.w3.org/2000/svg">
  <path d="M16.575 13.8938C15.5829 13.8938 14.7875 14.6892 14.7875 15.6813V18.3625H13.8938C13 18.3625 12.1062 18.291 11.4806 17.6743L8.11119 14.3138C7.28 13.4737 6.14494 13 4.95625 13H4.0625V14.7875H4.95625C5.67125 14.7875 6.3505 15.0735 6.851 15.574L10.2204 18.9434C12.7498 21.4906 13.8938 21.9375 16.575 21.9375H18.3625C20.3377 21.9375 21.9375 20.3377 21.9375 18.3625V15.6813C21.9375 14.6892 21.1421 13.8938 20.15 13.8938H16.575ZM14.7875 8.71H13.4469C12.9963 8.67633 12.5753 8.47321 12.2685 8.14154C11.9617 7.80988 11.792 7.3743 11.7934 6.9225C11.8113 6.04662 12.5531 5.34056 13.4111 5.35844H13.4469V4.0625C12.6528 4.0625 11.8912 4.37795 11.3298 4.93944C10.7683 5.50094 10.4528 6.26249 10.4528 7.05656C10.4528 7.85064 10.7683 8.61219 11.3298 9.17368C11.8912 9.73518 12.6528 10.0506 13.4469 10.0506H14.7875C15.7438 10.0149 16.5393 10.7656 16.575 11.713V13H17.9156V11.5342C17.8993 11.1461 17.8066 10.765 17.6426 10.4128C17.4787 10.0606 17.2469 9.74423 16.9604 9.48183C16.6739 9.21944 16.3384 9.01619 15.9732 8.88374C15.608 8.75129 15.2203 8.69225 14.8322 8.71H14.7875ZM20.15 10.998V13H18.8094V10.9444C18.8094 8.97812 17.2096 7.36937 15.2344 7.36937V6.02875C15.4775 6.02684 15.7173 5.97176 15.9369 5.86736C16.1565 5.76297 16.3506 5.6118 16.5056 5.42444C16.6606 5.23709 16.7727 5.0181 16.8341 4.78283C16.8955 4.54755 16.9047 4.3017 16.861 4.0625H18.1748C18.2642 4.95625 17.9871 5.85 17.3079 6.50244H17.3347C19.0596 7.33363 20.15 9.08538 20.15 10.998Z" fill="#302E3D" />
</svg>