<svg width="32" height="24" viewBox="0 0 32 24" fill="none" xmlns="http://www.w3.org/2000/svg">
<rect x="0.5" y="0.5" width="31" height="23" rx="2.5" stroke="#5F4F7F"/>
<path d="M7.22833 16V8.08L7.74433 8.644H5.33233V7.6H8.41633V16H7.22833ZM11.0457 16.072C10.8217 16.072 10.6297 15.996 10.4697 15.844C10.3097 15.684 10.2297 15.484 10.2297 15.244C10.2297 15.004 10.3097 14.808 10.4697 14.656C10.6297 14.504 10.8217 14.428 11.0457 14.428C11.2617 14.428 11.4457 14.504 11.5977 14.656C11.7577 14.808 11.8377 15.004 11.8377 15.244C11.8377 15.484 11.7577 15.684 11.5977 15.844C11.4457 15.996 11.2617 16.072 11.0457 16.072ZM16.2639 16.096C15.6079 16.096 15.0199 15.928 14.4999 15.592C13.9879 15.256 13.5799 14.768 13.2759 14.128C12.9799 13.488 12.8319 12.712 12.8319 11.8C12.8319 10.888 12.9799 10.112 13.2759 9.472C13.5799 8.832 13.9879 8.344 14.4999 8.008C15.0199 7.672 15.6079 7.504 16.2639 7.504C16.9119 7.504 17.4959 7.672 18.0159 8.008C18.5359 8.344 18.9439 8.832 19.2399 9.472C19.5359 10.112 19.6839 10.888 19.6839 11.8C19.6839 12.712 19.5359 13.488 19.2399 14.128C18.9439 14.768 18.5359 15.256 18.0159 15.592C17.4959 15.928 16.9119 16.096 16.2639 16.096ZM16.2639 15.028C16.7039 15.028 17.0879 14.908 17.4159 14.668C17.7519 14.428 18.0119 14.068 18.1959 13.588C18.3879 13.108 18.4839 12.512 18.4839 11.8C18.4839 11.088 18.3879 10.492 18.1959 10.012C18.0119 9.532 17.7519 9.172 17.4159 8.932C17.0879 8.692 16.7039 8.572 16.2639 8.572C15.8239 8.572 15.4359 8.692 15.0999 8.932C14.7639 9.172 14.4999 9.532 14.3079 10.012C14.1239 10.492 14.0319 11.088 14.0319 11.8C14.0319 12.512 14.1239 13.108 14.3079 13.588C14.4999 14.068 14.7639 14.428 15.0999 14.668C15.4359 14.908 15.8239 15.028 16.2639 15.028ZM20.3106 16L23.0466 12.448L23.0346 13.036L20.4306 9.64H21.7146L23.7066 12.256H23.2146L25.2066 9.64H26.4666L23.8266 13.06L23.8386 12.448L26.5986 16H25.2906L23.1906 13.216L23.6586 13.288L21.5946 16H20.3106Z" fill="#5F4F7F"/>
</svg>
