<svg width="24" height="24" viewBox="0 0 24 24" fill="none" xmlns="http://www.w3.org/2000/svg">
<path fill-rule="evenodd" clip-rule="evenodd" d="M3.8238 7.94816C2.74295 8.01587 1.67258 8.67385 1.3493 9.8474C1.12147 10.6745 1 11.5448 1 12.4423C1 13.3399 1.12147 14.2102 1.3493 15.0373C1.69106 16.2779 2.86772 16.9423 4.00905 16.9423H5.93934L10.4393 21.4424C11.3843 22.3873 13 21.718 13 20.3817V17.1244L3.8238 7.94816ZM17.532 15.2924L16.4076 14.168C17.0842 12.5363 16.7591 10.5871 15.4323 9.26039C15.1394 8.96749 15.1394 8.49262 15.4323 8.19973C15.7252 7.90683 16.2001 7.90683 16.493 8.19973C18.4136 10.1203 18.7599 13.019 17.532 15.2924ZM20.2534 18.0138L19.1727 16.9331C21.2515 13.7355 20.8885 9.41351 18.0837 6.60865C17.7908 6.31576 17.7908 5.84089 18.0837 5.54799C18.3766 5.2551 18.8514 5.2551 19.1443 5.54799C22.5371 8.94072 22.9067 14.2117 20.2534 18.0138ZM13 10.7604L8.06064 5.82105L10.4393 3.44235C11.3843 2.4974 13 3.16666 13 4.50301V10.7604Z" fill="#5F4F7F"/>
<path d="M2 3L16 17" stroke="#5F4F7F" stroke-width="1.5" stroke-linecap="round" stroke-linejoin="round"/>
</svg>
