<svg width="32" height="32" viewBox="0 0 32 32" fill="none" xmlns="http://www.w3.org/2000/svg">
<path fill-rule="evenodd" clip-rule="evenodd" d="M10.25 9.25C10.25 8.83579 10.5858 8.5 11 8.5H12.5C12.9142 8.5 13.25 8.83579 13.25 9.25V22.75C13.25 23.1642 12.9142 23.5 12.5 23.5H11C10.8011 23.5 10.6103 23.421 10.4697 23.2803C10.329 23.1397 10.25 22.9489 10.25 22.75L10.25 9.25ZM17.75 9.25C17.75 8.83579 18.0858 8.5 18.5 8.5H20C20.1989 8.5 20.3897 8.57902 20.5303 8.71967C20.671 8.86032 20.75 9.05109 20.75 9.25V22.75C20.75 23.1642 20.4142 23.5 20 23.5H18.5C18.0858 23.5 17.75 23.1642 17.75 22.75V9.25Z" fill="#C896EF"/>
</svg>
