<svg width="32" height="24" viewBox="0 0 32 24" fill="none" xmlns="http://www.w3.org/2000/svg">
<rect x="0.5" y="0.5" width="31" height="23" rx="2.5" stroke="#C896EF"/>
<path d="M7.70294 16V8.08L8.21894 8.644H5.80694V7.6H8.89094V16H7.70294ZM11.5203 16.072C11.2963 16.072 11.1043 15.996 10.9443 15.844C10.7843 15.684 10.7043 15.484 10.7043 15.244C10.7043 15.004 10.7843 14.808 10.9443 14.656C11.1043 14.504 11.2963 14.428 11.5203 14.428C11.7363 14.428 11.9203 14.504 12.0723 14.656C12.2323 14.808 12.3123 15.004 12.3123 15.244C12.3123 15.484 12.2323 15.684 12.0723 15.844C11.9203 15.996 11.7363 16.072 11.5203 16.072ZM16.1591 16.096C15.5671 16.096 14.9911 16.004 14.4311 15.82C13.8791 15.636 13.4271 15.388 13.0751 15.076L13.6271 14.128C13.9071 14.392 14.2711 14.608 14.7191 14.776C15.1671 14.944 15.6431 15.028 16.1471 15.028C16.7871 15.028 17.2791 14.892 17.6231 14.62C17.9671 14.348 18.1391 13.984 18.1391 13.528C18.1391 13.216 18.0631 12.944 17.9111 12.712C17.7591 12.48 17.4951 12.304 17.1191 12.184C16.7511 12.056 16.2431 11.992 15.5951 11.992H13.6871L14.1311 7.6H18.8711V8.644H14.5751L15.1991 8.056L14.8511 11.524L14.2271 10.948H15.8471C16.6871 10.948 17.3631 11.056 17.8751 11.272C18.3871 11.488 18.7591 11.788 18.9911 12.172C19.2231 12.548 19.3391 12.984 19.3391 13.48C19.3391 13.96 19.2231 14.4 18.9911 14.8C18.7591 15.192 18.4071 15.508 17.9351 15.748C17.4711 15.98 16.8791 16.096 16.1591 16.096ZM19.836 16L22.572 12.448L22.56 13.036L19.956 9.64H21.24L23.232 12.256H22.74L24.732 9.64H25.992L23.352 13.06L23.364 12.448L26.124 16H24.816L22.716 13.216L23.184 13.288L21.12 16H19.836Z" fill="#C896EF"/>
</svg>
