<svg width="32" height="24" viewBox="0 0 32 24" fill="none" xmlns="http://www.w3.org/2000/svg">
<rect x="0.5" y="0.5" width="31" height="23" rx="2.5" stroke="#C896EF"/>
<path d="M4.39713 16V15.184L7.81713 11.884C8.12113 11.596 8.34513 11.344 8.48913 11.128C8.64113 10.904 8.74113 10.7 8.78913 10.516C8.84513 10.324 8.87313 10.14 8.87313 9.964C8.87313 9.532 8.72113 9.192 8.41713 8.944C8.11313 8.696 7.66913 8.572 7.08513 8.572C6.63713 8.572 6.23313 8.648 5.87313 8.8C5.51313 8.944 5.20113 9.172 4.93713 9.484L4.12113 8.776C4.44113 8.368 4.86913 8.056 5.40513 7.84C5.94913 7.616 6.54513 7.504 7.19313 7.504C7.77713 7.504 8.28513 7.6 8.71713 7.792C9.14913 7.976 9.48113 8.244 9.71313 8.596C9.95313 8.948 10.0731 9.364 10.0731 9.844C10.0731 10.116 10.0371 10.384 9.96513 10.648C9.89313 10.912 9.75713 11.192 9.55713 11.488C9.35713 11.784 9.06913 12.116 8.69313 12.484L5.64513 15.424L5.35713 14.956H10.4331V16H4.39713ZM12.3289 16.072C12.1049 16.072 11.9129 15.996 11.7529 15.844C11.5929 15.684 11.5129 15.484 11.5129 15.244C11.5129 15.004 11.5929 14.808 11.7529 14.656C11.9129 14.504 12.1049 14.428 12.3289 14.428C12.5449 14.428 12.7289 14.504 12.8809 14.656C13.0409 14.808 13.1209 15.004 13.1209 15.244C13.1209 15.484 13.0409 15.684 12.8809 15.844C12.7289 15.996 12.5449 16.072 12.3289 16.072ZM17.5471 16.096C16.8911 16.096 16.3031 15.928 15.7831 15.592C15.2711 15.256 14.8631 14.768 14.5591 14.128C14.2631 13.488 14.1151 12.712 14.1151 11.8C14.1151 10.888 14.2631 10.112 14.5591 9.472C14.8631 8.832 15.2711 8.344 15.7831 8.008C16.3031 7.672 16.8911 7.504 17.5471 7.504C18.1951 7.504 18.7791 7.672 19.2991 8.008C19.8191 8.344 20.2271 8.832 20.5231 9.472C20.8191 10.112 20.9671 10.888 20.9671 11.8C20.9671 12.712 20.8191 13.488 20.5231 14.128C20.2271 14.768 19.8191 15.256 19.2991 15.592C18.7791 15.928 18.1951 16.096 17.5471 16.096ZM17.5471 15.028C17.9871 15.028 18.3711 14.908 18.6991 14.668C19.0351 14.428 19.2951 14.068 19.4791 13.588C19.6711 13.108 19.7671 12.512 19.7671 11.8C19.7671 11.088 19.6711 10.492 19.4791 10.012C19.2951 9.532 19.0351 9.172 18.6991 8.932C18.3711 8.692 17.9871 8.572 17.5471 8.572C17.1071 8.572 16.7191 8.692 16.3831 8.932C16.0471 9.172 15.7831 9.532 15.5911 10.012C15.4071 10.492 15.3151 11.088 15.3151 11.8C15.3151 12.512 15.4071 13.108 15.5911 13.588C15.7831 14.068 16.0471 14.428 16.3831 14.668C16.7191 14.908 17.1071 15.028 17.5471 15.028ZM21.5938 16L24.3298 12.448L24.3178 13.036L21.7138 9.64H22.9978L24.9898 12.256H24.4978L26.4898 9.64H27.7498L25.1098 13.06L25.1218 12.448L27.8818 16H26.5738L24.4738 13.216L24.9418 13.288L22.8778 16H21.5938Z" fill="#C896EF"/>
</svg>
