<svg width="24" height="24" viewBox="0 0 24 24" fill="none" xmlns="http://www.w3.org/2000/svg">
<path d="M13.5 4.0616C13.5 2.72525 11.8843 2.05599 10.9393 3.00094L6.43934 7.50094H4.50905C3.36772 7.50094 2.19106 8.16538 1.8493 9.406C1.62147 10.2331 1.5 11.1034 1.5 12.0009C1.5 12.8985 1.62147 13.7688 1.8493 14.5959C2.19106 15.8365 3.36772 16.5009 4.50905 16.5009H6.43934L10.9393 21.0009C11.8843 21.9459 13.5 21.2766 13.5 19.9403V4.0616Z" fill="#C896EF"/>
<path d="M18.5837 5.10659C18.8766 4.81369 19.3514 4.81369 19.6443 5.10659C23.452 8.9142 23.452 15.0876 19.6443 18.8952C19.3514 19.1881 18.8766 19.1881 18.5837 18.8952C18.2908 18.6023 18.2908 18.1274 18.5837 17.8345C21.8055 14.6127 21.8055 9.38907 18.5837 6.16725C18.2908 5.87435 18.2908 5.39948 18.5837 5.10659Z" fill="#C896EF"/>
<path d="M15.9323 7.75832C16.2252 7.46543 16.7001 7.46543 16.993 7.75832C19.3361 10.1015 19.3361 13.9005 16.993 16.2436C16.7001 16.5365 16.2252 16.5365 15.9323 16.2436C15.6394 15.9507 15.6394 15.4758 15.9323 15.1829C17.6897 13.4256 17.6897 10.5763 15.9323 8.81898C15.6394 8.52609 15.6394 8.05121 15.9323 7.75832Z" fill="#C896EF"/>
</svg>
