<svg width="24" height="24" viewBox="0 0 24 24" fill="none" xmlns="http://www.w3.org/2000/svg">
<path d="M7.8 17.4C7.46863 17.7314 6.93137 17.7314 6.6 17.4C6.26863 17.0686 6.26863 16.5314 6.6 16.2L10.8 12L6.6 7.8C6.26863 7.46863 6.26863 6.93137 6.6 6.6C6.93137 6.26863 7.46863 6.26863 7.8 6.6L12 10.8L16.2 6.6C16.5314 6.26863 17.0686 6.26863 17.4 6.6C17.7314 6.93137 17.7314 7.46863 17.4 7.8L13.2 12L17.4 16.2C17.7314 16.5314 17.7314 17.0686 17.4 17.4C17.0686 17.7314 16.5314 17.7314 16.2 17.4L12 13.2L7.8 17.4Z" fill="#5F4F7F"/>
</svg>
