<svg width="56" height="56" viewBox="0 0 56 56" fill="none" xmlns="http://www.w3.org/2000/svg">
<circle cx="28" cy="28" r="28" fill="#5F4F7F"/>
<g clip-path="url(#clip0_856_6196)">
<path d="M38.6624 22.0809C36.7985 23.1618 35.6473 25.0147 35.6473 27.0735C35.6473 29.3897 37.1274 31.5 39.375 32.375C38.9364 33.7132 38.2786 34.9485 37.4563 36.0809C36.2503 37.6765 34.9895 39.3235 33.1256 39.3235C31.2617 39.3235 30.7136 38.2941 28.5208 38.2941C26.3828 38.2941 25.6154 39.375 23.8611 39.375C22.1069 39.375 20.9009 37.8824 19.5304 36.0294C17.7214 33.4559 16.6798 30.4706 16.625 27.3309C16.625 22.2353 20.1334 19.5074 23.6419 19.5074C25.5057 19.5074 27.0407 20.6397 28.1919 20.6397C29.2883 20.6397 31.0425 19.4559 33.1256 19.4559C35.3184 19.4044 37.4015 20.3824 38.6624 22.0809ZM32.1389 17.2941C33.0708 16.2647 33.5642 14.9779 33.619 13.6397C33.619 13.4853 33.619 13.2794 33.5642 13.125C31.9744 13.2794 30.4943 14 29.4527 15.1324C28.5208 16.1103 27.9726 17.3456 27.9178 18.6838C27.9178 18.8382 27.9178 18.9926 27.9726 19.1471C28.0822 19.1471 28.2467 19.1985 28.3563 19.1985C29.8364 19.0956 31.2069 18.375 32.1389 17.2941Z" fill="#E9E3F5"/>
</g>
<defs>
<clipPath id="clip0_856_6196">
<rect width="22.75" height="26.25" fill="white" transform="translate(16.625 13.125)"/>
</clipPath>
</defs>
</svg>
