<svg width="150" height="56" viewBox="0 0 150 56" fill="none" xmlns="http://www.w3.org/2000/svg">
<g clip-path="url(#clip0_856_4920)" filter="url(#filter0_b_856_4920)">
<rect x="0.5" y="0.5" width="149" height="55" rx="4.5" fill="#302E3D"/>
<path d="M55.7359 34.4087H50.5038L49.2474 37.8918H47.0312L51.987 25.0051H54.2895L59.2452 37.8918H56.9913L55.7359 34.4087ZM51.0457 32.8014H55.193L53.1485 27.1485H53.0913L51.0457 32.8014Z" fill="#E9E3F5"/>
<path d="M69.948 33.1946C69.948 36.1143 68.2835 37.9901 65.7716 37.9901C65.1353 38.0214 64.5025 37.8838 63.9456 37.5931C63.3887 37.3023 62.9303 36.8703 62.6228 36.3463H62.5753V41H60.5211V28.4963H62.5095V30.059H62.5473C62.8689 29.5376 63.335 29.1078 63.8961 28.8153C64.4573 28.5228 65.0923 28.3786 65.7338 28.398C68.2737 28.398 69.948 30.283 69.948 33.1946ZM67.8366 33.1946C67.8366 31.2924 66.7895 30.0418 65.1919 30.0418C63.6224 30.0418 62.5667 31.3187 62.5667 33.1946C62.5667 35.0877 63.6224 36.3555 65.1919 36.3555C66.7895 36.3555 67.8366 35.114 67.8366 33.1946Z" fill="#E9E3F5"/>
<path d="M80.9627 33.1946C80.9627 36.1143 79.2982 37.9901 76.7863 37.9901C76.15 38.0214 75.5172 37.8838 74.9603 37.5931C74.4034 37.3023 73.945 36.8703 73.6375 36.3463H73.59V41H71.5358V28.4963H73.5241V30.059H73.5619C73.8835 29.5376 74.3497 29.1078 74.9108 28.8153C75.4719 28.5228 76.107 28.3786 76.7485 28.398C79.2884 28.398 80.9627 30.283 80.9627 33.1946ZM78.8513 33.1946C78.8513 31.2924 77.8042 30.0418 76.2066 30.0418C74.6371 30.0418 73.5814 31.3187 73.5814 33.1946C73.5814 35.0877 74.6371 36.3555 76.2066 36.3555C77.8042 36.3555 78.8513 35.114 78.8513 33.1946Z" fill="#E9E3F5"/>
<path d="M88.2425 34.3013C88.3947 35.5792 89.717 36.4183 91.524 36.4183C93.2555 36.4183 94.5011 35.5791 94.5011 34.4269C94.5011 33.4266 93.7498 32.8277 91.9709 32.4172L90.192 32.0149C87.6715 31.4433 86.5013 30.3367 86.5013 28.5409C86.5013 26.3174 88.5653 24.7902 91.4959 24.7902C94.3964 24.7902 96.3848 26.3174 96.4517 28.5409H94.3781C94.2539 27.2548 93.1216 26.4786 91.4668 26.4786C89.812 26.4786 88.6796 27.264 88.6796 28.4071C88.6796 29.3182 89.4029 29.8543 91.1721 30.2647L92.6844 30.6133C95.5007 31.2386 96.6708 32.3007 96.6708 34.1856C96.6708 36.5966 94.6252 38.1066 91.3718 38.1066C88.3277 38.1066 86.2725 36.632 86.1397 34.3012L88.2425 34.3013Z" fill="#E9E3F5"/>
<path d="M101.104 26.2729V28.4963H103.007V30.0236H101.104V35.2032C101.104 36.0079 101.485 36.3828 102.322 36.3828C102.548 36.3791 102.773 36.3642 102.997 36.3382V37.8563C102.621 37.9223 102.239 37.9522 101.856 37.9455C99.8304 37.9455 99.0402 37.231 99.0402 35.4089V30.0236H97.5851V28.4963H99.0402V26.2729H101.104Z" fill="#E9E3F5"/>
<path d="M104.109 33.1946C104.109 30.2384 105.964 28.3808 108.856 28.3808C111.757 28.3808 113.603 30.2384 113.603 33.1946C113.603 36.1589 111.767 38.0084 108.856 38.0084C105.945 38.0084 104.109 36.1589 104.109 33.1946ZM111.51 33.1946C111.51 31.1667 110.52 29.9699 108.856 29.9699C107.191 29.9699 106.202 31.1758 106.202 33.1946C106.202 35.2306 107.191 36.4183 108.856 36.4183C110.52 36.4183 111.51 35.2306 111.51 33.1946Z" fill="#E9E3F5"/>
<path d="M115.297 28.4963H117.256V30.0955H117.303C117.436 29.5961 117.748 29.1547 118.186 28.8455C118.624 28.5364 119.163 28.3784 119.711 28.398C119.947 28.3972 120.183 28.4214 120.414 28.47V30.2739C120.116 30.1881 119.804 30.1488 119.491 30.1573C119.193 30.146 118.896 30.1954 118.619 30.3021C118.343 30.4089 118.095 30.5705 117.892 30.7759C117.688 30.9812 117.535 31.2255 117.441 31.4918C117.348 31.7582 117.317 32.0404 117.351 32.319V37.8918H115.297L115.297 28.4963Z" fill="#E9E3F5"/>
<path d="M129.886 35.1323C129.609 36.8379 127.84 38.0084 125.576 38.0084C122.665 38.0084 120.858 36.1771 120.858 33.2392C120.858 30.2921 122.675 28.3808 125.49 28.3808C128.259 28.3808 130 30.1665 130 33.0152V33.676H122.932V33.7925C122.899 34.1383 122.945 34.4866 123.067 34.8144C123.189 35.1421 123.383 35.4418 123.638 35.6935C123.893 35.9452 124.201 36.1432 124.544 36.2743C124.886 36.4053 125.254 36.4665 125.624 36.4538C126.109 36.4965 126.596 36.3909 127.013 36.1528C127.429 35.9147 127.753 35.5568 127.935 35.1322L129.886 35.1323ZM122.941 32.3281H127.945C127.963 32.0172 127.913 31.7061 127.797 31.4142C127.681 31.1224 127.503 30.8562 127.272 30.6323C127.042 30.4084 126.764 30.2316 126.458 30.1131C126.151 29.9946 125.822 29.9368 125.49 29.9435C125.155 29.9416 124.824 30.002 124.514 30.121C124.205 30.2401 123.923 30.4156 123.686 30.6373C123.45 30.859 123.262 31.1225 123.134 31.4127C123.006 31.7029 122.941 32.014 122.941 32.3281Z" fill="#E9E3F5"/>
<path d="M50.7883 15.3051C51.2189 15.2761 51.6511 15.3372 52.0536 15.4839C52.456 15.6307 52.8188 15.8595 53.1157 16.1538C53.4126 16.4482 53.6362 16.8007 53.7704 17.186C53.9046 17.5713 53.946 17.9797 53.8917 18.3819C53.8917 20.3601 52.7529 21.4972 50.7883 21.4972H48.4059V15.3051H50.7883ZM49.4303 20.6215H50.6738C50.9816 20.6388 51.2895 20.5914 51.5753 20.4828C51.8611 20.3743 52.1175 20.2072 52.3259 19.9939C52.5342 19.7806 52.6893 19.5263 52.7798 19.2496C52.8702 18.973 52.8939 18.6808 52.8489 18.3945C52.8906 18.1093 52.8646 17.8189 52.7727 17.5443C52.6808 17.2696 52.5254 17.0175 52.3175 16.8058C52.1096 16.5942 51.8545 16.4284 51.5703 16.3202C51.2861 16.212 50.98 16.1642 50.6738 16.1801H49.4303V20.6215Z" fill="#E9E3F5"/>
<path d="M55.0489 19.1586C55.0176 18.8515 55.055 18.5417 55.1587 18.249C55.2624 17.9563 55.4302 17.6871 55.6512 17.4588C55.8722 17.2305 56.1416 17.0481 56.4421 16.9233C56.7426 16.7985 57.0675 16.734 57.3961 16.734C57.7247 16.734 58.0497 16.7985 58.3502 16.9233C58.6507 17.0481 58.92 17.2305 59.141 17.4588C59.3621 17.6871 59.5298 17.9563 59.6335 18.249C59.7373 18.5417 59.7747 18.8515 59.7434 19.1586C59.7753 19.466 59.7383 19.7763 59.6348 20.0695C59.5314 20.3627 59.3637 20.6323 59.1427 20.861C58.9216 21.0898 58.652 21.2725 58.3512 21.3976C58.0504 21.5227 57.7251 21.5873 57.3961 21.5873C57.0671 21.5873 56.7418 21.5227 56.441 21.3976C56.1402 21.2725 55.8706 21.0898 55.6496 20.861C55.4285 20.6323 55.2608 20.3627 55.1574 20.0695C55.0539 19.7763 55.017 19.466 55.0489 19.1586ZM58.733 19.1586C58.733 18.1457 58.2483 17.5534 57.3977 17.5534C56.5439 17.5534 56.0636 18.1457 56.0636 19.1586C56.0636 20.1797 56.5439 20.7674 57.3977 20.7674C58.2484 20.7674 58.733 20.1756 58.733 19.1586Z" fill="#E9E3F5"/>
<path d="M65.9837 21.4971H64.9647L63.936 18.0555H63.8583L62.8339 21.4971H61.8246L60.4526 16.8242H61.4489L62.3406 20.3899H62.414L63.4373 16.8242H64.3796L65.403 20.3899H65.4807L66.368 16.8242H67.3503L65.9837 21.4971Z" fill="#E9E3F5"/>
<path d="M68.5042 16.8242H69.4498V17.5665H69.5232C69.6477 17.2999 69.8577 17.0764 70.124 16.9272C70.3902 16.7779 70.6995 16.7104 71.0085 16.734C71.2507 16.7169 71.4939 16.7512 71.72 16.8343C71.9462 16.9174 72.1495 17.0472 72.315 17.2141C72.4804 17.3811 72.6038 17.5808 72.6758 17.7985C72.7479 18.0163 72.7669 18.2464 72.7313 18.472V21.497H71.749V18.7036C71.749 17.9526 71.4014 17.5792 70.675 17.5792C70.5105 17.572 70.3464 17.5983 70.1938 17.6562C70.0412 17.7141 69.9037 17.8024 69.7909 17.9149C69.678 18.0273 69.5923 18.1614 69.5398 18.3078C69.4873 18.4543 69.4691 18.6097 69.4865 18.7634V21.4971H68.5042L68.5042 16.8242Z" fill="#E9E3F5"/>
<path d="M74.2965 15H75.2788V21.4971H74.2965V15Z" fill="#E9E3F5"/>
<path d="M76.6443 19.1586C76.6131 18.8515 76.6505 18.5417 76.7543 18.2489C76.858 17.9562 77.0258 17.6871 77.2468 17.4588C77.4678 17.2305 77.7373 17.0481 78.0378 16.9232C78.3383 16.7984 78.6633 16.734 78.9919 16.734C79.3205 16.734 79.6455 16.7984 79.946 16.9232C80.2465 17.0481 80.5159 17.2305 80.7369 17.4588C80.9579 17.6871 81.1257 17.9562 81.2295 18.2489C81.3332 18.5417 81.3707 18.8515 81.3394 19.1586C81.3712 19.466 81.3342 19.7763 81.2308 20.0695C81.1273 20.3627 80.9596 20.6323 80.7385 20.861C80.5174 21.0898 80.2478 21.2725 79.947 21.3976C79.6462 21.5227 79.3209 21.5873 78.9919 21.5873C78.6629 21.5873 78.3375 21.5227 78.0367 21.3976C77.7359 21.2725 77.4663 21.0898 77.2452 20.861C77.0241 20.6323 76.8565 20.3627 76.753 20.0695C76.6495 19.7763 76.6125 19.466 76.6443 19.1586ZM80.3285 19.1586C80.3285 18.1457 79.8438 17.5534 78.9932 17.5534C78.1394 17.5534 77.6591 18.1457 77.6591 19.1586C77.6591 20.1797 78.1394 20.7674 78.9932 20.7674C79.8438 20.7674 80.3285 20.1756 80.3285 19.1586Z" fill="#E9E3F5"/>
<path d="M82.3735 20.1756C82.3735 19.3344 83.0406 18.8495 84.2248 18.7806L85.573 18.7076V18.3043C85.573 17.8108 85.2254 17.5321 84.554 17.5321C84.0056 17.5321 83.6257 17.7211 83.5167 18.0515H82.5657C82.666 17.2488 83.4702 16.734 84.5993 16.734C85.8472 16.734 86.551 17.3172 86.551 18.3043V21.4971H85.6054V20.8404H85.5277C85.3699 21.076 85.1484 21.268 84.8857 21.3969C84.6231 21.5258 84.3287 21.5869 84.0326 21.5741C83.8237 21.5945 83.6125 21.5736 83.4127 21.5127C83.2129 21.4517 83.0289 21.3522 82.8726 21.2204C82.7163 21.0887 82.5911 20.9276 82.5051 20.7477C82.4192 20.5677 82.3743 20.3728 82.3735 20.1756ZM85.573 19.7763V19.3856L84.3575 19.4586C83.6721 19.5017 83.3612 19.7206 83.3612 20.1325C83.3612 20.5531 83.7498 20.7978 84.2842 20.7978C84.4407 20.8127 84.5989 20.7979 84.7492 20.7542C84.8996 20.7105 85.039 20.6389 85.1593 20.5436C85.2795 20.4483 85.3781 20.3312 85.4492 20.1994C85.5203 20.0676 85.5624 19.9237 85.573 19.7763Z" fill="#E9E3F5"/>
<path d="M87.842 19.1586C87.842 17.6821 88.6505 16.7467 89.9081 16.7467C90.2191 16.7332 90.5279 16.8031 90.7981 16.9483C91.0684 17.0935 91.2891 17.3079 91.4344 17.5665H91.5078V15H92.4901V21.4971H91.5488V20.7588H91.4711C91.3146 21.0156 91.0862 21.2274 90.8107 21.3711C90.5352 21.5148 90.223 21.585 89.9081 21.5741C88.6419 21.5741 87.842 20.6387 87.842 19.1586ZM88.8567 19.1586C88.8567 20.1498 89.3544 20.7462 90.1866 20.7462C91.0145 20.7462 91.5262 20.1411 91.5262 19.1627C91.5262 18.1888 91.0091 17.5751 90.1866 17.5751C89.3597 17.5751 88.8567 18.1756 88.8567 19.1586Z" fill="#E9E3F5"/>
<path d="M96.5542 19.1586C96.523 18.8515 96.5604 18.5417 96.6641 18.249C96.7678 17.9563 96.9356 17.6871 97.1566 17.4588C97.3776 17.2305 97.647 17.0481 97.9475 16.9233C98.2479 16.7985 98.5729 16.734 98.9015 16.734C99.2301 16.734 99.5551 16.7985 99.8555 16.9233C100.156 17.0481 100.425 17.2305 100.646 17.4588C100.867 17.6871 101.035 17.9563 101.139 18.249C101.243 18.5417 101.28 18.8515 101.249 19.1586C101.281 19.466 101.244 19.7763 101.14 20.0695C101.037 20.3627 100.869 20.6323 100.648 20.861C100.427 21.0898 100.157 21.2725 99.8566 21.3976C99.5558 21.5227 99.2305 21.5873 98.9015 21.5873C98.5725 21.5873 98.2472 21.5227 97.9464 21.3976C97.6456 21.2725 97.376 21.0898 97.1549 20.861C96.9339 20.6323 96.7662 20.3627 96.6628 20.0695C96.5593 19.7763 96.5224 19.466 96.5542 19.1586ZM100.238 19.1586C100.238 18.1457 99.7537 17.5534 98.9031 17.5534C98.0493 17.5534 97.569 18.1457 97.569 19.1586C97.569 20.1797 98.0493 20.7674 98.9031 20.7674C99.7537 20.7674 100.238 20.1756 100.238 19.1586Z" fill="#E9E3F5"/>
<path d="M102.567 16.8242H103.512V17.5665H103.586C103.71 17.2999 103.92 17.0764 104.187 16.9272C104.453 16.7779 104.762 16.7104 105.071 16.734C105.313 16.7169 105.556 16.7512 105.783 16.8343C106.009 16.9174 106.212 17.0472 106.378 17.2141C106.543 17.3811 106.666 17.5808 106.738 17.7985C106.81 18.0163 106.829 18.2464 106.794 18.472V21.497H105.812V18.7036C105.812 17.9526 105.464 17.5792 104.738 17.5792C104.573 17.572 104.409 17.5983 104.256 17.6562C104.104 17.7141 103.966 17.8024 103.853 17.9149C103.741 18.0273 103.655 18.1614 103.602 18.3078C103.55 18.4543 103.532 18.6097 103.549 18.7634V21.4971H102.567V16.8242Z" fill="#E9E3F5"/>
<path d="M112.344 15.6608V16.8455H113.423V17.6223H112.344V20.0251C112.344 20.5146 112.559 20.7289 113.048 20.7289C113.173 20.7285 113.299 20.7214 113.423 20.7076V21.4758C113.246 21.5054 113.068 21.5212 112.888 21.5229C111.796 21.5229 111.361 21.1621 111.361 20.2612V17.6222H110.571V16.8454H111.361V15.6608H112.344Z" fill="#E9E3F5"/>
<path d="M114.765 15H115.738V17.5751H115.816C115.947 17.306 116.162 17.0812 116.434 16.9315C116.705 16.7817 117.02 16.7141 117.334 16.738C117.575 16.7257 117.815 16.7635 118.039 16.8486C118.263 16.9338 118.463 17.0642 118.627 17.2306C118.791 17.397 118.913 17.5952 118.986 17.8112C119.059 18.0272 119.08 18.2556 119.048 18.4801V21.4971H118.064V18.7076C118.064 17.9612 117.694 17.5832 117 17.5832C116.831 17.5702 116.662 17.592 116.503 17.6471C116.344 17.7021 116.199 17.7891 116.08 17.902C115.961 18.0148 115.869 18.1508 115.812 18.3003C115.754 18.4499 115.732 18.6095 115.747 18.7679V21.4971H114.765L114.765 15Z" fill="#E9E3F5"/>
<path d="M124.775 20.2354C124.642 20.6625 124.353 21.0319 123.958 21.279C123.564 21.5262 123.09 21.6353 122.619 21.5873C122.291 21.5954 121.965 21.5364 121.664 21.4145C121.362 21.2925 121.093 21.1105 120.874 20.881C120.656 20.6515 120.493 20.3801 120.397 20.0855C120.301 19.791 120.275 19.4804 120.319 19.1753C120.276 18.8693 120.303 18.5581 120.398 18.2626C120.494 17.9672 120.656 17.6945 120.874 17.463C121.091 17.2316 121.359 17.0467 121.66 16.9209C121.96 16.7951 122.285 16.7314 122.614 16.734C123.999 16.734 124.835 17.6223 124.835 19.0897V19.4115H121.32V19.4632C121.305 19.6346 121.328 19.8072 121.387 19.9699C121.447 20.1326 121.543 20.2817 121.667 20.4078C121.792 20.5338 121.944 20.634 122.112 20.7018C122.281 20.7697 122.462 20.8038 122.646 20.8019C122.881 20.8283 123.119 20.7886 123.33 20.6877C123.54 20.5869 123.715 20.4294 123.83 20.2353L124.775 20.2354ZM121.32 18.7294H123.834C123.846 18.5726 123.824 18.4151 123.767 18.267C123.711 18.1189 123.622 17.9834 123.507 17.8694C123.392 17.7554 123.252 17.6654 123.097 17.605C122.943 17.5446 122.776 17.5153 122.609 17.5189C122.439 17.5169 122.27 17.5468 122.113 17.607C121.956 17.6671 121.813 17.7562 121.693 17.869C121.572 17.9818 121.478 18.1161 121.414 18.2639C121.35 18.4116 121.318 18.5699 121.32 18.7294Z" fill="#E9E3F5"/>
<g clip-path="url(#clip1_856_4920)">
<path d="M39.3735 23.8471C37.7349 24.7941 36.7229 26.4176 36.7229 28.2216C36.7229 30.251 38.0241 32.1 40 32.8667C39.6145 34.0392 39.0361 35.1216 38.3133 36.1137C37.253 37.5118 36.1446 38.9549 34.506 38.9549C32.8675 38.9549 32.3855 38.0529 30.4578 38.0529C28.5783 38.0529 27.9036 39 26.3614 39C24.8193 39 23.759 37.6922 22.5542 36.0686C20.9639 33.8137 20.0482 31.198 20 28.4471C20 23.9824 23.0843 21.5922 26.1687 21.5922C27.8072 21.5922 29.1566 22.5843 30.1687 22.5843C31.1325 22.5843 32.6747 21.5471 34.506 21.5471C36.4337 21.502 38.2651 22.3588 39.3735 23.8471ZM33.6386 19.6529C34.4578 18.751 34.8916 17.6235 34.9398 16.451C34.9398 16.3157 34.9398 16.1353 34.8916 16C33.494 16.1353 32.1928 16.7667 31.2771 17.7588C30.4578 18.6157 29.9759 19.698 29.9277 20.8706C29.9277 21.0059 29.9277 21.1412 29.9759 21.2765C30.0723 21.2765 30.2169 21.3216 30.3133 21.3216C31.6145 21.2314 32.8193 20.6 33.6386 19.6529Z" fill="#FCFCFC"/>
</g>
<rect x="0.5" y="0.5" width="149" height="55" rx="4.5" stroke="#E9E3F5"/>
</g>
<defs>
<filter id="filter0_b_856_4920" x="-24" y="-24" width="198" height="104" filterUnits="userSpaceOnUse" color-interpolation-filters="sRGB">
<feFlood flood-opacity="0" result="BackgroundImageFix"/>
<feGaussianBlur in="BackgroundImageFix" stdDeviation="12"/>
<feComposite in2="SourceAlpha" operator="in" result="effect1_backgroundBlur_856_4920"/>
<feBlend mode="normal" in="SourceGraphic" in2="effect1_backgroundBlur_856_4920" result="shape"/>
</filter>
<clipPath id="clip0_856_4920">
<rect width="150" height="56" fill="white"/>
</clipPath>
<clipPath id="clip1_856_4920">
<rect width="20" height="23" fill="white" transform="translate(20 16)"/>
</clipPath>
</defs>
</svg>
