<svg width="18" height="18" viewBox="0 0 18 18" fill="none" xmlns="http://www.w3.org/2000/svg">
<path d="M2.24077 17.6266C1.85024 18.0171 1.21708 18.0171 0.826552 17.6266L0.3741 17.1741C-0.0164247 16.7836 -0.0164253 16.1504 0.374099 15.7599L7.13366 9.00033L0.3741 2.24077C-0.0164242 1.85024 -0.0164254 1.21708 0.374099 0.826552L0.826552 0.374099C1.21708 -0.0164249 1.85024 -0.0164253 2.24077 0.374099L9.00033 7.13366L15.7599 0.3741C16.1504 -0.0164242 16.7836 -0.0164253 17.1741 0.374099L17.6266 0.826552C18.0171 1.21708 18.0171 1.85024 17.6266 2.24077L10.867 9.00033L17.6266 15.7599C18.0171 16.1504 18.0171 16.7836 17.6266 17.1741L17.1741 17.6266C16.7836 18.0171 16.1504 18.0171 15.7599 17.6266L9.00033 10.867L2.24077 17.6266Z" fill="#5F4F7F"/>
</svg>
