<svg width="18" height="18" viewBox="0 0 18 18" fill="none" xmlns="http://www.w3.org/2000/svg">
<path d="M2.24052 17.6266C1.85 18.0171 1.21683 18.0171 0.826308 17.6266L0.373856 17.1741C-0.0166689 16.7836 -0.0166694 16.1504 0.373855 15.7599L7.13342 9.00033L0.373856 2.24077C-0.0166684 1.85024 -0.0166695 1.21708 0.373855 0.826552L0.826308 0.374099C1.21683 -0.0164249 1.85 -0.0164253 2.24052 0.374099L9.00008 7.13366L15.7596 0.3741C16.1502 -0.0164242 16.7833 -0.0164253 17.1739 0.374099L17.6263 0.826552C18.0168 1.21708 18.0168 1.85024 17.6263 2.24077L10.8667 9.00033L17.6263 15.7599C18.0168 16.1504 18.0168 16.7836 17.6263 17.1741L17.1739 17.6266C16.7833 18.0171 16.1502 18.0171 15.7596 17.6266L9.00008 10.867L2.24052 17.6266Z" fill="#5F4F7F"/>
</svg>
