<svg width="56" height="56" viewBox="0 0 56 56" fill="none" xmlns="http://www.w3.org/2000/svg">
<path d="M56 28C56 43.464 43.464 56 28 56C12.536 56 0 43.464 0 28C0 12.536 12.536 0 28 0C43.464 0 56 12.536 56 28Z" fill="#5F4F7F"/>
<path d="M34.843 29.6311L35.6592 24.6019H30.5531V21.3384C30.5531 19.9624 31.2664 18.6214 33.5535 18.6214H35.875V14.3398C35.875 14.3398 33.7681 14 31.7537 14C27.5484 14 24.7997 16.4085 24.7997 20.7689V24.6019H20.125V29.6311H24.7997V41.7886C25.7513 41.9296 26.7131 42.0002 27.6764 42C28.6396 42.0003 29.6014 41.9296 30.5531 41.7886V29.6311H34.843Z" fill="#E9E3F5"/>
</svg>
