<svg width="150" height="56" viewBox="0 0 150 56" fill="none" xmlns="http://www.w3.org/2000/svg">
<rect x="0.5" y="0.5" width="149" height="55" rx="4.5" fill="#302E3D"/>
<path d="M75.2488 29.3188C72.8125 29.3188 70.8268 31.1587 70.8268 33.6954C70.8268 36.2156 72.8125 38.072 75.2488 38.072C77.6851 38.072 79.6708 36.2156 79.6708 33.6954C79.6708 31.1587 77.6851 29.3188 75.2488 29.3188ZM75.2488 36.3483C73.9136 36.3483 72.7617 35.2544 72.7617 33.6954C72.7617 32.1199 73.9136 31.0424 75.2488 31.0424C76.584 31.0424 77.7348 32.1199 77.7348 33.6954C77.7348 35.2534 76.584 36.3483 75.2488 36.3483ZM65.6009 29.3188C63.1646 29.3188 61.1789 31.1587 61.1789 33.6954C61.1789 36.2156 63.1646 38.072 65.6009 38.072C68.0373 38.072 70.023 36.2156 70.023 33.6954C70.024 31.1587 68.0373 29.3188 65.6009 29.3188ZM65.6009 36.3483C64.2657 36.3483 63.1149 35.2544 63.1149 33.6954C63.1149 32.1199 64.2668 31.0424 65.6009 31.0424C66.9361 31.0424 68.087 32.1199 68.087 33.6954C68.088 35.2534 66.9361 36.3483 65.6009 36.3483ZM54.1258 32.5181H58.5986C58.465 33.5626 58.1149 34.3252 57.5804 34.8562C56.9299 35.5024 55.9116 36.2156 54.1258 36.2156C51.3726 36.2156 49.2201 34.0103 49.2201 31.275C49.2201 28.5397 51.3726 26.3344 54.1258 26.3344C55.6112 26.3344 56.6958 26.9148 57.4965 27.6609L58.8151 26.3509C57.6974 25.2899 56.212 24.477 54.1258 24.477C50.3543 24.477 47.1836 27.5271 47.1836 31.274C47.1836 35.0208 50.3543 38.071 54.1258 38.071C56.1613 38.071 57.6974 37.4083 58.899 36.1641C60.1337 34.9375 60.518 33.2128 60.518 31.8204C60.518 31.3892 60.4849 30.991 60.4176 30.6596H54.1258V32.5181ZM101.058 32.1034C100.691 31.1248 99.5726 29.3177 97.2864 29.3177C95.0169 29.3177 93.1317 31.0918 93.1317 33.6944C93.1317 36.1477 95.0003 38.071 97.504 38.071C99.5228 38.071 100.691 36.8444 101.175 36.1312L99.673 35.1361C99.1727 35.8657 98.488 36.3463 97.504 36.3463C96.5189 36.3463 95.8186 35.8986 95.368 35.0198L101.259 32.5994L101.058 32.1034ZM95.05 33.5626C95.0003 31.8719 96.3687 31.0095 97.3527 31.0095C98.1203 31.0095 98.7708 31.3903 98.9883 31.9377L95.05 33.5626ZM90.2603 37.8065H92.1963V24.9421H90.2603V37.8065ZM87.0896 30.2964H87.0233C86.5893 29.7829 85.7554 29.3177 84.704 29.3177C82.5008 29.3177 80.4819 31.2411 80.4819 33.7108C80.4819 36.1641 82.5008 38.071 84.704 38.071C85.7554 38.071 86.5893 37.6069 87.0233 37.0759H87.0896V37.7057C87.0896 39.38 86.1884 40.2753 84.7361 40.2753C83.5511 40.2753 82.8167 39.4294 82.5163 38.7173L80.831 39.4139C81.3147 40.5747 82.6002 42 84.7361 42C87.0057 42 88.9251 40.6735 88.9251 37.4412V29.5832H87.0896V30.2964ZM84.8708 36.3483C83.5356 36.3483 82.4179 35.238 82.4179 33.7119C82.4179 32.1703 83.5356 31.0424 84.8708 31.0424C86.1894 31.0424 87.2232 32.1693 87.2232 33.7119C87.2232 35.2369 86.1894 36.3483 84.8708 36.3483ZM110.126 24.9421H105.494V37.8065H107.426V32.9329H110.125C112.267 32.9329 114.373 31.3923 114.373 28.938C114.373 26.4837 112.268 24.9421 110.126 24.9421ZM110.175 31.1423H107.426V26.7327H110.175C111.62 26.7327 112.441 27.9213 112.441 28.938C112.441 29.9341 111.62 31.1423 110.175 31.1423ZM122.121 29.2951C120.721 29.2951 119.272 29.9074 118.673 31.2647L120.389 31.9768C120.756 31.2647 121.438 31.0332 122.155 31.0332C123.155 31.0332 124.171 31.629 124.187 32.6879V32.8207C123.837 32.6221 123.087 32.3236 122.172 32.3236C120.323 32.3236 118.439 33.3332 118.439 35.2205C118.439 36.9421 119.956 38.0504 121.655 38.0504C122.955 38.0504 123.67 37.4711 124.12 36.7929H124.186V37.786H126.052V32.8536C126.052 30.5691 124.337 29.2951 122.121 29.2951ZM121.887 36.3453C121.254 36.3453 120.37 36.0304 120.37 35.2534C120.37 34.2604 121.47 33.8796 122.419 33.8796C123.269 33.8796 123.668 34.0617 124.185 34.3097C124.036 35.5014 123.003 36.3453 121.887 36.3453ZM132.849 29.576L130.633 35.1536H130.567L128.269 29.576H126.187L129.635 37.3712L127.669 41.7077H129.685L135 29.576H132.849ZM115.44 37.8065H117.373V24.9421H115.44V37.8065Z" fill="#FCFCFC"/>
<path d="M53.7436 17.01H50.7314V17.752H52.9885C52.9274 18.355 52.6839 18.8294 52.2769 19.1742C51.8687 19.5189 51.3477 19.6918 50.7314 19.6918C50.0539 19.6918 49.4811 19.4592 49.0129 18.9931C48.553 18.5187 48.3178 17.9331 48.3178 17.2251C48.3178 16.5181 48.553 15.9316 49.0129 15.4572C49.4811 14.992 50.0539 14.7595 50.7314 14.7595C51.0784 14.7595 51.4088 14.8191 51.7123 14.9488C52.0158 15.0785 52.2592 15.2596 52.4498 15.4922L53.0227 14.9231C52.7627 14.6298 52.4322 14.4055 52.0251 14.2418C51.617 14.0782 51.1913 14 50.7314 14C49.8281 14 49.0647 14.3108 48.4401 14.9313C47.8144 15.5529 47.5026 16.3195 47.5026 17.2251C47.5026 18.1307 47.8144 18.8984 48.4401 19.5189C49.0647 20.1405 49.8281 20.4502 50.7314 20.4502C51.6771 20.4502 52.4322 20.1487 53.0144 19.5364C53.5261 19.028 53.7871 18.3375 53.7871 17.4752C53.7871 17.329 53.7695 17.1737 53.7436 17.01Z" fill="#FCFCFC"/>
<path d="M54.9328 14.1379V20.3123H58.5614V19.5539H55.7314V17.5966H58.2827V16.8546H55.7314V14.8974H58.5614V14.1379H54.9328Z" fill="#FCFCFC"/>
<path d="M63.6639 14.8974V14.1379H59.3931V14.8974H61.1292V20.3123H61.9278V14.8974H63.6639Z" fill="#FCFCFC"/>
<path d="M67.5534 14.1379H66.7548V20.3123H67.5534V14.1379Z" fill="#FCFCFC"/>
<path d="M72.8311 14.8974V14.1379H68.5603V14.8974H70.2964V20.3123H71.095V14.8974H72.8311Z" fill="#FCFCFC"/>
<path d="M80.9128 14.9406C80.2965 14.3108 79.5414 14 78.6381 14C77.7359 14 76.9797 14.3108 76.3634 14.9313C75.7471 15.5436 75.4435 16.3113 75.4435 17.2251C75.4435 18.14 75.7471 18.9066 76.3634 19.5189C76.9797 20.1405 77.7359 20.4502 78.6381 20.4502C79.532 20.4502 80.2965 20.1405 80.9128 19.5189C81.5292 18.9066 81.8327 18.14 81.8327 17.2251C81.8327 16.3195 81.5292 15.5529 80.9128 14.9406ZM76.9372 15.4572C77.3972 14.992 77.9607 14.7595 78.6381 14.7595C79.3155 14.7595 79.879 14.992 80.3307 15.4572C80.7906 15.9151 81.0164 16.5099 81.0164 17.2251C81.0164 17.9413 80.7906 18.5361 80.3307 18.9931C79.879 19.4592 79.3155 19.6918 78.6381 19.6918C77.9607 19.6918 77.3972 19.4592 76.9372 18.9931C76.4856 18.5279 76.2598 17.9413 76.2598 17.2251C76.2598 16.5099 76.4856 15.9233 76.9372 15.4572Z" fill="#FCFCFC"/>
<path d="M83.751 16.4667L83.7169 15.2761H83.751L86.9114 20.3123H87.7442V14.1379H86.9456V17.752L86.9808 18.9416H86.9456L83.9251 14.1379H82.9534V20.3123H83.751V16.4667Z" fill="#FCFCFC"/>
<path d="M37.0181 29.2979L33.0991 31.5159L29.5841 28.0229L33.1271 24.5019L37.0181 26.7039C37.2477 26.8338 37.4388 27.0223 37.5717 27.2502C37.7046 27.478 37.7747 27.7371 37.7747 28.0009C37.7747 28.2647 37.7046 28.5238 37.5717 28.7517C37.4388 28.9796 37.2477 29.1681 37.0181 29.2979ZM16.3371 16.9239C16.2629 17.1041 16.2248 17.2971 16.2251 17.4919V38.5089C16.2251 38.7259 16.2701 38.9279 16.3491 39.1089L27.5041 28.0219L16.3371 16.9239ZM28.5441 26.9889L31.8021 23.7509L18.4501 16.1949C18.1639 16.0305 17.8306 15.9674 17.5041 16.0159L28.5441 26.9889ZM28.5441 29.0559L17.5441 39.9889C17.8421 40.0249 18.1561 39.9729 18.4501 39.8059L31.7741 32.2659L28.5441 29.0559Z" fill="#FCFCFC"/>
<rect x="0.5" y="0.5" width="149" height="55" rx="4.5" stroke="#E9E3F5"/>
</svg>
