<svg width="56" height="56" viewBox="0 0 56 56" fill="none" xmlns="http://www.w3.org/2000/svg">
<rect width="56" height="56" rx="28" fill="#5F4F7F"/>
<path d="M28.2819 19.568C30.3119 19.5345 32.2735 20.2866 33.7415 21.6612L37.8378 17.6466C35.2527 15.267 31.8281 13.9605 28.2819 14.0009C22.882 13.9989 17.943 16.983 15.519 21.7121L20.2905 25.3387C21.4156 21.9343 24.6309 19.6125 28.2819 19.568Z" fill="#E9E3F5"/>
<path d="M15.5191 21.7129C13.4936 25.6685 13.4936 30.3293 15.5191 34.2849L20.2905 30.6584C19.6933 28.9337 19.6933 27.0641 20.2905 25.3395L15.5191 21.7129Z" fill="#E9E3F5"/>
<path d="M33.1183 35.0928C29.1136 37.6121 23.7834 36.4726 21.213 32.5478C20.8266 31.9579 20.5167 31.3231 20.2904 30.6582L15.519 34.2847C17.9429 39.0139 22.882 41.998 28.2819 41.996C31.7585 42.0884 35.1398 40.8753 37.7339 38.6049L33.1183 35.0928Z" fill="#E9E3F5"/>
<path d="M41.7326 25.4531H28.2817V30.8675H35.9679C35.6466 32.5981 34.617 34.1245 33.1181 35.0921L37.7336 38.6042C40.5762 35.9211 42.1239 32.1819 41.9923 28.3162C41.9931 27.3561 41.9062 26.398 41.7326 25.4531Z" fill="#E9E3F5"/>
</svg>
