<svg width="13" height="12" viewBox="0 0 13 12" fill="none" xmlns="http://www.w3.org/2000/svg">
<path d="M11.5 6C11.5 8.76142 9.26142 11 6.5 11C3.73858 11 1.5 8.76142 1.5 6C1.5 3.23858 3.73858 1 6.5 1C9.26142 1 11.5 3.23858 11.5 6Z" fill="white"/>
<path fill-rule="evenodd" clip-rule="evenodd" d="M6.5 1C3.73858 1 1.5 3.23858 1.5 6C1.5 8.76142 3.73858 11 6.5 11C9.26142 11 11.5 8.76142 11.5 6C11.5 3.23858 9.26142 1 6.5 1ZM5.61812 4.57419C5.46792 4.42399 5.22439 4.42399 5.07419 4.57419C4.92399 4.72439 4.92399 4.96792 5.07419 5.11812L5.95607 6L5.07419 6.88188C4.92399 7.03208 4.92399 7.27561 5.07419 7.42581C5.22439 7.57601 5.46792 7.57601 5.61812 7.42581L6.5 6.54393L7.38188 7.42581C7.53208 7.57601 7.77561 7.57601 7.92581 7.42581C8.07601 7.27561 8.07601 7.03208 7.92581 6.88188L7.04393 6L7.92581 5.11812C8.07601 4.96792 8.07601 4.72439 7.92581 4.57419C7.77561 4.42399 7.53208 4.42399 7.38188 4.57419L6.5 5.45607L5.61812 4.57419Z" fill="#D75048"/>
</svg>
