<svg width="24" height="24" viewBox="0 0 24 24" fill="none" xmlns="http://www.w3.org/2000/svg">
<path fill-rule="evenodd" clip-rule="evenodd" d="M18.8568 19.2791C20.7919 17.4555 22 14.8688 22 12C22 6.47715 17.5228 2 12 2C6.47715 2 2 6.47715 2 12C2 14.8688 3.20805 17.4555 5.14321 19.2791C6.93345 20.9661 9.34599 22 12 22C14.654 22 17.0665 20.9661 18.8568 19.2791ZM5.995 17.9613C7.40473 16.2029 9.57088 15.0769 12 15.0769C14.4291 15.0769 16.5953 16.2029 18.005 17.9613C16.4721 19.5054 14.3477 20.4615 12 20.4615C9.65231 20.4615 7.52793 19.5054 5.995 17.9613ZM15.8462 8.92308C15.8462 11.0472 14.1242 12.7692 12 12.7692C9.87583 12.7692 8.15385 11.0472 8.15385 8.92308C8.15385 6.7989 9.87583 5.07692 12 5.07692C14.1242 5.07692 15.8462 6.7989 15.8462 8.92308Z" fill="#438955"/>
</svg>
