<svg width="88" height="48" viewBox="0 0 88 48" fill="none" xmlns="http://www.w3.org/2000/svg">
<g clip-path="url(#clip0_9254_24041)">
<g filter="url(#filter0_d_9254_24041)">
<mask id="path-1-outside-1_9254_24041" maskUnits="userSpaceOnUse" x="25.9231" y="4" width="36" height="39" fill="black">
<rect fill="white" x="25.9231" y="4" width="36" height="39"/>
<path fill-rule="evenodd" clip-rule="evenodd" d="M46.8926 32.9482C46.8926 32.432 46.6586 31.9619 46.28 31.6196C45.8859 31.2628 45.3348 31.0418 44.7216 31.0418C44.2695 31.0418 43.8509 31.1628 43.5038 31.3698C42.9604 31.6948 42.5471 32.0513 41.9967 32.635C41.975 32.6582 41.9384 32.6926 41.9257 32.6926C41.9113 32.6926 41.8833 32.6585 41.8617 32.6363C41.2555 32.0111 40.9015 31.6954 40.3574 31.3698C40.0107 31.1628 39.5917 31.0418 39.1396 31.0418C38.5264 31.0418 37.9753 31.2628 37.5812 31.6196C37.203 31.9622 36.9686 32.432 36.9686 32.9482C36.9686 36.1941 40.6859 38.5964 41.9308 39.3097C43.1756 38.5964 46.8929 36.1941 46.8929 32.9482H46.8926ZM58.8213 19.673L33.4876 5.57463C30.4312 3.8743 26.9231 6.18432 26.9231 9.40145V37.5986C26.9231 40.8154 30.4312 43.1257 33.4876 41.4254L38.2994 38.7477C39.8951 40.1921 41.5204 41.0054 41.5293 41.0101C41.7897 41.1438 42.089 41.1339 42.3316 41.0101C42.3494 41.0011 48.5688 37.8901 48.6172 33.0058L58.821 27.3273C61.8289 25.6533 61.8289 21.3477 58.821 19.6743V19.6734L58.8213 19.673ZM37.0855 37.4909C37.0463 37.4442 37.0075 37.3965 36.9693 37.3491C37.0078 37.3968 37.0463 37.4442 37.0855 37.4909ZM36.9495 37.3244L32.5232 39.7876C30.8776 40.7034 28.8632 39.4988 28.8632 37.5983V9.40145C28.8632 7.50119 30.8773 6.29636 32.5232 7.21213L57.8566 21.3105C59.5625 22.2601 59.5625 24.74 57.8566 25.6895L48.0795 31.1306C47.906 30.8607 47.6952 30.6134 47.4532 30.3946C46.7499 29.758 45.7837 29.3644 44.7213 29.3644C43.9403 29.3644 43.2106 29.577 42.6 29.9415C42.3567 30.087 42.1323 30.2575 41.9301 30.4488C41.728 30.2575 41.5035 30.087 41.2603 29.9415C40.6496 29.577 39.9203 29.3644 39.139 29.3644C38.0772 29.3644 37.1103 29.7583 36.407 30.3946C35.6872 31.0458 35.2418 31.9492 35.2418 32.9485C35.2418 34.6349 35.9791 36.1121 36.9489 37.3247L36.9495 37.3244Z"/>
</mask>
<path fill-rule="evenodd" clip-rule="evenodd" d="M46.8926 32.9482C46.8926 32.432 46.6586 31.9619 46.28 31.6196C45.8859 31.2628 45.3348 31.0418 44.7216 31.0418C44.2695 31.0418 43.8509 31.1628 43.5038 31.3698C42.9604 31.6948 42.5471 32.0513 41.9967 32.635C41.975 32.6582 41.9384 32.6926 41.9257 32.6926C41.9113 32.6926 41.8833 32.6585 41.8617 32.6363C41.2555 32.0111 40.9015 31.6954 40.3574 31.3698C40.0107 31.1628 39.5917 31.0418 39.1396 31.0418C38.5264 31.0418 37.9753 31.2628 37.5812 31.6196C37.203 31.9622 36.9686 32.432 36.9686 32.9482C36.9686 36.1941 40.6859 38.5964 41.9308 39.3097C43.1756 38.5964 46.8929 36.1941 46.8929 32.9482H46.8926ZM58.8213 19.673L33.4876 5.57463C30.4312 3.8743 26.9231 6.18432 26.9231 9.40145V37.5986C26.9231 40.8154 30.4312 43.1257 33.4876 41.4254L38.2994 38.7477C39.8951 40.1921 41.5204 41.0054 41.5293 41.0101C41.7897 41.1438 42.089 41.1339 42.3316 41.0101C42.3494 41.0011 48.5688 37.8901 48.6172 33.0058L58.821 27.3273C61.8289 25.6533 61.8289 21.3477 58.821 19.6743V19.6734L58.8213 19.673ZM37.0855 37.4909C37.0463 37.4442 37.0075 37.3965 36.9693 37.3491C37.0078 37.3968 37.0463 37.4442 37.0855 37.4909ZM36.9495 37.3244L32.5232 39.7876C30.8776 40.7034 28.8632 39.4988 28.8632 37.5983V9.40145C28.8632 7.50119 30.8773 6.29636 32.5232 7.21213L57.8566 21.3105C59.5625 22.2601 59.5625 24.74 57.8566 25.6895L48.0795 31.1306C47.906 30.8607 47.6952 30.6134 47.4532 30.3946C46.7499 29.758 45.7837 29.3644 44.7213 29.3644C43.9403 29.3644 43.2106 29.577 42.6 29.9415C42.3567 30.087 42.1323 30.2575 41.9301 30.4488C41.728 30.2575 41.5035 30.087 41.2603 29.9415C40.6496 29.577 39.9203 29.3644 39.139 29.3644C38.0772 29.3644 37.1103 29.7583 36.407 30.3946C35.6872 31.0458 35.2418 31.9492 35.2418 32.9485C35.2418 34.6349 35.9791 36.1121 36.9489 37.3247L36.9495 37.3244Z" fill="url(#paint0_linear_9254_24041)"/>
<path d="M37.2852 37.5945C37.248 37.5516 37.2111 37.508 37.1743 37.4642L37.0438 37.5739C37.0809 37.618 37.1184 37.6623 37.1564 37.7061L37.2852 37.5945ZM46.8926 32.9482H46.7222V33.1186H46.8926V32.9482ZM46.28 31.6196L46.1657 31.7459L46.1657 31.746L46.28 31.6196ZM43.5038 31.3698L43.4165 31.2235L43.4164 31.2236L43.5038 31.3698ZM41.9967 32.635L41.8727 32.5181L41.8721 32.5188L41.9967 32.635ZM41.8617 32.6363L41.7393 32.7549L41.7395 32.755L41.8617 32.6363ZM40.3574 31.3698L40.4449 31.2236L40.4448 31.2235L40.3574 31.3698ZM37.5812 31.6196L37.4668 31.4933L37.4668 31.4933L37.5812 31.6196ZM41.9308 39.3097L41.846 39.4576L41.9308 39.5062L42.0155 39.4576L41.9308 39.3097ZM46.8929 32.9482H47.0633V32.7778H46.8929V32.9482ZM58.8213 19.673L58.9401 19.7952L59.1043 19.6355L58.9042 19.5241L58.8213 19.673ZM33.4876 5.57463L33.5704 5.42572L33.5704 5.42571L33.4876 5.57463ZM33.4876 41.4254L33.5704 41.5743L33.5704 41.5743L33.4876 41.4254ZM38.2994 38.7477L38.4138 38.6214L38.3233 38.5394L38.2166 38.5988L38.2994 38.7477ZM41.5293 41.0101L41.4506 41.1612L41.4515 41.1617L41.5293 41.0101ZM42.3316 41.0101L42.255 40.8579L42.2541 40.8583L42.3316 41.0101ZM48.6172 33.0058L48.5343 32.8569L48.4478 32.905L48.4468 33.0041L48.6172 33.0058ZM58.821 27.3273L58.9038 27.4762L58.9038 27.4762L58.821 27.3273ZM58.821 19.6743H58.6506V19.7745L58.7381 19.8232L58.821 19.6743ZM58.821 19.6734L58.7022 19.5512L58.6506 19.6014V19.6734H58.821ZM36.9693 37.3491L37.1018 37.242L36.8367 37.4562L36.9693 37.3491ZM36.9495 37.3244L37.0324 37.4733L36.875 37.1712L36.9495 37.3244ZM32.5232 39.7876L32.6061 39.9365H32.6061L32.5232 39.7876ZM32.5232 7.21213L32.6061 7.06322L32.6061 7.06321L32.5232 7.21213ZM57.8566 21.3105L57.9395 21.1616L57.9395 21.1616L57.8566 21.3105ZM57.8566 25.6895L57.9395 25.8384L57.9395 25.8384L57.8566 25.6895ZM48.0795 31.1306L47.9361 31.2228L48.0226 31.3573L48.1623 31.2795L48.0795 31.1306ZM47.4532 30.3946L47.3389 30.521L47.3389 30.521L47.4532 30.3946ZM42.6 29.9415L42.5126 29.7952L42.5125 29.7953L42.6 29.9415ZM41.9301 30.4488L41.813 30.5726L41.9301 30.6834L42.0472 30.5726L41.9301 30.4488ZM41.2603 29.9415L41.3477 29.7953L41.3476 29.7952L41.2603 29.9415ZM36.407 30.3946L36.5214 30.521L36.5214 30.521L36.407 30.3946ZM36.9489 37.3247L36.8158 37.4311L36.9009 37.5376L37.0235 37.4779L36.9489 37.3247ZM47.063 32.9482C47.063 32.3785 46.8044 31.864 46.3943 31.4932L46.1657 31.746C46.5127 32.0597 46.7222 32.4855 46.7222 32.9482H47.063ZM46.3944 31.4933C45.9679 31.1071 45.3756 30.8714 44.7216 30.8714V31.2122C45.294 31.2122 45.8039 31.4184 46.1657 31.7459L46.3944 31.4933ZM44.7216 30.8714C44.239 30.8714 43.7902 31.0006 43.4165 31.2235L43.5912 31.5162C43.9115 31.325 44.3 31.2122 44.7216 31.2122V30.8714ZM43.4164 31.2236C42.8551 31.5592 42.4297 31.9274 41.8727 32.5181L42.1207 32.7519C42.6645 32.1752 43.0657 31.8304 43.5913 31.5161L43.4164 31.2236ZM41.8721 32.5188C41.8644 32.527 41.8545 32.5366 41.8471 32.5429C41.8431 32.5464 41.8432 32.5459 41.8468 32.5436C41.8485 32.5425 41.8544 32.5388 41.8635 32.5348C41.8682 32.5328 41.8755 32.5299 41.8848 32.5274C41.8938 32.5251 41.908 32.5222 41.9257 32.5222V32.863C41.9614 32.863 41.9886 32.8521 41.9995 32.8473C42.0131 32.8414 42.0241 32.8348 42.0314 32.8301C42.0461 32.8206 42.0591 32.8102 42.0685 32.8021C42.088 32.7854 42.1073 32.7663 42.1213 32.7513L41.8721 32.5188ZM41.9257 32.5222C41.9563 32.5222 41.9788 32.5308 41.9893 32.5355C42.0006 32.5406 42.0083 32.5458 42.0114 32.548C42.0174 32.5523 42.0194 32.5547 42.0158 32.5512C42.013 32.5484 42.0093 32.5445 42.0035 32.5383C41.9986 32.5331 41.9909 32.5247 41.9839 32.5175L41.7395 32.755C41.7433 32.7589 41.7472 32.7632 41.7541 32.7706C41.7601 32.7771 41.7683 32.7858 41.777 32.7944C41.785 32.8022 41.798 32.8145 41.8139 32.8258C41.8221 32.8316 41.8344 32.8396 41.8501 32.8467C41.865 32.8533 41.8915 32.863 41.9257 32.863V32.5222ZM41.984 32.5176C41.3739 31.8884 41.0078 31.5604 40.4449 31.2236L40.2699 31.5161C40.7952 31.8304 41.1371 32.1338 41.7393 32.7549L41.984 32.5176ZM40.4448 31.2235C40.0714 31.0005 39.6221 30.8714 39.1396 30.8714V31.2122C39.5613 31.2122 39.95 31.325 40.27 31.5161L40.4448 31.2235ZM39.1396 30.8714C38.4856 30.8714 37.8934 31.1071 37.4668 31.4933L37.6956 31.7459C38.0573 31.4184 38.5673 31.2122 39.1396 31.2122V30.8714ZM37.4668 31.4933C37.0572 31.8643 36.7982 32.3784 36.7982 32.9482H37.1391C37.1391 32.4856 37.3487 32.0601 37.6956 31.7459L37.4668 31.4933ZM36.7982 32.9482C36.7982 34.6373 37.7642 36.0903 38.8618 37.1986C39.9621 38.3096 41.2175 39.0974 41.846 39.4576L42.0155 39.1619C41.3992 38.8087 40.1735 38.0387 39.104 36.9588C38.0317 35.8761 37.1391 34.5051 37.1391 32.9482H36.7982ZM42.0155 39.4576C42.6441 39.0974 43.8994 38.3096 44.9997 37.1986C46.0973 36.0903 47.0633 34.6373 47.0633 32.9482H46.7225C46.7225 34.5051 45.8298 35.8761 44.7576 36.9588C43.688 38.0387 42.4623 38.8087 41.846 39.1619L42.0155 39.4576ZM46.8929 32.7778H46.8926V33.1186H46.8929V32.7778ZM58.9042 19.5241L33.5704 5.42572L33.4047 5.72354L58.7384 19.822L58.9042 19.5241ZM33.5704 5.42571C30.3944 3.6588 26.7527 6.06138 26.7527 9.40145H27.0935C27.0935 6.30726 30.4681 4.08981 33.4047 5.72355L33.5704 5.42571ZM26.7527 9.40145V37.5986H27.0935V9.40145H26.7527ZM26.7527 37.5986C26.7527 40.9383 30.3944 43.3412 33.5704 41.5743L33.4047 41.2765C30.4681 42.9102 27.0935 40.6925 27.0935 37.5986H26.7527ZM33.5704 41.5743L38.3823 38.8966L38.2166 38.5988L33.4047 41.2765L33.5704 41.5743ZM38.1851 38.8741C38.992 39.6045 39.8056 40.1747 40.4182 40.5628C40.7247 40.7569 40.9813 40.9058 41.1623 41.0066C41.2528 41.057 41.3245 41.0955 41.374 41.1215C41.4215 41.1466 41.4536 41.1628 41.4506 41.1612L41.608 40.8589C41.6017 40.8557 39.9926 40.0505 38.4138 38.6214L38.1851 38.8741ZM41.4515 41.1617C41.7629 41.3216 42.12 41.3094 42.4091 41.1619L42.2541 40.8583C42.058 40.9584 41.8165 40.966 41.6071 40.8585L41.4515 41.1617ZM42.4082 41.1623C42.4082 41.1623 42.4081 41.1623 42.4086 41.1621C42.4089 41.162 42.4093 41.1618 42.4098 41.1615C42.4108 41.161 42.4121 41.1603 42.4139 41.1594C42.4174 41.1577 42.4224 41.1551 42.4288 41.1519C42.4416 41.1453 42.4601 41.1357 42.4839 41.1232C42.5315 41.0982 42.6004 41.0613 42.6876 41.0129C42.8618 40.9161 43.1091 40.7732 43.4052 40.5867C43.9971 40.2139 44.7858 39.6661 45.5761 38.9636C47.151 37.5637 48.7627 35.5227 48.7876 33.0075L48.4468 33.0041C48.4233 35.3733 46.9011 37.3298 45.3497 38.7088C43.8028 40.0838 42.2587 40.856 42.255 40.8579L42.4082 41.1623ZM48.7001 33.1547L58.9038 27.4762L58.7381 27.1784L48.5343 32.8569L48.7001 33.1547ZM58.9038 27.4762C62.0285 25.7372 62.0286 21.2637 58.9038 19.5254L58.7381 19.8232C61.6293 21.4316 61.6294 25.5693 58.7381 27.1784L58.9038 27.4762ZM58.9914 19.6743V19.6734H58.6506V19.6743H58.9914ZM58.9398 19.7955L58.9401 19.7952L58.7025 19.5509L58.7022 19.5512L58.9398 19.7955ZM37.2161 37.3814C37.1779 37.3358 37.1398 37.2891 37.1019 37.2421L36.8367 37.4562C36.8752 37.5039 36.9148 37.5525 36.9549 37.6003L37.2161 37.3814ZM36.8367 37.4563C36.8754 37.5041 36.9147 37.5524 36.9549 37.6003L37.2161 37.3814C37.1779 37.3359 37.1402 37.2895 37.1018 37.242L36.8367 37.4563ZM36.8667 37.1755L32.4404 39.6387L32.6061 39.9365L37.0324 37.4733L36.8667 37.1755ZM32.4404 39.6387C30.9112 40.4896 29.0337 39.3722 29.0337 37.5983H28.6928C28.6928 39.6255 30.8439 40.9171 32.6061 39.9365L32.4404 39.6387ZM29.0337 37.5983V9.40145H28.6928V37.5983H29.0337ZM29.0337 9.40145C29.0337 7.62778 30.9109 6.51011 32.4404 7.36105L32.6061 7.06321C30.8436 6.0826 28.6928 7.3746 28.6928 9.40145H29.0337ZM32.4404 7.36104L57.7738 21.4595L57.9395 21.1616L32.6061 7.06322L32.4404 7.36104ZM57.7737 21.4594C59.3629 22.344 59.3629 24.656 57.7737 25.5406L57.9395 25.8384C59.762 24.8239 59.762 22.1761 57.9395 21.1616L57.7737 21.4594ZM57.7738 25.5406L47.9966 30.9817L48.1623 31.2795L57.9395 25.8384L57.7738 25.5406ZM48.2228 31.0384C48.041 30.7556 47.8203 30.4969 47.5675 30.2682L47.3389 30.521C47.57 30.73 47.7709 30.9659 47.9361 31.2228L48.2228 31.0384ZM47.5676 30.2683C46.8329 29.6033 45.8259 29.1939 44.7213 29.1939V29.5348C45.7415 29.5348 46.667 29.9128 47.3389 30.521L47.5676 30.2683ZM44.7213 29.1939C43.9093 29.1939 43.1494 29.415 42.5126 29.7952L42.6873 30.0879C43.2718 29.7389 43.9714 29.5348 44.7213 29.5348V29.1939ZM42.5125 29.7953C42.2586 29.9472 42.0242 30.1252 41.813 30.325L42.0472 30.5726C42.2404 30.3898 42.4549 30.2269 42.6874 30.0878L42.5125 29.7953ZM42.0472 30.325C41.8361 30.1252 41.6017 29.9472 41.3477 29.7953L41.1728 30.0878C41.4053 30.2269 41.6199 30.3898 41.813 30.5726L42.0472 30.325ZM41.3476 29.7952C40.7108 29.415 39.9513 29.1939 39.139 29.1939V29.5348C39.8892 29.5348 40.5885 29.7389 41.1729 30.0879L41.3476 29.7952ZM39.139 29.1939C38.035 29.1939 37.0273 29.6036 36.2927 30.2683L36.5214 30.521C37.1933 29.9131 38.1194 29.5348 39.139 29.5348V29.1939ZM36.2927 30.2683C35.5406 30.9486 35.0714 31.8966 35.0714 32.9485H35.4122C35.4122 32.0018 35.8338 31.143 36.5214 30.521L36.2927 30.2683ZM35.0714 32.9485C35.0714 34.6865 35.8314 36.2002 36.8158 37.4311L37.082 37.2183C36.1269 36.024 35.4122 34.5834 35.4122 32.9485H35.0714ZM37.0235 37.4779L37.0241 37.4776L36.875 37.1712L36.8743 37.1715L37.0235 37.4779Z" fill="url(#paint1_linear_9254_24041)" mask="url(#path-1-outside-1_9254_24041)"/>
</g>
</g>
<defs>
<filter id="filter0_d_9254_24041" x="26.7527" y="4.82812" width="40.2887" height="43.4787" filterUnits="userSpaceOnUse" color-interpolation-filters="sRGB">
<feFlood flood-opacity="0" result="BackgroundImageFix"/>
<feColorMatrix in="SourceAlpha" type="matrix" values="0 0 0 0 0 0 0 0 0 0 0 0 0 0 0 0 0 0 127 0" result="hardAlpha"/>
<feOffset dx="3.06745" dy="3.40828"/>
<feGaussianBlur stdDeviation="1.36331"/>
<feComposite in2="hardAlpha" operator="out"/>
<feColorMatrix type="matrix" values="0 0 0 0 0 0 0 0 0 0 0 0 0 0 0 0 0 0 0.8 0"/>
<feBlend mode="normal" in2="BackgroundImageFix" result="effect1_dropShadow_9254_24041"/>
<feBlend mode="normal" in="SourceGraphic" in2="effect1_dropShadow_9254_24041" result="shape"/>
</filter>
<linearGradient id="paint0_linear_9254_24041" x1="44" y1="5" x2="44" y2="42" gradientUnits="userSpaceOnUse">
<stop stop-color="#9747FF"/>
<stop offset="1" stop-color="#E551E8"/>
</linearGradient>
<linearGradient id="paint1_linear_9254_24041" x1="44" y1="5" x2="44" y2="42" gradientUnits="userSpaceOnUse">
<stop stop-color="#9747FF"/>
<stop offset="1" stop-color="#E551E8"/>
</linearGradient>
<clipPath id="clip0_9254_24041">
<rect width="88" height="48" fill="white"/>
</clipPath>
</defs>
</svg>
