<svg width="320" height="229" viewBox="0 0 320 229" fill="none" xmlns="http://www.w3.org/2000/svg">
<g filter="url(#filter0_f_856_4907)">
<path d="M217.596 74.6108L282.962 112.046L217.999 149.481L217.596 74.6108Z" stroke="#EB53A2" stroke-width="6.74364"/>
</g>
<path d="M216.571 72.8612L284.988 112.044L216.992 151.227L216.571 72.8612Z" stroke="#EB53A2" stroke-width="4.72055"/>
<g filter="url(#filter1_d_856_4907)">
<path d="M49.1199 62.8881L48.7835 0L75.9324 0C82.6752 0 88.5971 1.31766 93.6979 3.95297C98.7987 6.58828 102.781 10.2418 105.645 14.9135C108.509 19.5852 109.958 25.0954 109.992 31.4441C110.026 37.7329 108.636 43.2431 105.822 47.9747C103.008 52.6463 99.0646 56.2998 93.992 58.9352C88.9194 61.5705 83.0116 62.8881 76.2688 62.8881H49.1199ZM60.6009 53.0057H75.6836C80.3563 53.0057 84.3735 52.1073 87.7353 50.3105C91.1563 48.5137 93.7749 45.9982 95.5912 42.7639C97.4666 39.5297 98.3928 35.7564 98.3698 31.4441C98.3464 27.0718 97.3798 23.2986 95.4701 20.1242C93.6192 16.89 90.9737 14.3744 87.5335 12.5776C84.1524 10.7808 80.1256 9.88242 75.4529 9.88242L55.1463 9.26373L59.8095 12.2287L60.6009 53.0057Z" fill="#C896EF"/>
<path d="M110.995 62.8881L138.606 0L149.962 0L178.335 62.8881H166.269L143.89 10.7808L122.884 62.8881H110.995ZM128.765 48.2992L132.54 38.9362L152.443 39.1703L160.018 48.334L128.765 48.2992Z" fill="#C896EF"/>
<path d="M193.938 62.8881L193.655 9.88242L173.071 9.88242L173.018 0L225.719 0L225.772 9.88242L200.064 9.26373L205.036 11.9199L205.472 62.8881H193.938Z" fill="#C896EF"/>
<path d="M244.274 26.1435L274.262 26.1435L274.314 35.7564L246.471 35.9361L244.274 26.1435ZM244.418 53.0955H279.464L279.516 62.8881H232.937L232.601 0L277.937 0L277.99 9.79258L244.187 9.79258L244.418 53.0955Z" fill="#C896EF"/>
<path d="M40.7978 149.135L68.4088 86.2466H79.7652L108.138 149.135H96.0715L73.6924 97.0274L52.6865 149.135H40.7978ZM58.5537 134.581L62.0162 125.991L81.9285 125.776L89.8208 134.581H58.5537Z" fill="#C896EF"/>
<path d="M114.262 149.135L113.925 86.2466H139.477C144.978 86.2466 149.685 87.145 153.598 88.9418C157.571 90.7386 160.631 93.314 162.778 96.668C164.925 100.022 166.011 104.005 166.036 108.617C166.061 113.229 165.017 117.211 162.906 120.566C160.794 123.92 157.762 126.495 153.809 128.292C149.915 130.089 145.217 130.987 139.716 130.987H125.698L125.669 125.507L125.795 149.135H114.262ZM125.676 126.764L128.589 121.105H139.131C144.218 121.105 148.027 120.026 150.559 117.87C153.15 115.654 154.434 112.57 154.413 108.617C154.392 104.604 153.074 101.519 150.46 99.3632C147.905 97.2071 144.084 96.129 138.998 96.129H120.366L125.526 98.8242L125.676 126.764Z" fill="#C896EF"/>
<path d="M175.996 149.135L175.66 86.2466H201.212C206.712 86.2466 211.419 87.145 215.333 88.9418C219.305 90.7386 222.365 93.314 224.512 96.668C226.66 100.022 227.746 104.005 227.77 108.617C227.795 113.229 226.752 117.211 224.64 120.566C222.529 123.92 219.497 126.495 215.543 128.292C211.649 130.089 206.952 130.987 201.451 130.987H187.433L187.403 125.507L187.53 149.135H175.996ZM187.41 126.764L190.144 121.105H200.866C205.952 121.105 209.762 120.026 212.294 117.87C214.884 115.654 216.169 112.57 216.148 108.617C216.126 104.604 214.809 101.519 212.195 99.3632C209.64 97.2071 205.819 96.129 200.732 96.129H182.1L187.261 98.8242L187.41 126.764Z" fill="#C896EF"/>
</g>
<defs>
<filter id="filter0_f_856_4907" x="191.809" y="46.4005" width="120.307" height="131.291" filterUnits="userSpaceOnUse" color-interpolation-filters="sRGB">
<feFlood flood-opacity="0" result="BackgroundImageFix"/>
<feBlend mode="normal" in="SourceGraphic" in2="BackgroundImageFix" result="shape"/>
<feGaussianBlur stdDeviation="11.1923" result="effect1_foregroundBlur_856_4907"/>
</filter>
<filter id="filter1_d_856_4907" x="0.922436" y="0" width="318.469" height="228.886" filterUnits="userSpaceOnUse" color-interpolation-filters="sRGB">
<feFlood flood-opacity="0" result="BackgroundImageFix"/>
<feColorMatrix in="SourceAlpha" type="matrix" values="0 0 0 0 0 0 0 0 0 0 0 0 0 0 0 0 0 0 127 0" result="hardAlpha"/>
<feOffset dy="39.8754"/>
<feGaussianBlur stdDeviation="19.9377"/>
<feComposite in2="hardAlpha" operator="out"/>
<feColorMatrix type="matrix" values="0 0 0 0 0 0 0 0 0 0 0 0 0 0 0 0 0 0 1 0"/>
<feBlend mode="normal" in2="BackgroundImageFix" result="effect1_dropShadow_856_4907"/>
<feBlend mode="normal" in="SourceGraphic" in2="effect1_dropShadow_856_4907" result="shape"/>
</filter>
</defs>
</svg>
