<svg width="101" height="100" viewBox="0 0 101 100" fill="none" xmlns="http://www.w3.org/2000/svg">
<path d="M17.1663 83.3337C14.8747 83.3337 12.9122 82.5184 11.2788 80.8878C9.64551 79.2573 8.83024 77.2948 8.83301 75.0003V25.0003C8.83301 22.7087 9.64968 20.7462 11.283 19.1128C12.9163 17.4795 14.8775 16.6642 17.1663 16.667H83.833C86.1247 16.667 88.0872 17.4837 89.7205 19.117C91.3538 20.7503 92.1691 22.7114 92.1663 25.0003V75.0003C92.1663 77.292 91.3497 79.2545 89.7163 80.8878C88.083 82.5212 86.1219 83.3364 83.833 83.3337H17.1663ZM50.4997 53.4378C50.8469 53.4378 51.2122 53.3864 51.5955 53.2837C51.9788 53.1809 52.3427 53.0239 52.6872 52.8128L82.1664 34.3753C82.7219 34.0281 83.1386 33.5948 83.4163 33.0753C83.6941 32.5559 83.833 31.9823 83.833 31.3545C83.833 29.9656 83.2427 28.9239 82.0622 28.2295C80.8816 27.5351 79.6664 27.5698 78.4164 28.3337L50.4997 45.8337L22.583 28.3337C21.333 27.5698 20.1177 27.5531 18.9372 28.2837C17.7566 29.0142 17.1663 30.0378 17.1663 31.3545C17.1663 32.0489 17.3052 32.6573 17.583 33.1795C17.8608 33.7017 18.2775 34.1003 18.833 34.3753L48.3122 52.8128C48.6594 53.0212 49.0247 53.1781 49.408 53.2837C49.7913 53.3892 50.1552 53.4406 50.4997 53.4378Z" fill="#5F4F7F"/>
</svg>
