<svg width="274" height="179" viewBox="0 0 274 179" fill="none" xmlns="http://www.w3.org/2000/svg">
<g filter="url(#filter0_f_818_4120)">
<path d="M178.625 75.1017L244.035 112.573L179.027 150.045L178.625 75.1017Z" stroke="#EB53A2" stroke-width="6.74364"/>
</g>
<path d="M177.599 73.3519L246.061 112.571L178.02 151.791L177.599 73.3519Z" stroke="#EB53A2" stroke-width="4.72055"/>
<path d="M10.0539 63.3725L9.71721 0.430664L36.8817 0.430664C43.6284 0.430664 49.5536 1.74945 54.6574 4.38701C59.7611 7.02457 63.7459 10.6812 66.6116 15.3569C69.4773 20.0326 70.9272 25.5475 70.9612 31.9016C70.9949 38.1958 69.604 43.7107 66.7886 48.4463C63.9729 53.122 60.0273 56.7786 54.9518 59.4162C49.8762 62.0537 43.9651 63.3725 37.2184 63.3725H10.0539ZM21.5415 53.4817H36.6328C41.3082 53.4817 45.3277 52.5825 48.6915 50.7841C52.1144 48.9858 54.7345 46.4681 56.5519 43.2311C58.4284 39.9941 59.3551 36.2176 59.332 31.9016C59.3086 27.5256 58.3415 23.7491 56.4306 20.5721C54.5787 17.335 51.9316 14.8174 48.4895 13.019C45.1065 11.2207 41.0773 10.3215 36.4019 10.3215L16.0837 9.70231L20.7496 12.6698L21.5415 53.4817Z" fill="#C896EF"/>
<path d="M71.9646 63.3725L99.5913 0.430664L110.954 0.430664L139.343 63.3725H127.27L104.878 11.2207L83.8601 63.3725H71.9646ZM89.7447 48.7711L93.5213 39.4001L113.436 39.6344L121.016 48.806L89.7447 48.7711Z" fill="#C896EF"/>
<path d="M154.955 63.3725L154.671 10.3215L134.076 10.3215L134.023 0.430664L186.754 0.430664L186.807 10.3215L161.084 9.70231L166.059 12.3607L166.496 63.3725H154.955Z" fill="#C896EF"/>
<path d="M205.32 26.5965L235.325 26.5965L235.377 36.2176L207.518 36.3974L205.32 26.5965ZM205.464 53.5716H240.53L240.582 63.3725H193.976L193.64 0.430664L239.003 0.430664L239.055 10.2316L205.233 10.2316L205.464 53.5716Z" fill="#C896EF"/>
<path d="M1.72718 149.693L29.3539 86.7509H40.7168L69.1057 149.693H57.0326L34.6406 97.5409L13.6227 149.693H1.72718ZM19.4932 135.126L22.9578 126.53L42.8814 126.314L50.7783 135.126H19.4932Z" fill="#C896EF"/>
<path d="M75.2331 149.693L74.8964 86.7509H100.463C105.967 86.7509 110.677 87.6501 114.592 89.4484C118.567 91.2468 121.629 93.8244 123.777 97.1813C125.926 100.538 127.012 104.524 127.037 109.14C127.062 113.756 126.018 117.742 123.905 121.099C121.793 124.456 118.758 127.034 114.803 128.832C110.907 130.63 106.206 131.53 100.702 131.53H86.6764L86.647 126.045L86.7735 149.693H75.2331ZM86.6538 127.303L89.5685 121.639H100.117C105.207 121.639 109.018 120.56 111.551 118.402C114.143 116.184 115.429 113.097 115.408 109.14C115.386 105.124 114.068 102.037 111.452 99.8788C108.896 97.7208 105.073 96.6418 99.9832 96.6418H81.3409L86.5042 99.3393L86.6538 127.303Z" fill="#C896EF"/>
<path d="M137.003 149.693L136.666 86.7509H162.233C167.737 86.7509 172.446 87.6501 176.362 89.4484C180.337 91.2468 183.399 93.8244 185.547 97.1813C187.696 100.538 188.782 104.524 188.807 109.14C188.832 113.756 187.788 117.742 185.675 121.099C183.562 124.456 180.528 127.034 176.573 128.832C172.676 130.63 167.976 131.53 162.472 131.53H148.446L148.417 126.045L148.543 149.693H137.003ZM148.424 127.303L151.159 121.639H161.887C166.976 121.639 170.788 120.56 173.321 118.402C175.913 116.184 177.199 113.097 177.178 109.14C177.156 105.124 175.838 102.037 173.222 99.8788C170.666 97.7208 166.843 96.6418 161.753 96.6418H143.111L148.274 99.3393L148.424 127.303Z" fill="#C896EF"/>
<defs>
<filter id="filter0_f_818_4120" x="152.837" y="46.8908" width="120.35" height="131.365" filterUnits="userSpaceOnUse" color-interpolation-filters="sRGB">
<feFlood flood-opacity="0" result="BackgroundImageFix"/>
<feBlend mode="normal" in="SourceGraphic" in2="BackgroundImageFix" result="shape"/>
<feGaussianBlur stdDeviation="11.1923" result="effect1_foregroundBlur_818_4120"/>
</filter>
</defs>
</svg>
