<svg width="81" height="80" viewBox="0 0 81 80" fill="none" xmlns="http://www.w3.org/2000/svg">
<path fill-rule="evenodd" clip-rule="evenodd" d="M5.5 15C5.5 9.47715 9.97715 5 15.5 5H20.0721C22.94 5 25.4399 6.95186 26.1355 9.73415L29.8215 24.4781C30.4314 26.9177 29.5198 29.4852 27.5081 30.9939L23.196 34.228C22.7482 34.5638 22.6509 35.0556 22.7767 35.399C26.5617 45.7316 34.7684 53.9383 45.1011 57.7233C45.4444 57.8491 45.9362 57.7518 46.272 57.304L49.5061 52.9919C51.0148 50.9802 53.5823 50.0686 56.0219 50.6785L70.7658 54.3645C73.5481 55.0601 75.5 57.56 75.5 60.4279V65C75.5 70.5229 71.0229 75 65.5 75H58C29.005 75 5.5 51.4949 5.5 22.5V15Z" fill="#5F4F7F"/>
</svg>
