<svg width="20" height="20" viewBox="0 0 20 20" fill="none" xmlns="http://www.w3.org/2000/svg">
<path fill-rule="evenodd" clip-rule="evenodd" d="M1.875 11.25C1.875 6.76269 5.51269 3.125 10 3.125C14.4873 3.125 18.125 6.76269 18.125 11.25C18.125 15.7373 14.4873 19.375 10 19.375C5.51269 19.375 1.875 15.7373 1.875 11.25ZM11.3564 7.98606C10.6157 7.33798 9.38466 7.33798 8.64399 7.98606C8.38421 8.21337 7.98936 8.18704 7.76206 7.92727C7.53476 7.6675 7.56108 7.27264 7.82086 7.04534C9.03281 5.98489 10.9676 5.98489 12.1795 7.04534C13.4404 8.14862 13.4404 9.97638 12.1795 11.0797C11.9656 11.2668 11.7301 11.4201 11.4817 11.5403C10.9181 11.813 10.6252 12.1851 10.6252 12.5V13.125C10.6252 13.4702 10.3454 13.75 10.0002 13.75C9.65501 13.75 9.37519 13.4702 9.37519 13.125V12.5C9.37519 11.4341 10.2579 10.7439 10.9372 10.4151C11.0894 10.3415 11.2304 10.2492 11.3564 10.1389C12.0481 9.53367 12.0481 8.59133 11.3564 7.98606ZM10 16.25C10.3452 16.25 10.625 15.9702 10.625 15.625C10.625 15.2798 10.3452 15 10 15C9.65482 15 9.375 15.2798 9.375 15.625C9.375 15.9702 9.65482 16.25 10 16.25Z" fill="#5F4F7F"/>
</svg>
