<svg width="32" height="32" viewBox="0 0 32 32" fill="none" xmlns="http://www.w3.org/2000/svg">
<path d="M19.8092 22.7756C22.3353 22.476 24.7712 21.8821 27.0816 21.0292C25.1659 18.9027 23.9998 16.0875 23.9998 13V12.0656C24 12.0437 24.0001 12.0219 24.0001 12C24.0001 7.58172 20.4184 4 16.0001 4C11.5818 4 8.0001 7.58172 8.0001 12L7.99984 13C7.99984 16.0875 6.8338 18.9027 4.91807 21.0292C7.22864 21.8821 9.66468 22.4761 12.1909 22.7757M19.8092 22.7756C18.5601 22.9238 17.2889 23 15.9998 23C14.711 23 13.4399 22.9238 12.1909 22.7757M19.8092 22.7756C19.9332 23.1615 20.0001 23.5729 20.0001 24C20.0001 26.2091 18.2092 28 16.0001 28C13.791 28 12.0001 26.2091 12.0001 24C12.0001 23.573 12.067 23.1615 12.1909 22.7757M4.16602 10C4.54906 7.71685 5.57681 5.65232 7.05567 4M24.9445 4C26.4234 5.65232 27.4511 7.71685 27.8342 10" stroke="#E9E3F5" stroke-width="1.5" stroke-linecap="round" stroke-linejoin="round"/>
</svg>
