<svg width="20" height="21" viewBox="0 0 20 21" fill="none" xmlns="http://www.w3.org/2000/svg">
<g id="heroicons-outline">
<g clip-path="url(#clip0_8211_5138)">
<path id="Vector" d="M5.78365 2.16797C6.1302 2.16797 6.41113 2.43814 6.41113 2.77142V3.98869C6.96772 3.97831 7.5916 3.97831 8.29358 3.97831H11.6401C12.3421 3.97831 12.966 3.97831 13.5226 3.98869V2.77142C13.5226 2.43814 13.8035 2.16797 14.1501 2.16797C14.4966 2.16797 14.7776 2.43814 14.7776 2.77142V4.04208C15.9818 4.13482 16.7723 4.36241 17.3531 4.92096C17.9339 5.47951 18.1705 6.23977 18.267 7.39785L18.3334 8.0013H2.43721H1.66675V7.39785C1.76318 6.23977 1.99983 5.47951 2.58063 4.92096C3.16142 4.36241 3.95196 4.13482 5.15617 4.04208V2.77142C5.15617 2.43814 5.4371 2.16797 5.78365 2.16797Z" fill="#C896EF"/>
<g id="Vector_2">
<mask id="path-3-outside-1_8211_5138" maskUnits="userSpaceOnUse" x="-0.33374" y="6" width="21" height="15" fill="black">
<rect fill="white" x="-0.33374" y="6" width="21" height="15"/>
<path d="M18.3333 12.1667V10.5001C18.3333 9.80087 18.3306 8.55439 18.3199 8H1.67471C1.66396 8.55439 1.66668 9.80087 1.66668 10.5001V12.1667C1.66668 15.3094 1.66668 16.8808 2.64299 17.8571C3.6193 18.8334 5.19065 18.8334 8.33334 18.8334H11.6667C14.8094 18.8334 16.3807 18.8334 17.357 17.8571C18.3333 16.8808 18.3333 15.3094 18.3333 12.1667Z"/>
</mask>
<path d="M18.3333 12.1667V10.5001C18.3333 9.80087 18.3306 8.55439 18.3199 8H1.67471C1.66396 8.55439 1.66668 9.80087 1.66668 10.5001V12.1667C1.66668 15.3094 1.66668 16.8808 2.64299 17.8571C3.6193 18.8334 5.19065 18.8334 8.33334 18.8334H11.6667C14.8094 18.8334 16.3807 18.8334 17.357 17.8571C18.3333 16.8808 18.3333 15.3094 18.3333 12.1667Z" fill="#C896EF"/>
<path d="M2.64299 17.8571L3.70365 16.7964H3.70365L2.64299 17.8571ZM17.357 17.8571L16.2964 16.7964L16.2964 16.7964L17.357 17.8571ZM1.67471 8V6.5H0.203521L0.174995 7.97091L1.67471 8ZM18.3199 8L19.8196 7.97092L19.7911 6.5H18.3199V8ZM16.8333 10.5001V12.1667H19.8333V10.5001H16.8333ZM11.6667 17.3334H8.33334V20.3334H11.6667V17.3334ZM3.16668 12.1667V10.5001H0.166678V12.1667H3.16668ZM8.33334 17.3334C6.71959 17.3334 5.66017 17.3302 4.87564 17.2247C4.13426 17.1251 3.86665 16.9594 3.70365 16.7964L1.58233 18.9178C2.39564 19.7311 3.40185 20.0536 4.4759 20.198C5.5068 20.3366 6.8044 20.3334 8.33334 20.3334V17.3334ZM0.166678 12.1667C0.166678 13.6957 0.163493 14.9933 0.302093 16.0242C0.446495 17.0982 0.76902 18.1044 1.58233 18.9178L3.70365 16.7964C3.54065 16.6334 3.37502 16.3658 3.27534 15.6244C3.16986 14.8399 3.16668 13.7805 3.16668 12.1667H0.166678ZM16.8333 12.1667C16.8333 13.7805 16.8302 14.8399 16.7247 15.6244C16.625 16.3658 16.4594 16.6334 16.2964 16.7964L18.4177 18.9178C19.231 18.1044 19.5535 17.0982 19.6979 16.0242C19.8365 14.9933 19.8333 13.6957 19.8333 12.1667H16.8333ZM11.6667 20.3334C13.1956 20.3334 14.4932 20.3366 15.5241 20.198C16.5982 20.0536 17.6044 19.7311 18.4177 18.9178L16.2964 16.7964C16.1334 16.9594 15.8658 17.1251 15.1244 17.2247C14.3398 17.3302 13.2804 17.3334 11.6667 17.3334V20.3334ZM0.174995 7.97091C0.163871 8.54448 0.166678 9.8148 0.166678 10.5001H3.16668C3.16668 9.78695 3.16405 8.56429 3.17443 8.02909L0.174995 7.97091ZM19.8333 10.5001C19.8333 9.80491 19.8307 8.54277 19.8196 7.97092L16.8202 8.02908C16.8306 8.56601 16.8333 9.79684 16.8333 10.5001H19.8333ZM1.67471 9.5H18.3199V6.5H1.67471V9.5Z" fill="#32303E" mask="url(#path-3-outside-1_8211_5138)"/>
</g>
<g id="Vector_3">
<path d="M14.9999 14.6667C14.9999 15.1269 14.6268 15.5 14.1666 15.5C13.7063 15.5 13.3333 15.1269 13.3333 14.6667C13.3333 14.2064 13.7063 13.8333 14.1666 13.8333C14.6268 13.8333 14.9999 14.2064 14.9999 14.6667Z" fill="#32303E"/>
<path d="M14.9999 11.3333C14.9999 11.7936 14.6268 12.1667 14.1666 12.1667C13.7063 12.1667 13.3333 11.7936 13.3333 11.3333C13.3333 10.8731 13.7063 10.5 14.1666 10.5C14.6268 10.5 14.9999 10.8731 14.9999 11.3333Z" fill="#32303E"/>
</g>
<g id="Vector_4">
<path d="M10.8334 14.6667C10.8334 15.1269 10.4603 15.5 10.0001 15.5C9.53984 15.5 9.16675 15.1269 9.16675 14.6667C9.16675 14.2064 9.53984 13.8333 10.0001 13.8333C10.4603 13.8333 10.8334 14.2064 10.8334 14.6667Z" fill="#32303E"/>
<path d="M10.8334 11.3333C10.8334 11.7936 10.4603 12.1667 10.0001 12.1667C9.53984 12.1667 9.16675 11.7936 9.16675 11.3333C9.16675 10.8731 9.53984 10.5 10.0001 10.5C10.4603 10.5 10.8334 10.8731 10.8334 11.3333Z" fill="#32303E"/>
</g>
<g id="Vector_5">
<path d="M6.66667 14.6667C6.66667 15.1269 6.29357 15.5 5.83333 15.5C5.3731 15.5 5 15.1269 5 14.6667C5 14.2064 5.3731 13.8333 5.83333 13.8333C6.29357 13.8333 6.66667 14.2064 6.66667 14.6667Z" fill="#32303E"/>
<path d="M6.66667 11.3333C6.66667 11.7936 6.29357 12.1667 5.83333 12.1667C5.3731 12.1667 5 11.7936 5 11.3333C5 10.8731 5.3731 10.5 5.83333 10.5C6.29357 10.5 6.66667 10.8731 6.66667 11.3333Z" fill="#32303E"/>
</g>
</g>
</g>
<defs>
<clipPath id="clip0_8211_5138">
<rect y="0.5" width="20" height="20" rx="5" fill="white"/>
</clipPath>
</defs>
</svg>
