<svg width="87" height="64" viewBox="0 0 87 64" fill="none" xmlns="http://www.w3.org/2000/svg">
<g filter="url(#filter0_f_6409_915)">
<path d="M49.6271 25.6825L59.8944 31.5368L49.6903 37.3911L49.6271 25.6825Z" stroke="#DE77C7" stroke-width="2.15797"/>
</g>
<path d="M49.3004 25.1239L60.5463 31.5363L49.3696 37.9487L49.3004 25.1239Z" stroke="#DE77C7" stroke-width="1.51058"/>
<g filter="url(#filter1_d_6409_915)">
<path d="M18.9691 22.7701L18.9091 11.5557H23.7718C24.9795 11.5557 26.0401 11.7906 26.9537 12.2606C27.8673 12.7305 28.5806 13.382 29.0935 14.2151C29.6065 15.0482 29.866 16.0308 29.8721 17.1629C29.8781 18.2843 29.6291 19.2669 29.1251 20.1107C28.621 20.9438 27.9147 21.5953 27.0062 22.0652C26.0976 22.5352 25.0395 22.7701 23.8317 22.7701H18.9691ZM21.0255 21.0079H23.727C24.5639 21.0079 25.2834 20.8477 25.8856 20.5272C26.4983 20.2068 26.9673 19.7582 27.2927 19.1815C27.6286 18.6048 27.7945 17.9319 27.7904 17.1629C27.7862 16.3832 27.6131 15.7104 27.2711 15.1443C26.9396 14.5675 26.4657 14.119 25.8496 13.7986C25.244 13.4781 24.5228 13.3179 23.6858 13.3179L20.0487 13.2076L20.8839 13.7363L21.0255 21.0079Z" fill="#C896EF"/>
<path d="M30.0515 22.7701L34.9972 11.5557H37.0312L42.1127 22.7701H39.9516L35.9435 13.4781L32.1809 22.7701H30.0515ZM33.2344 20.1686L33.9105 18.4989L37.4753 18.5407L38.8321 20.1748L33.2344 20.1686Z" fill="#C896EF"/>
<path d="M44.9074 22.7701L44.8569 13.3179H41.1702L41.1607 11.5557H50.5999L50.6094 13.3179L46.0048 13.2076L46.8953 13.6813L46.9733 22.7701H44.9074Z" fill="#C896EF"/>
<path d="M53.9232 16.2177L59.2944 16.2177L59.3035 17.9319L54.3166 17.9639L53.9232 16.2177ZM53.949 21.0239H60.2259L60.2352 22.7701H51.8925L51.8325 11.5557H59.9527L59.9621 13.3019H53.9076L53.949 21.0239Z" fill="#C896EF"/>
<path d="M17.4782 38.15L22.4238 26.9355H24.4579L29.5394 38.15H27.3782L23.3702 28.858L19.6076 38.15H17.4782ZM20.6585 35.5546L21.2787 34.023L24.8452 33.9846L26.2587 35.5546H20.6585Z" fill="#C896EF"/>
<path d="M30.6362 38.15L30.5763 26.9355H35.1528C36.1381 26.9355 36.9811 27.0957 37.6821 27.4161C38.3936 27.7365 38.9416 28.1958 39.3262 28.7939C39.7108 29.392 39.9053 30.1023 39.9097 30.9247C39.9141 31.747 39.7272 32.4573 39.349 33.0554C38.9708 33.6535 38.4277 34.1128 37.7196 34.4332C37.0221 34.7536 36.1808 34.9138 35.1955 34.9138H32.6848L32.6795 33.9365L32.7021 38.15H30.6362ZM32.6807 34.1608L33.2025 33.1515H35.0907C36.0018 33.1515 36.6841 32.9593 37.1376 32.5748C37.6016 32.1796 37.8317 31.6296 37.828 30.9247C37.8241 30.2091 37.5881 29.659 37.1199 29.2745C36.6623 28.89 35.978 28.6978 35.0669 28.6978H31.7298L32.6541 29.1784L32.6807 34.1608Z" fill="#C896EF"/>
<path d="M41.6935 38.15L41.6335 26.9355H46.2101C47.1953 26.9355 48.0384 27.0957 48.7393 27.4161C49.4508 27.7365 49.9988 28.1958 50.3834 28.7939C50.768 29.392 50.9625 30.1023 50.9669 30.9247C50.9713 31.747 50.7844 32.4573 50.4062 33.0554C50.028 33.6535 49.4849 34.1128 48.7768 34.4332C48.0793 34.7536 47.238 34.9138 46.2527 34.9138H43.742L43.7367 33.9365L43.7593 38.15H41.6935ZM43.7379 34.1608L44.2276 33.1515H46.148C47.059 33.1515 47.7413 32.9593 48.1948 32.5748C48.6588 32.1796 48.8889 31.6296 48.8852 30.9247C48.8813 30.2091 48.6453 29.659 48.1771 29.2745C47.7195 28.89 47.0352 28.6978 46.1241 28.6978H42.787L43.7113 29.1784L43.7379 34.1608Z" fill="#C896EF"/>
</g>
<defs>
<filter id="filter0_f_6409_915" x="41.375" y="16.6592" width="27.8557" height="29.7554" filterUnits="userSpaceOnUse" color-interpolation-filters="sRGB">
<feFlood flood-opacity="0" result="BackgroundImageFix"/>
<feBlend mode="normal" in="SourceGraphic" in2="BackgroundImageFix" result="shape"/>
<feGaussianBlur stdDeviation="3.58155" result="effect1_foregroundBlur_6409_915"/>
</filter>
<filter id="filter1_d_6409_915" x="4.71812" y="11.5557" width="68.2771" height="52.1145" filterUnits="userSpaceOnUse" color-interpolation-filters="sRGB">
<feFlood flood-opacity="0" result="BackgroundImageFix"/>
<feColorMatrix in="SourceAlpha" type="matrix" values="0 0 0 0 0 0 0 0 0 0 0 0 0 0 0 0 0 0 127 0" result="hardAlpha"/>
<feOffset dy="12.7601"/>
<feGaussianBlur stdDeviation="6.38007"/>
<feComposite in2="hardAlpha" operator="out"/>
<feColorMatrix type="matrix" values="0 0 0 0 0 0 0 0 0 0 0 0 0 0 0 0 0 0 1 0"/>
<feBlend mode="normal" in2="BackgroundImageFix" result="effect1_dropShadow_6409_915"/>
<feBlend mode="normal" in="SourceGraphic" in2="effect1_dropShadow_6409_915" result="shape"/>
</filter>
</defs>
</svg>
