<svg width="27" height="26" viewBox="0 0 27 26" fill="none" xmlns="http://www.w3.org/2000/svg">
<path d="M13.4999 4.33301C14.6492 4.33301 15.7514 4.78955 16.564 5.60221C17.3767 6.41487 17.8333 7.51707 17.8333 8.66634C17.8333 9.81561 17.3767 10.9178 16.564 11.7305C15.7514 12.5431 14.6492 12.9997 13.4999 12.9997C12.3506 12.9997 11.2484 12.5431 10.4358 11.7305C9.62313 10.9178 9.16658 9.81561 9.16658 8.66634C9.16658 7.51707 9.62313 6.41487 10.4358 5.60221C11.2484 4.78955 12.3506 4.33301 13.4999 4.33301ZM13.4999 21.6663C13.4999 21.6663 22.1666 21.6663 22.1666 19.4997C22.1666 16.8997 17.9416 14.083 13.4999 14.083C9.05825 14.083 4.83325 16.8997 4.83325 19.4997C4.83325 21.6663 13.4999 21.6663 13.4999 21.6663Z" fill="#C896EF"/>
</svg>
