<svg width="27" height="27" viewBox="0 0 27 27" fill="none" xmlns="http://www.w3.org/2000/svg">
<path d="M13.4999 4.83301C14.6492 4.83301 15.7514 5.28955 16.564 6.10221C17.3767 6.91487 17.8333 8.01707 17.8333 9.16634C17.8333 10.3156 17.3767 11.4178 16.564 12.2305C15.7514 13.0431 14.6492 13.4997 13.4999 13.4997C12.3506 13.4997 11.2484 13.0431 10.4358 12.2305C9.62313 11.4178 9.16658 10.3156 9.16658 9.16634C9.16658 8.01707 9.62313 6.91487 10.4358 6.10221C11.2484 5.28955 12.3506 4.83301 13.4999 4.83301ZM13.4999 22.1663C13.4999 22.1663 22.1666 22.1663 22.1666 19.9997C22.1666 17.3997 17.9416 14.583 13.4999 14.583C9.05825 14.583 4.83325 17.3997 4.83325 19.9997C4.83325 22.1663 13.4999 22.1663 13.4999 22.1663Z" fill="#C896EF"/>
</svg>
