<svg width="27" height="26" viewBox="0 0 27 26" fill="none" xmlns="http://www.w3.org/2000/svg">
<path d="M10.4531 5.21387C10.4531 3.5311 11.8172 2.16699 13.5 2.16699C15.1828 2.16699 16.5469 3.5311 16.5469 5.21387C16.5469 6.89659 15.1828 8.26074 13.5 8.26074C11.8172 8.26074 10.4531 6.89659 10.4531 5.21387ZM21.2284 5.27197C20.6996 4.74312 19.8421 4.74312 19.3133 5.27197L15.6474 8.93783H11.3525L7.68668 5.27197C7.15788 4.74312 6.30044 4.74312 5.77163 5.27197C5.24279 5.80081 5.24279 6.65821 5.77163 7.18706L9.77604 11.1914V22.4795C9.77604 23.2274 10.3823 23.8337 11.1302 23.8337H11.8073C12.5552 23.8337 13.1615 23.2274 13.1615 22.4795V17.7399H13.8385V22.4795C13.8385 23.2274 14.4448 23.8337 15.1927 23.8337H15.8698C16.6177 23.8337 17.224 23.2274 17.224 22.4795V11.1914L21.2284 7.18701C21.7572 6.65817 21.7572 5.80081 21.2284 5.27197Z" fill="#C896EF"/>
</svg>
