<svg width="27" height="26" viewBox="0 0 27 26" fill="none" xmlns="http://www.w3.org/2000/svg">
<path fill-rule="evenodd" clip-rule="evenodd" d="M15.9374 2.70866C15.9374 2.565 15.9945 2.42722 16.0961 2.32564C16.1977 2.22406 16.3354 2.16699 16.4791 2.16699H17.8333C17.9769 2.16699 18.1147 2.22406 18.2163 2.32564C18.3179 2.42722 18.3749 2.565 18.3749 2.70866V9.30724C18.375 9.3615 18.3864 9.41514 18.4085 9.46469C18.4307 9.51424 18.4629 9.55859 18.5033 9.59487C19.3153 10.3258 19.9646 11.2192 20.4091 12.2172C20.8535 13.2152 21.0832 14.2955 21.0833 15.388V22.6377C21.0833 23.2985 20.5475 23.8337 19.8873 23.8337H14.7766C14.609 23.8337 14.443 23.8008 14.2881 23.7367C14.1332 23.6726 13.9925 23.5786 13.8739 23.4601C13.7553 23.3416 13.6613 23.2009 13.5971 23.046C13.5329 22.8911 13.4999 22.7251 13.4999 22.5575V15.2011C13.4999 13.0984 14.3352 11.0817 15.822 9.59487C15.8959 9.52103 15.9374 9.42088 15.9374 9.31645V2.70866ZM19.9999 15.7087H14.5833V20.042H19.9999V15.7087ZM7.19546 13.0003H11.1383L10.7916 9.75033H7.54158L7.19546 13.0003ZM11.7666 8.66699H6.56659L6.01788 13.8323C5.93286 14.6316 6.15489 15.4334 6.63898 16.075C7.12307 16.7167 7.833 17.1504 8.62492 17.2882V22.7503H6.99992C6.85626 22.7503 6.71848 22.8074 6.6169 22.909C6.51532 23.0106 6.45825 23.1483 6.45825 23.292C6.45825 23.4356 6.51532 23.5734 6.6169 23.675C6.71848 23.7766 6.85626 23.8337 6.99992 23.8337H11.3333C11.4769 23.8337 11.6147 23.7766 11.7163 23.675C11.8179 23.5734 11.8749 23.4356 11.8749 23.292C11.8749 23.1483 11.8179 23.0106 11.7163 22.909C11.6147 22.8074 11.4769 22.7503 11.3333 22.7503H9.70825V17.2876C10.5001 17.1499 11.2099 16.7163 11.694 16.0747C12.1781 15.4331 12.4002 14.6315 12.3153 13.8323L11.7666 8.66699Z" fill="#C896EF"/>
</svg>
