<svg width="27" height="26" viewBox="0 0 27 26" fill="none" xmlns="http://www.w3.org/2000/svg">
<path d="M13.1754 3.03964C13.3828 2.94903 13.6186 2.94903 13.826 3.03964C17.8547 4.79987 21.6729 6.95165 25.2326 9.44677C25.4902 9.62733 25.6204 9.94038 25.5669 10.2504C25.5134 10.5604 25.2857 10.8116 24.9824 10.8953C24.2404 11.1001 23.5048 11.3207 22.7759 11.5558C19.8173 12.51 16.9692 13.7106 14.2559 15.1334L14.2523 15.1353C14.1293 15.1998 14.0065 15.2648 13.8841 15.3302C13.6448 15.4581 13.3575 15.4581 13.1183 15.3302C12.9946 15.2642 12.8707 15.1986 12.7465 15.1334C11.4048 14.4299 10.0302 13.7806 8.62561 13.1887V12.9464C8.62561 12.8041 8.69865 12.6778 8.81165 12.6093C10.4422 11.6215 12.1241 10.71 13.8524 9.87989C14.2569 9.6856 14.4273 9.20019 14.233 8.7957C14.0387 8.39121 13.5533 8.22081 13.1488 8.4151C11.373 9.26809 9.64487 10.2046 7.96965 11.2195C7.47848 11.5171 7.14829 12.0041 7.03969 12.5497C6.11352 12.1934 5.17518 11.8616 4.22543 11.5553C3.49653 11.3202 2.76092 11.1001 2.01895 10.8953C1.7157 10.8116 1.48803 10.5604 1.43449 10.2504C1.38095 9.94037 1.51117 9.62732 1.76877 9.44675C5.32843 6.95164 9.14667 4.79986 13.1754 3.03964Z" fill="#C896EF"/>
<path d="M14.6499 16.7635C17.292 15.3517 20.0679 14.1583 22.9536 13.2071C23.099 14.7398 23.1919 16.2877 23.2303 17.849C23.2386 18.184 23.0403 18.4897 22.7311 18.6188C19.6424 19.9084 16.7044 21.4875 13.9512 23.3222C13.6783 23.5041 13.3229 23.5041 13.0501 23.3222C10.2968 21.4875 7.3589 19.9084 4.27017 18.6188C3.96095 18.4897 3.7627 18.184 3.77096 17.849C3.80942 16.2876 3.90229 14.7395 4.04774 13.2067C5.04549 13.5356 6.03011 13.8934 7.00061 14.2792V15.6555C6.5149 15.9364 6.18811 16.4616 6.18811 17.0631C6.18811 17.5997 6.4482 18.0755 6.84918 18.3714C6.75221 18.7838 6.60869 19.1873 6.41861 19.5737C6.90903 19.8051 7.39525 20.0441 7.87713 20.2903C8.15158 19.7321 8.35057 19.1462 8.4741 18.548C9.04214 18.2948 9.43811 17.7252 9.43811 17.0631C9.43811 16.4616 9.11132 15.9364 8.62561 15.6555V14.957C9.89463 15.5114 11.1377 16.1144 12.3525 16.7635C13.0703 17.147 13.9321 17.147 14.6499 16.7635Z" fill="#C896EF"/>
<path d="M5.33469 21.0847C5.78875 20.6307 6.15022 20.1192 6.41861 19.5737C6.90903 19.8051 7.39525 20.0441 7.87713 20.2903C7.53204 20.9921 7.06739 21.6501 6.48373 22.2338C6.16643 22.5511 5.65199 22.5511 5.33469 22.2338C5.01739 21.9165 5.01739 21.402 5.33469 21.0847Z" fill="#C896EF"/>
</svg>
