<svg width="27" height="26" viewBox="0 0 27 26" fill="none" xmlns="http://www.w3.org/2000/svg">
<path d="M15.7852 8.53859L14.705 9.94499C15.5236 10.7136 16.0797 11.7689 16.2811 12.9355C16.4824 14.102 16.3167 15.3097 15.8116 16.3577C15.3066 17.4057 14.4924 18.2311 13.5046 18.6966C12.5167 19.1621 11.4146 19.2398 10.3813 18.9167C9.34801 18.5936 8.44579 17.8891 7.82455 16.9205C7.20331 15.9518 6.90045 14.7771 6.96629 13.5918C7.03213 12.4064 7.46272 11.2816 8.18649 10.4043C8.91027 9.52698 9.88367 8.95 10.9449 8.76921L10.692 6.94316C10.2089 7.02507 9.73615 7.16974 9.28367 7.37416L7.36262 3.62376L10.2339 4.50087L10.4185 3.58974L10.6373 2.71263L5.85175 1.24574L5.04505 1L3.5 7.18134L5.10999 7.67283L5.89619 4.5349L7.82408 8.31553C6.80724 9.16022 6.0425 10.3224 5.62846 11.6523C5.21442 12.9822 5.17006 14.4188 5.50112 15.7768C5.83218 17.1349 6.52347 18.3521 7.48585 19.2715C8.44822 20.191 9.63756 20.7705 10.9005 20.9353C11.158 20.9696 11.4171 20.9873 11.6764 20.9882C12.9791 20.9833 14.249 20.537 15.3152 19.7093C16.3814 18.8817 17.1927 17.7124 17.6396 16.3592C18.0866 15.0059 18.1478 13.5337 17.815 12.1408C17.4822 10.7479 16.7714 9.50123 15.7783 8.56884L15.7852 8.53859Z" fill="#C896EF"/>
<path d="M25.5 18.3044L24.5839 16.7582L22.574 18.2175L21.6852 16.7052C22.6685 15.767 23.3693 14.5191 23.6938 13.1283C24.0182 11.7376 23.951 10.2705 23.501 8.92316C23.051 7.57587 22.2397 6.41271 21.1756 5.58931C20.1116 4.76591 18.8456 4.32155 17.547 4.31569C16.2484 4.30982 14.9791 4.74272 13.9091 5.55648C12.839 6.37023 12.0191 7.52603 11.5592 8.86921C11.0992 10.2124 11.0211 11.6789 11.3353 13.0725C11.6495 14.4661 12.3411 15.7204 13.3174 16.6674L14.418 15.2837C13.6632 14.5506 13.1405 13.5695 12.9263 12.4841C12.7121 11.3986 12.8177 10.2658 13.2277 9.25152C13.6377 8.23726 14.3305 7.39481 15.2047 6.84754C16.0789 6.30026 17.0886 6.07691 18.0858 6.21019C19.2269 6.36317 20.2778 6.973 21.0401 7.92449C21.8024 8.87597 22.2233 10.1033 22.2233 11.3745C22.2233 12.6458 21.8024 13.8731 21.0401 14.8246C20.2778 15.7761 19.2269 16.3859 18.0858 16.5389L18.2841 18.3687C18.9784 18.277 19.6541 18.0585 20.2838 17.7222L21.1759 19.2345L19.1694 20.6938L20.0855 22.2401L22.0954 20.7808L23.4149 23L24.8095 21.9868L23.4901 19.7676L25.5 18.3044Z" fill="#C896EF"/>
</svg>
