<svg width="27" height="26" viewBox="0 0 27 26" fill="none" xmlns="http://www.w3.org/2000/svg">
<path fill-rule="evenodd" clip-rule="evenodd" d="M10.25 4.875C10.6128 4.875 10.9316 5.11548 11.0312 5.46429L11.9122 8.54766C12.2978 9.89726 13.3527 10.9522 14.7023 11.3378L17.7857 12.2188C18.1345 12.3184 18.375 12.6372 18.375 13C18.375 13.3628 18.1345 13.6816 17.7857 13.7812L14.7023 14.6622C13.3527 15.0478 12.2978 16.1027 11.9122 17.4523L11.0312 20.5357C10.9316 20.8845 10.6128 21.125 10.25 21.125C9.88723 21.125 9.56842 20.8845 9.46876 20.5357L8.5878 17.4523C8.2022 16.1027 7.14725 15.0478 5.79766 14.6622L2.71429 13.7812C2.36548 13.6816 2.125 13.3628 2.125 13C2.125 12.6372 2.36548 12.3184 2.71429 12.2188L5.79766 11.3378C7.14726 10.9522 8.2022 9.89725 8.5878 8.54766L9.46876 5.46429C9.56842 5.11548 9.88723 4.875 10.25 4.875Z" fill="#C896EF"/>
<path fill-rule="evenodd" clip-rule="evenodd" d="M20 1.625C20.3728 1.625 20.6978 1.87874 20.7882 2.24044L21.0687 3.36219C21.3234 4.38106 22.1189 5.1766 23.1378 5.43132L24.2596 5.71176C24.6213 5.80218 24.875 6.12717 24.875 6.5C24.875 6.87283 24.6213 7.19782 24.2596 7.28824L23.1378 7.56868C22.1189 7.8234 21.3234 8.61894 21.0687 9.63781L20.7882 10.7596C20.6978 11.1213 20.3728 11.375 20 11.375C19.6272 11.375 19.3022 11.1213 19.2118 10.7596L18.9313 9.63781C18.6766 8.61894 17.8811 7.8234 16.8622 7.56868L15.7404 7.28824C15.3787 7.19782 15.125 6.87283 15.125 6.5C15.125 6.12717 15.3787 5.80218 15.7404 5.71176L16.8622 5.43132C17.8811 5.1766 18.6766 4.38106 18.9313 3.36219L19.2118 2.24044C19.3022 1.87874 19.6272 1.625 20 1.625Z" fill="#C896EF"/>
<path fill-rule="evenodd" clip-rule="evenodd" d="M18.375 16.25C18.7247 16.25 19.0352 16.4738 19.1458 16.8056L19.5729 18.0869C19.7346 18.5721 20.1154 18.9529 20.6006 19.1146L21.8819 19.5417C22.2137 19.6523 22.4375 19.9628 22.4375 20.3125C22.4375 20.6622 22.2137 20.9727 21.8819 21.0833L20.6006 21.5104C20.1154 21.6721 19.7346 22.0529 19.5729 22.5381L19.1458 23.8194C19.0352 24.1512 18.7247 24.375 18.375 24.375C18.0253 24.375 17.7148 24.1512 17.6042 23.8194L17.1771 22.5381C17.0154 22.0529 16.6346 21.6721 16.1494 21.5104L14.8681 21.0833C14.5363 20.9727 14.3125 20.6622 14.3125 20.3125C14.3125 19.9628 14.5363 19.6523 14.8681 19.5417L16.1494 19.1146C16.6346 18.9529 17.0154 18.5721 17.1771 18.0869L17.6042 16.8056C17.7148 16.4738 18.0253 16.25 18.375 16.25Z" fill="#C896EF"/>
</svg>
