<svg width="27" height="26" viewBox="0 0 27 26" fill="none" xmlns="http://www.w3.org/2000/svg">
<g clip-path="url(#clip0_5675_2877)">
<path d="M14.5105 13.2063C14.2258 13.9699 14.0101 14.7577 13.8662 15.5601H12.231C12.7209 14.5513 13.5197 13.7264 14.5105 13.2063Z" fill="#C896EF"/>
<path d="M18.6672 15.5601H15.2005C15.3963 14.5572 15.7206 13.5839 16.1653 12.6646C16.2013 12.658 16.2405 12.6514 16.2798 12.6482C16.714 12.5913 17.1538 12.5913 17.588 12.6482C17.6272 12.6514 17.6665 12.658 17.7024 12.6646C18.1472 13.5839 18.4715 14.5572 18.6672 15.5601Z" fill="#C896EF"/>
<path d="M21.6368 15.5601H20.0016C19.8576 14.7577 19.642 13.9699 19.3573 13.2063C20.348 13.7264 21.1468 14.5513 21.6368 15.5601Z" fill="#C896EF"/>
<path d="M13.8662 20.1562C14.0101 20.9587 14.2258 21.7465 14.5105 22.5101C13.5197 21.99 12.7209 21.1651 12.231 20.1562H13.8662Z" fill="#C896EF"/>
<path d="M18.6672 20.1562C18.4715 21.1592 18.1472 22.1325 17.7024 23.0518C17.6665 23.0584 17.6272 23.0649 17.588 23.0682C17.1538 23.1251 16.714 23.1251 16.2798 23.0682C16.2405 23.0649 16.2013 23.0584 16.1653 23.0518C15.7206 22.1325 15.3963 21.1592 15.2005 20.1562H18.6672Z" fill="#C896EF"/>
<path d="M21.6368 20.1562C21.1468 21.1651 20.348 21.99 19.3573 22.5101C19.642 21.7465 19.8576 20.9587 20.0016 20.1562H21.6368Z" fill="#C896EF"/>
<path d="M13.7027 16.8733C13.6765 17.2016 13.6634 17.5299 13.6634 17.8582C13.6634 18.1865 13.6765 18.5148 13.7027 18.8431H11.796C11.6696 18.1926 11.6696 17.5238 11.796 16.8733H13.7027Z" fill="#C896EF"/>
<path d="M18.8961 17.8582C18.8961 18.1963 18.8831 18.5246 18.8536 18.8431H15.0141C14.9847 18.5246 14.9716 18.1963 14.9716 17.8582C14.9716 17.52 14.9847 17.1918 15.0141 16.8733H18.8536C18.8831 17.1918 18.8961 17.52 18.8961 17.8582Z" fill="#C896EF"/>
<path d="M22.1666 17.8582C22.1668 18.1888 22.135 18.5186 22.0717 18.8431H20.1651C20.1912 18.5148 20.2043 18.1865 20.2043 17.8582C20.2043 17.5299 20.1912 17.2016 20.1651 16.8733H22.0717C22.135 17.1978 22.1668 17.5276 22.1666 17.8582Z" fill="#C896EF"/>
<path d="M13.0094 23.1109H5.97136C5.6696 23.1106 5.38027 22.9902 5.16688 22.776C4.9535 22.5618 4.83351 22.2714 4.83325 21.9684V17.5857C4.83464 16.0912 5.4267 14.6582 6.47948 13.6014C7.53226 12.5446 8.95974 11.9503 10.4486 11.9489H12.9538C13.2772 11.9489 13.6001 11.9774 13.9185 12.0343C12.9368 12.546 12.1005 13.2993 11.4877 14.2238C10.875 15.1483 10.506 16.2138 10.4151 17.3204C10.3243 18.4271 10.5147 19.5388 10.9684 20.5515C11.4221 21.5642 12.1243 22.4448 13.0094 23.1109Z" fill="#C896EF"/>
<path d="M12.0282 2.88867H11.3741C9.56792 2.88867 8.10369 4.35849 8.10369 6.17161V6.6962C8.10369 8.50932 9.56792 9.97914 11.3741 9.97914H12.0282C13.8344 9.97914 15.2987 8.50932 15.2987 6.6962V6.17161C15.2987 4.35849 13.8344 2.88867 12.0282 2.88867Z" fill="#C896EF"/>
</g>
<defs>
<clipPath id="clip0_5675_2877">
<rect width="26" height="26" fill="white" transform="translate(0.5)"/>
</clipPath>
</defs>
</svg>
