<svg width="27" height="26" viewBox="0 0 27 26" fill="none" xmlns="http://www.w3.org/2000/svg">
<path fill-rule="evenodd" clip-rule="evenodd" d="M9.4375 7.3125C9.4375 5.06884 11.2563 3.25 13.5 3.25C15.7437 3.25 17.5625 5.06884 17.5625 7.3125C17.5625 9.55616 15.7437 11.375 13.5 11.375C11.2563 11.375 9.4375 9.55616 9.4375 7.3125Z" fill="#C896EF"/>
<path fill-rule="evenodd" clip-rule="evenodd" d="M17.5625 10.5625C17.5625 8.76757 19.0176 7.3125 20.8125 7.3125C22.6074 7.3125 24.0625 8.76757 24.0625 10.5625C24.0625 12.3574 22.6074 13.8125 20.8125 13.8125C19.0176 13.8125 17.5625 12.3574 17.5625 10.5625Z" fill="#C896EF"/>
<path fill-rule="evenodd" clip-rule="evenodd" d="M2.9375 10.5625C2.9375 8.76757 4.39257 7.3125 6.1875 7.3125C7.98243 7.3125 9.4375 8.76757 9.4375 10.5625C9.4375 12.3574 7.98243 13.8125 6.1875 13.8125C4.39257 13.8125 2.9375 12.3574 2.9375 10.5625Z" fill="#C896EF"/>
<path fill-rule="evenodd" clip-rule="evenodd" d="M7.33568 16.3773C8.63349 14.3481 10.909 13 13.5 13C16.0913 13 18.3671 14.3484 19.6648 16.3781C20.562 17.7812 20.9501 19.4731 20.768 21.1228C20.7396 21.3805 20.5898 21.6093 20.3648 21.7383C18.3419 22.8991 15.9972 23.5625 13.5 23.5625C11.0028 23.5625 8.65814 22.8991 6.63518 21.7383C6.41022 21.6093 6.26041 21.3805 6.23195 21.1228C6.04985 19.4728 6.43819 17.7806 7.33568 16.3773Z" fill="#C896EF"/>
<path d="M6.00581 15.4415C5.99276 15.4615 5.97979 15.4816 5.96691 15.5018C4.92099 17.1371 4.44234 19.0847 4.58927 21.0048C3.93056 20.9047 3.29142 20.7438 2.67796 20.5277L2.55343 20.4839C2.32624 20.4039 2.1675 20.1975 2.14839 19.9574L2.13792 19.8258C2.12935 19.7182 2.125 19.6095 2.125 19.5C2.125 17.3172 3.84647 15.5365 6.00581 15.4415Z" fill="#C896EF"/>
<path d="M22.4111 21.0047C22.558 19.0851 22.0796 17.1379 21.0341 15.5027C21.021 15.4822 21.0078 15.4618 20.9946 15.4415C23.1537 15.5367 24.875 17.3174 24.875 19.5C24.875 19.6095 24.8706 19.7182 24.8621 19.8258L24.8516 19.9574C24.8325 20.1975 24.6738 20.4039 24.4466 20.4839L24.322 20.5277C23.7087 20.7437 23.0697 20.9046 22.4111 21.0047Z" fill="#C896EF"/>
</svg>
