<svg width="27" height="26" viewBox="0 0 27 26" fill="none" xmlns="http://www.w3.org/2000/svg">
<path d="M15.971 10.9204C17.661 10.9204 18.701 8.45039 18.701 6.89039C18.701 5.59039 18.051 4.03039 16.751 4.03039C15.061 4.03039 14.021 6.50039 14.021 8.06039C14.021 9.36039 14.671 10.9204 15.971 10.9204ZM11.031 10.9204C12.331 10.9204 12.981 9.36039 12.981 8.06039C12.981 6.37039 11.941 3.90039 10.251 3.90039C8.95102 3.90039 8.30102 5.46039 8.30102 6.76039C8.17102 8.45039 9.21102 10.9204 11.031 10.9204ZM20.651 9.62039C18.961 9.62039 17.791 11.9604 17.791 13.6504C17.791 14.8204 18.311 15.9904 19.481 15.9904C21.171 15.9904 22.341 13.6504 22.341 11.9604C22.341 10.7904 21.691 9.62039 20.651 9.62039ZM9.34102 13.6504C9.34102 11.9604 8.04102 9.62039 6.48102 9.62039C5.31102 9.62039 4.79102 10.7904 4.79102 11.9604C4.79102 13.6504 6.09102 15.9904 7.65102 15.9904C8.82102 15.9904 9.34102 14.8204 9.34102 13.6504ZM13.501 13.3904C10.901 13.3904 7.39102 17.5504 7.39102 20.4104C7.39102 21.7104 8.30102 22.1004 9.34102 22.1004C10.901 22.1004 12.071 21.0604 13.501 21.0604C14.801 21.0604 15.971 22.1004 17.401 22.1004C18.441 22.1004 19.611 21.8404 19.611 20.4104C19.611 17.5504 16.101 13.3904 13.501 13.3904Z" fill="#C896EF"/>
</svg>
