<svg width="27" height="26" viewBox="0 0 27 26" fill="none" xmlns="http://www.w3.org/2000/svg">
<path d="M21.625 2.4375H7.8125C6.95055 2.4375 6.1239 2.77991 5.5144 3.3894C4.90491 3.9989 4.5625 4.82555 4.5625 5.6875V22.75C4.5625 22.9655 4.6481 23.1722 4.80048 23.3245C4.95285 23.4769 5.15951 23.5625 5.375 23.5625H20C20.2155 23.5625 20.4222 23.4769 20.5745 23.3245C20.7269 23.1722 20.8125 22.9655 20.8125 22.75C20.8125 22.5345 20.7269 22.3278 20.5745 22.1755C20.4222 22.0231 20.2155 21.9375 20 21.9375H6.1875C6.1875 21.5065 6.3587 21.0932 6.66345 20.7885C6.9682 20.4837 7.38152 20.3125 7.8125 20.3125H21.625C21.8405 20.3125 22.0472 20.2269 22.1995 20.0745C22.3519 19.9222 22.4375 19.7155 22.4375 19.5V3.25C22.4375 3.03451 22.3519 2.82785 22.1995 2.67548C22.0472 2.5231 21.8405 2.4375 21.625 2.4375ZM19.1875 12.1875L16.5865 10.2375C16.5162 10.1848 16.4306 10.1562 16.3427 10.1562C16.2548 10.1562 16.1693 10.1848 16.099 10.2375L13.5 12.1875V4.0625H19.1875V12.1875Z" fill="#C896EF"/>
</svg>
