<svg width="27" height="26" viewBox="0 0 27 26" fill="none" xmlns="http://www.w3.org/2000/svg">
<path d="M17.075 13.8938C16.0829 13.8938 15.2875 14.6892 15.2875 15.6813V18.3625H14.3938C13.5 18.3625 12.6062 18.291 11.9806 17.6743L8.61119 14.3138C7.78 13.4737 6.64494 13 5.45625 13H4.5625V14.7875H5.45625C6.17125 14.7875 6.8505 15.0735 7.351 15.574L10.7204 18.9434C13.2498 21.4906 14.3938 21.9375 17.075 21.9375H18.8625C20.8377 21.9375 22.4375 20.3377 22.4375 18.3625V15.6813C22.4375 14.6892 21.6421 13.8938 20.65 13.8938H17.075ZM15.2875 8.71H13.9469C13.4963 8.67633 13.0753 8.47321 12.7685 8.14154C12.4617 7.80988 12.292 7.3743 12.2934 6.9225C12.3113 6.04662 13.0531 5.34056 13.9111 5.35844H13.9469V4.0625C13.1528 4.0625 12.3912 4.37795 11.8298 4.93944C11.2683 5.50094 10.9528 6.26249 10.9528 7.05656C10.9528 7.85064 11.2683 8.61219 11.8298 9.17368C12.3912 9.73518 13.1528 10.0506 13.9469 10.0506H15.2875C16.2438 10.0149 17.0393 10.7656 17.075 11.713V13H18.4156V11.5342C18.3993 11.1461 18.3066 10.765 18.1426 10.4128C17.9787 10.0606 17.7469 9.74423 17.4604 9.48183C17.1739 9.21944 16.8384 9.01619 16.4732 8.88374C16.108 8.75129 15.7203 8.69225 15.3322 8.71H15.2875ZM20.65 10.998V13H19.3094V10.9444C19.3094 8.97812 17.7096 7.36937 15.7344 7.36937V6.02875C15.9775 6.02684 16.2173 5.97176 16.4369 5.86736C16.6565 5.76297 16.8506 5.6118 17.0056 5.42444C17.1606 5.23709 17.2727 5.0181 17.3341 4.78283C17.3955 4.54755 17.4047 4.3017 17.361 4.0625H18.6748C18.7642 4.95625 18.4871 5.85 17.8079 6.50244H17.8347C19.5596 7.33363 20.65 9.08538 20.65 10.998Z" fill="#C896EF"/>
</svg>
