<svg width="27" height="26" viewBox="0 0 27 26" fill="none" xmlns="http://www.w3.org/2000/svg">
<path d="M18.8159 3.65C18.8159 4.56127 18.0854 5.3 17.1843 5.3C16.2832 5.3 15.5527 4.56127 15.5527 3.65C15.5527 2.73873 16.2832 2 17.1843 2C18.0854 2 18.8159 2.73873 18.8159 3.65Z" fill="#C896EF"/>
<path fill-rule="evenodd" clip-rule="evenodd" d="M17.1843 4.2C17.4846 4.2 17.7281 3.95375 17.7281 3.65C17.7281 3.34625 17.4846 3.1 17.1843 3.1C16.884 3.1 16.6404 3.34625 16.6404 3.65C16.6404 3.95375 16.884 4.2 17.1843 4.2ZM17.1843 5.3C18.0854 5.3 18.8159 4.56127 18.8159 3.65C18.8159 2.73873 18.0854 2 17.1843 2C16.2832 2 15.5527 2.73873 15.5527 3.65C15.5527 4.56127 16.2832 5.3 17.1843 5.3Z" fill="#C896EF"/>
<path d="M2.5 2.55C2.5 2.24624 2.74624 2 3.05 2H7.38863C7.69238 2 7.93862 2.24624 7.93862 2.55C7.93862 2.85376 7.69238 3.1 7.38862 3.1H3.05C2.74624 3.1 2.5 2.85376 2.5 2.55Z" fill="#C896EF"/>
<path d="M5.21931 2C5.51968 2 5.76318 2.2435 5.76318 2.54386V23.4561C5.76318 23.7565 5.51968 24 5.21931 24C4.91895 24 4.67545 23.7565 4.67545 23.4561V2.54386C4.67545 2.2435 4.91895 2 5.21931 2Z" fill="#C896EF"/>
<path d="M2.5 23.45C2.5 23.1462 2.74624 22.9 3.05 22.9H7.38863C7.69238 22.9 7.93862 23.1462 7.93862 23.45C7.93862 23.7538 7.69238 24 7.38863 24H3.05C2.74624 24 2.5 23.7538 2.5 23.45Z" fill="#C896EF"/>
<path d="M4.67545 19.05C4.67545 18.7462 4.92169 18.5 5.22545 18.5H7.38863C7.69238 18.5 7.93862 18.7462 7.93862 19.05C7.93862 19.3538 7.69238 19.6 7.38863 19.6H5.22545C4.92169 19.6 4.67545 19.3538 4.67545 19.05Z" fill="#C896EF"/>
<path d="M4.67545 15.75C4.67545 15.4462 4.92169 15.2 5.22545 15.2H7.38862C7.69238 15.2 7.93862 15.4462 7.93862 15.75C7.93862 16.0538 7.69238 16.3 7.38862 16.3H5.22545C4.92169 16.3 4.67545 16.0538 4.67545 15.75Z" fill="#C896EF"/>
<path d="M4.67545 12.45C4.67545 12.1462 4.92169 11.9 5.22545 11.9H7.38862C7.69238 11.9 7.93862 12.1462 7.93862 12.45C7.93862 12.7538 7.69238 13 7.38862 13H5.22545C4.92169 13 4.67545 12.7538 4.67545 12.45Z" fill="#C896EF"/>
<path d="M4.67545 9.15C4.67545 8.84624 4.92169 8.6 5.22545 8.6H7.38862C7.69238 8.6 7.93862 8.84624 7.93862 9.15C7.93862 9.45376 7.69238 9.7 7.38862 9.7H5.22545C4.92169 9.7 4.67545 9.45376 4.67545 9.15Z" fill="#C896EF"/>
<path d="M4.67545 5.85C4.67545 5.54624 4.92169 5.3 5.22545 5.3H7.38862C7.69238 5.3 7.93862 5.54624 7.93862 5.85C7.93862 6.15376 7.69238 6.4 7.38862 6.4H5.22545C4.92169 6.4 4.67545 6.15376 4.67545 5.85Z" fill="#C896EF"/>
<path fill-rule="evenodd" clip-rule="evenodd" d="M14.4649 9.60001C14.4649 9.04772 14.9126 8.6 15.4649 8.6H18.9035C19.4558 8.6 19.9035 9.04771 19.9035 9.59999L19.9036 22.9C19.9036 23.5075 19.4166 24 18.8159 24C18.2151 24 17.7281 23.5075 17.7281 22.9V15.7439C17.7281 15.4435 17.4847 15.2 17.1843 15.2C16.8839 15.2 16.6404 15.4435 16.6404 15.7439V22.9C16.6404 23.5075 16.1535 24 15.5527 24C14.9519 24 14.465 23.5075 14.465 22.9L14.4649 9.60001Z" fill="#C896EF"/>
<path fill-rule="evenodd" clip-rule="evenodd" d="M17.5662 7.5H16.8024C16.4924 7.5 16.1863 7.53496 15.889 7.60261C15.5845 7.67191 15.7295 8.05 16.0418 8.05H18.3267C18.639 8.05 18.7841 7.67191 18.4795 7.60261C18.1823 7.53496 17.8762 7.5 17.5662 7.5ZM10.0712 11.337L12.9013 8.15703C13.8966 7.03863 15.3146 6.4 16.8024 6.4H17.5662C19.054 6.4 20.4719 7.03863 21.4673 8.15702L24.2974 11.337C24.5782 11.6526 24.5657 12.1353 24.2687 12.4356C23.9605 12.7473 23.4608 12.7473 23.1525 12.4356L21.0186 10.2776C20.3046 9.55563 19.3363 9.15 18.3267 9.15H16.0418C15.0322 9.15 14.0639 9.55563 13.3499 10.2776L11.216 12.4356C10.9078 12.7473 10.408 12.7473 10.0998 12.4356C9.80291 12.1353 9.79036 11.6526 10.0712 11.337Z" fill="#C896EF"/>
<path d="M17.5662 6.4H16.8024C15.3146 6.4 13.8966 7.03863 12.9013 8.15703L10.0712 11.337C9.79036 11.6526 9.80291 12.1353 10.0998 12.4356C10.408 12.7473 10.9078 12.7473 11.216 12.4356L13.3499 10.2776C14.0639 9.55563 15.0322 9.15 16.0418 9.15H18.3267C19.3363 9.15 20.3046 9.55563 21.0186 10.2776L23.1525 12.4356C23.4608 12.7473 23.9605 12.7473 24.2687 12.4356C24.5657 12.1353 24.5782 11.6526 24.2974 11.337L21.4673 8.15702C20.4719 7.03863 19.054 6.4 17.5662 6.4Z" fill="#C896EF"/>
</svg>
