<svg width="20" height="21" viewBox="0 0 20 21" fill="none" xmlns="http://www.w3.org/2000/svg">
<path id="Vector" d="M12.8571 15.5817C14.7517 15.357 16.5786 14.9116 18.3114 14.2719C16.8746 12.677 16 10.5656 16 8.25V7.54919C16.0002 7.53281 16.0002 7.51641 16.0002 7.5C16.0002 4.18629 13.314 1.5 10.0002 1.5C6.68654 1.5 4.00024 4.18629 4.00024 7.5L4.00005 8.25C4.00005 10.5656 3.12552 12.677 1.68872 14.2719C3.42165 14.9116 5.24868 15.357 7.14338 15.5818M12.8571 15.5817C11.9202 15.6928 10.9668 15.75 10 15.75C9.03341 15.75 8.08013 15.6929 7.14338 15.5818M12.8571 15.5817C12.95 15.8711 13.0002 16.1797 13.0002 16.5C13.0002 18.1569 11.6571 19.5 10.0002 19.5C8.34339 19.5 7.00024 18.1569 7.00024 16.5C7.00024 16.1797 7.05044 15.8712 7.14338 15.5818" stroke="#C896EF" stroke-width="1.5" stroke-linecap="round" stroke-linejoin="round"/>
</svg>
