<svg width="24" height="25" viewBox="0 0 24 25" fill="none" xmlns="http://www.w3.org/2000/svg">
<g clip-path="url(#clip0_6978_64968)">
<path d="M9 15.5L15 9.5" stroke="#5F4F7F" stroke-width="1.5" stroke-linecap="round" stroke-linejoin="round"/>
<path d="M11 6.50031L11.463 5.96431C12.4008 5.02663 13.6727 4.49991 14.9989 4.5C16.325 4.50009 17.5968 5.027 18.5345 5.96481C19.4722 6.90261 19.9989 8.1745 19.9988 9.50066C19.9987 10.8268 19.4718 12.0986 18.534 13.0363L18 13.5003" stroke="#5F4F7F" stroke-width="1.5" stroke-linecap="round" stroke-linejoin="round"/>
<path d="M12.9999 18.5L12.6029 19.034C11.6541 19.9722 10.3737 20.4984 9.0394 20.4984C7.70511 20.4984 6.42465 19.9722 5.4759 19.034C5.00825 18.5716 4.63699 18.021 4.38361 17.4141C4.13023 16.8073 3.99976 16.1561 3.99976 15.4985C3.99976 14.8408 4.13023 14.1897 4.38361 13.5829C4.63699 12.976 5.00825 12.4254 5.4759 11.963L5.9999 11.5" stroke="#5F4F7F" stroke-width="1.5" stroke-linecap="round" stroke-linejoin="round"/>
</g>
<defs>
<clipPath id="clip0_6978_64968">
<rect width="24" height="24" fill="white" transform="translate(0 0.5)"/>
</clipPath>
</defs>
</svg>
