<svg width="24" height="25" viewBox="0 0 24 25" fill="none" xmlns="http://www.w3.org/2000/svg">
<g id="mdi:find-love">
<path id="Vector" d="M19.3 15.4C19.7 14.7 20 13.9 20 13C20 10.5 18 8.5 15.5 8.5C13 8.5 11 10.5 11 13C11 15.5 13 17.5 15.5 17.5C16.4 17.5 17.2 17.2 17.9 16.8L20.1 19C20.4866 19.3866 21.1134 19.3866 21.5 19C21.8866 18.6134 21.8866 17.9866 21.5 17.6L19.3 15.4ZM15.5 15.5C14.1 15.5 13 14.4 13 13C13 11.6 14.1 10.5 15.5 10.5C16.9 10.5 18 11.6 18 13C18 14.4 16.9 15.5 15.5 15.5ZM14.7 19.4C14.3 19.8 13.9 20.1 13.5 20.5L12 21.8L10.5 20.5C5.4 15.9 2 12.8 2 9C2 5.9 4.4 3.5 7.5 3.5C9.2 3.5 10.9 4.3 12 5.6C13.1 4.3 14.8 3.5 16.5 3.5C19.6 3.5 22 5.9 22 9C22 9.7 21.9 10.3 21.7 11C20.8 8.4 18.4 6.5 15.5 6.5C11.9 6.5 9 9.4 9 13C9 16.3 11.5 19 14.7 19.4Z" fill="#5F4F7F"/>
</g>
</svg>
