<svg width="24" height="25" viewBox="0 0 24 25" fill="none" xmlns="http://www.w3.org/2000/svg">
<path d="M11.0002 16.3757C11.0002 16.0775 11.1187 15.7916 11.3295 15.5807C11.5404 15.3699 11.8264 15.2514 12.1245 15.2514C12.4227 15.2514 12.7087 15.3699 12.9195 15.5807C13.1304 15.7916 13.2488 16.0775 13.2488 16.3757C13.2488 16.6739 13.1304 16.9599 12.9195 17.1707C12.7087 17.3815 12.4227 17.5 12.1245 17.5C11.8264 17.5 11.5404 17.3815 11.3295 17.1707C11.1187 16.9599 11.0002 16.6739 11.0002 16.3757ZM11.1115 9.6243C11.0966 9.48246 11.1116 9.33905 11.1556 9.20339C11.1997 9.06773 11.2717 8.94284 11.3671 8.83683C11.4625 8.73081 11.5792 8.64604 11.7095 8.58801C11.8398 8.52999 11.9808 8.5 12.1234 8.5C12.266 8.5 12.4071 8.52999 12.5374 8.58801C12.6677 8.64604 12.7843 8.73081 12.8797 8.83683C12.9751 8.94284 13.0472 9.06773 13.0912 9.20339C13.1352 9.33905 13.1503 9.48246 13.1353 9.6243L12.7418 13.5672C12.7258 13.7201 12.6538 13.8616 12.5396 13.9645C12.4254 14.0673 12.2771 14.1243 12.1234 14.1243C11.9697 14.1243 11.8215 14.0673 11.7073 13.9645C11.5931 13.8616 11.521 13.7201 11.5051 13.5672L11.1115 9.6243Z" fill="#D75048"/>
<path d="M14.5574 6.3265L13.5212 5.2644L14.3256 4.47907L15.0254 5.19577L16.0268 5.18339C16.4602 5.17826 16.8903 5.25985 17.2918 5.42336C17.6932 5.58688 18.058 5.82901 18.3645 6.13553C18.671 6.44204 18.9131 6.80675 19.0766 7.20821C19.2402 7.60967 19.3217 8.03977 19.3166 8.47322L19.3054 9.47457L20.0209 10.1744C20.3309 10.4772 20.5771 10.839 20.7453 11.2384C20.9134 11.6377 21 12.0667 21 12.5C21 12.9333 20.9134 13.3623 20.7453 13.7617C20.5771 14.161 20.3309 14.5228 20.0209 14.8256L19.3042 15.5254L19.3166 16.5268C19.3217 16.9602 19.2402 17.3903 19.0766 17.7918C18.9131 18.1932 18.671 18.558 18.3645 18.8645C18.058 19.171 17.6932 19.4131 17.2918 19.5766C16.8903 19.7402 16.4602 19.8217 16.0268 19.8166L15.0254 19.8054L14.3256 20.5209C14.0228 20.8309 13.661 21.0771 13.2617 21.2453C12.8623 21.4134 12.4333 21.5 12 21.5C11.5667 21.5 11.1377 21.4134 10.7384 21.2453C10.339 21.0771 9.97724 20.8309 9.67439 20.5209L8.97457 19.8042L7.97322 19.8166C7.53977 19.8217 7.10967 19.7402 6.70821 19.5766C6.30675 19.4131 5.94204 19.171 5.63553 18.8645C5.32901 18.558 5.08688 18.1932 4.92336 17.7918C4.75985 17.3903 4.67826 16.9602 4.68339 16.5268L4.69464 15.5254L3.97907 14.8256C3.66914 14.5228 3.42288 14.161 3.25475 13.7617C3.08661 13.3623 3 12.9333 3 12.5C3 12.0667 3.08661 11.6377 3.25475 11.2384C3.42288 10.839 3.66914 10.4772 3.97907 10.1744L4.69577 9.47457L4.68339 8.47322C4.67826 8.03977 4.75985 7.60967 4.92336 7.20821C5.08688 6.80675 5.32901 6.44204 5.63553 6.13553C5.94204 5.82901 6.30675 5.58688 6.70821 5.42336C7.10967 5.25985 7.53977 5.17826 7.97322 5.18339L8.97457 5.19464L9.67439 4.47907C9.97724 4.16914 10.339 3.92288 10.7384 3.75475C11.1377 3.58661 11.5667 3.5 12 3.5C12.4333 3.5 12.8623 3.58661 13.2617 3.75475C13.661 3.92288 14.0228 4.16914 14.3256 4.47907L13.5212 5.2644C13.3231 5.06164 13.0865 4.90052 12.8253 4.79052C12.564 4.68051 12.2834 4.62385 12 4.62385C11.7166 4.62385 11.436 4.68051 11.1747 4.79052C10.9135 4.90052 10.6769 5.06164 10.4788 5.2644L9.44374 6.3265L7.95859 6.3085C7.67526 6.30533 7.39416 6.35882 7.1318 6.46582C6.86943 6.57282 6.63109 6.73118 6.43079 6.93159C6.23049 7.132 6.07226 7.37042 5.96539 7.63284C5.85853 7.89526 5.80519 8.17639 5.8085 8.45972L5.8265 9.94262L4.7644 10.9788C4.56164 11.1769 4.40052 11.4135 4.29052 11.6747C4.18051 11.936 4.12385 12.2166 4.12385 12.5C4.12385 12.7834 4.18051 13.064 4.29052 13.3253C4.40052 13.5865 4.56164 13.8231 4.7644 14.0212L5.8265 15.0563L5.8085 16.5414C5.80533 16.8247 5.85882 17.1058 5.96582 17.3682C6.07282 17.6306 6.23118 17.8689 6.43159 18.0692C6.632 18.2695 6.87042 18.4277 7.13284 18.5346C7.39526 18.6415 7.67639 18.6948 7.95972 18.6915L9.44262 18.6735L10.4788 19.7356C10.6769 19.9384 10.9135 20.0995 11.1747 20.2095C11.436 20.3195 11.7166 20.3762 12 20.3762C12.2834 20.3762 12.564 20.3195 12.8253 20.2095C13.0865 20.0995 13.3231 19.9384 13.5212 19.7356L14.5563 18.6735L16.0414 18.6915C16.3247 18.6947 16.6058 18.6412 16.8682 18.5342C17.1306 18.4272 17.3689 18.2688 17.5692 18.0684C17.7695 17.868 17.9277 17.6296 18.0346 17.3672C18.1415 17.1047 18.1948 16.8236 18.1915 16.5403L18.1735 15.0574L19.2356 14.0212C19.4384 13.8231 19.5995 13.5865 19.7095 13.3253C19.8195 13.064 19.8762 12.7834 19.8762 12.5C19.8762 12.2166 19.8195 11.936 19.7095 11.6747C19.5995 11.4135 19.4384 11.1769 19.2356 10.9788L18.1735 9.94374L18.1915 8.45859C18.1947 8.17526 18.1412 7.89416 18.0342 7.6318C17.9272 7.36943 17.7688 7.13109 17.5684 6.93079C17.368 6.73049 17.1296 6.57226 16.8672 6.46539C16.6047 6.35853 16.3236 6.30519 16.0403 6.3085L14.5574 6.3265Z" fill="#D75048"/>
<path d="M13.5212 5.2644L14.5574 6.3265L16.0403 6.3085C16.3236 6.30519 16.6047 6.35853 16.8672 6.46539C17.1296 6.57226 17.368 6.73049 17.5684 6.93079C17.7688 7.13109 17.9272 7.36943 18.0342 7.6318C18.1412 7.89416 18.1947 8.17526 18.1915 8.45859L18.1735 9.94374L19.2356 10.9788C19.4384 11.1769 19.5995 11.4135 19.7095 11.6747C19.8195 11.936 19.8762 12.2166 19.8762 12.5C19.8762 12.7834 19.8195 13.064 19.7095 13.3253C19.5995 13.5865 19.4384 13.8231 19.2356 14.0212L18.1735 15.0574L18.1915 16.5403C18.1948 16.8236 18.1415 17.1047 18.0346 17.3672C17.9277 17.6296 17.7695 17.868 17.5692 18.0684C17.3689 18.2688 17.1306 18.4272 16.8682 18.5342C16.6058 18.6412 16.3247 18.6947 16.0414 18.6915L14.5563 18.6735L13.5212 19.7356C13.3231 19.9384 13.0865 20.0995 12.8253 20.2095C12.564 20.3195 12.2834 20.3762 12 20.3762C11.7166 20.3762 11.436 20.3195 11.1747 20.2095C10.9135 20.0995 10.6769 19.9384 10.4788 19.7356L9.44262 18.6735L7.95972 18.6915C7.67639 18.6948 7.39526 18.6415 7.13284 18.5346C6.87042 18.4277 6.632 18.2695 6.43159 18.0692C6.23118 17.8689 6.07283 17.6306 5.96582 17.3682C5.85882 17.1058 5.80533 16.8247 5.8085 16.5414L5.8265 15.0563L4.7644 14.0212C4.56164 13.8231 4.40052 13.5865 4.29052 13.3253C4.18051 13.064 4.12385 12.7834 4.12385 12.5C4.12385 12.2166 4.18051 11.936 4.29052 11.6747C4.40052 11.4135 4.56164 11.1769 4.7644 10.9788L5.8265 9.94262L5.8085 8.45972C5.80519 8.17639 5.85853 7.89526 5.96539 7.63284C6.07226 7.37042 6.23049 7.132 6.43079 6.93159C6.63109 6.73118 6.86943 6.57283 7.1318 6.46582C7.39416 6.35882 7.67526 6.30533 7.95859 6.3085L9.44374 6.3265L10.4788 5.2644C10.6769 5.06164 10.9135 4.90052 11.1747 4.79052C11.436 4.68051 11.7166 4.62385 12 4.62385C12.2834 4.62385 12.564 4.68051 12.8253 4.79052C13.0865 4.90052 13.3231 5.06164 13.5212 5.2644ZM13.5212 5.2644L14.3256 4.47907M14.3256 4.47907L15.0254 5.19577L16.0268 5.18339C16.4602 5.17826 16.8903 5.25985 17.2918 5.42336C17.6932 5.58688 18.058 5.82901 18.3645 6.13553C18.671 6.44204 18.9131 6.80675 19.0766 7.20821C19.2402 7.60967 19.3217 8.03977 19.3166 8.47322L19.3054 9.47457L20.0209 10.1744C20.3309 10.4772 20.5771 10.839 20.7453 11.2384C20.9134 11.6377 21 12.0667 21 12.5C21 12.9333 20.9134 13.3623 20.7453 13.7617C20.5771 14.161 20.3309 14.5228 20.0209 14.8256L19.3042 15.5254L19.3166 16.5268C19.3217 16.9602 19.2402 17.3903 19.0766 17.7918C18.9131 18.1932 18.671 18.558 18.3645 18.8645C18.058 19.171 17.6932 19.4131 17.2918 19.5766C16.8903 19.7402 16.4602 19.8217 16.0268 19.8166L15.0254 19.8054L14.3256 20.5209C14.0228 20.8309 13.661 21.0771 13.2617 21.2453C12.8623 21.4134 12.4333 21.5 12 21.5C11.5667 21.5 11.1377 21.4134 10.7384 21.2453C10.339 21.0771 9.97724 20.8309 9.67439 20.5209L8.97457 19.8042L7.97322 19.8166C7.53977 19.8217 7.10967 19.7402 6.70821 19.5766C6.30675 19.4131 5.94204 19.171 5.63553 18.8645C5.32901 18.558 5.08688 18.1932 4.92336 17.7918C4.75985 17.3903 4.67826 16.9602 4.68339 16.5268L4.69464 15.5254L3.97907 14.8256C3.66914 14.5228 3.42288 14.161 3.25475 13.7617C3.08661 13.3623 3 12.9333 3 12.5C3 12.0667 3.08661 11.6377 3.25475 11.2384C3.42288 10.839 3.66914 10.4772 3.97907 10.1744L4.69577 9.47457L4.68339 8.47322C4.67826 8.03977 4.75985 7.60967 4.92336 7.20821C5.08688 6.80675 5.32901 6.44204 5.63553 6.13553C5.94204 5.82901 6.30675 5.58688 6.70821 5.42336C7.10967 5.25985 7.53977 5.17826 7.97322 5.18339L8.97457 5.19464L9.67439 4.47907C9.97724 4.16914 10.339 3.92288 10.7384 3.75475C11.1377 3.58661 11.5667 3.5 12 3.5C12.4333 3.5 12.8623 3.58661 13.2617 3.75475C13.661 3.92288 14.0228 4.16914 14.3256 4.47907Z" stroke="#D75048" stroke-width="0.25"/>
</svg>
