<svg width="32" height="33" viewBox="0 0 32 33" fill="none" xmlns="http://www.w3.org/2000/svg">
<rect y="0.5" width="32" height="32" rx="16" fill="#5F4F7F" fill-opacity="0.5"/>
<path fill-rule="evenodd" clip-rule="evenodd" d="M8.72806 13.1953C7.99883 13.3801 7.34777 13.8955 7.12446 14.7062C6.9346 15.3954 6.83337 16.1207 6.83337 16.8686C6.83337 17.6166 6.9346 18.3418 7.12446 19.0311C7.40925 20.0649 8.38981 20.6186 9.34092 20.6186H10.9495L14.6995 24.3686C15.4869 25.1561 16.8334 24.5984 16.8334 23.4847V21.3006L8.72806 13.1953ZM20.7844 18.8877L19.8107 17.914C20.1781 16.644 19.8613 15.2179 18.8603 14.217C18.6162 13.9729 18.6162 13.5772 18.8603 13.3331C19.1044 13.089 19.5001 13.089 19.7442 13.3331C21.246 14.8349 21.5927 17.0544 20.7844 18.8877ZM23.0893 21.1926L22.1784 20.2817C23.6817 17.6557 23.3122 14.2496 21.0698 12.0072C20.8257 11.7631 20.8257 11.3674 21.0698 11.1233C21.3139 10.8792 21.7096 10.8792 21.9537 11.1233C24.6873 13.8569 25.0658 18.0538 23.0893 21.1926ZM16.8334 14.9367L12.9824 11.0857L14.6995 9.36862C15.4869 8.58116 16.8334 9.13888 16.8334 10.2525V14.9367Z" fill="white"/>
<path d="M8 9.5L22 23.5" stroke="white" stroke-width="1.5" stroke-linecap="round" stroke-linejoin="round"/>
</svg>
