<svg width="32" height="33" viewBox="0 0 32 33" fill="none" xmlns="http://www.w3.org/2000/svg">
<g filter="url(#filter0_d_8430_11832)">
<path d="M11.3333 16.1667C11.3333 16.3435 11.2631 16.513 11.1381 16.6381C11.013 16.7631 10.8435 16.8333 10.6667 16.8333C10.4899 16.8333 10.3203 16.7631 10.1953 16.6381C10.0702 16.513 10 16.3435 10 16.1667C10 15.9899 10.0702 15.8203 10.1953 15.6953C10.3203 15.5702 10.4899 15.5 10.6667 15.5C10.8435 15.5 11.013 15.5702 11.1381 15.6953C11.2631 15.8203 11.3333 15.9899 11.3333 16.1667ZM16.6667 16.1667C16.6667 16.3435 16.5964 16.513 16.4714 16.6381C16.3464 16.7631 16.1768 16.8333 16 16.8333C15.8232 16.8333 15.6536 16.7631 15.5286 16.6381C15.4036 16.513 15.3333 16.3435 15.3333 16.1667C15.3333 15.9899 15.4036 15.8203 15.5286 15.6953C15.6536 15.5702 15.8232 15.5 16 15.5C16.1768 15.5 16.3464 15.5702 16.4714 15.6953C16.5964 15.8203 16.6667 15.9899 16.6667 16.1667ZM22 16.1667C22 16.3435 21.9298 16.513 21.8047 16.6381C21.6797 16.7631 21.5101 16.8333 21.3333 16.8333C21.1565 16.8333 20.987 16.7631 20.8619 16.6381C20.7369 16.513 20.6667 16.3435 20.6667 16.1667C20.6667 15.9899 20.7369 15.8203 20.8619 15.6953C20.987 15.5702 21.1565 15.5 21.3333 15.5C21.5101 15.5 21.6797 15.5702 21.8047 15.6953C21.9298 15.8203 22 15.9899 22 16.1667Z" stroke="white" stroke-width="1.5" stroke-linecap="round" stroke-linejoin="round" shape-rendering="crispEdges"/>
</g>
<defs>
<filter id="filter0_d_8430_11832" x="-20.75" y="-15.25" width="73.5" height="62.832" filterUnits="userSpaceOnUse" color-interpolation-filters="sRGB">
<feFlood flood-opacity="0" result="BackgroundImageFix"/>
<feColorMatrix in="SourceAlpha" type="matrix" values="0 0 0 0 0 0 0 0 0 0 0 0 0 0 0 0 0 0 127 0" result="hardAlpha"/>
<feOffset/>
<feGaussianBlur stdDeviation="15"/>
<feComposite in2="hardAlpha" operator="out"/>
<feColorMatrix type="matrix" values="0 0 0 0 0.372549 0 0 0 0 0.309804 0 0 0 0 0.498039 0 0 0 0.5 0"/>
<feBlend mode="normal" in2="BackgroundImageFix" result="effect1_dropShadow_8430_11832"/>
<feBlend mode="normal" in="SourceGraphic" in2="effect1_dropShadow_8430_11832" result="shape"/>
</filter>
</defs>
</svg>
