<svg width="25" height="25" viewBox="0 0 25 25" fill="none" xmlns="http://www.w3.org/2000/svg">
<path d="M21.6181 3.5C20.1823 3.5 18.4968 3.7399 17.3731 4.63951C15.75 5.89897 14.8136 8.71776 12.5038 8.89769C10.1941 8.71776 9.25766 5.95895 7.63457 4.63951C6.5109 3.7399 4.82538 3.55997 3.38958 3.5C2.20347 3.5 2.20347 5.29923 3.38958 5.29923C5.76178 5.29923 7.07273 6.31879 8.38369 8.178C8.75824 8.71776 9.19523 9.19756 9.56979 9.55741C7.50972 10.6369 6.19876 12.916 6.07391 15.195C5.88663 18.7335 9.1328 21.3124 12.4414 21.4923C15.9373 21.6722 18.4968 18.6735 18.8089 15.4949C18.8089 15.4349 18.8713 15.3149 18.8089 15.255V15.0151C18.6216 12.6161 17.2482 10.6969 15.2506 9.73733C15.75 9.31751 16.1246 8.83771 16.5615 8.23797C17.8725 6.37877 19.1834 5.41918 21.5557 5.3592C22.8042 5.29923 22.8042 3.5 21.6181 3.5ZM17.061 15.195C16.7488 21.0125 8.25883 21.0125 7.9467 15.195C7.57214 9.37748 16.7488 9.43746 17.061 15.195Z" fill="#5F4F7F" stroke="#5F4F7F" stroke-width="0.5" stroke-miterlimit="10"/>
</svg>
