<svg width="24" height="24" viewBox="0 0 24 24" fill="none" xmlns="http://www.w3.org/2000/svg">
<g clip-path="url(#clip0_10091_8904)">
<path d="M16.7934 13.5991C16.9849 13.0875 17.082 12.5454 17.0801 11.9991C17.0801 10.7862 16.5983 9.62295 15.7406 8.76528C14.8829 7.90761 13.7197 7.42578 12.5068 7.42578C11.9672 7.42641 11.4321 7.52349 10.9268 7.71245L12.0001 8.81911C12.1633 8.79301 12.3282 8.77964 12.4934 8.77911C13.351 8.77732 14.1745 9.11494 14.7841 9.71824C15.3936 10.3215 15.7397 11.1415 15.7468 11.9991C15.7462 12.1643 15.7328 12.3293 15.7068 12.4924L16.7934 13.5991Z" fill="#5F4F7F"/>
<path d="M22.8603 11.6862C20.6136 7.53286 16.6736 5.01953 12.3136 5.01953C11.1265 5.02232 9.94742 5.21359 8.82031 5.5862L9.89365 6.6662C10.6842 6.46188 11.4971 6.35663 12.3136 6.35286C16.067 6.35286 19.4803 8.4462 21.5136 11.9729C20.7677 13.2813 19.7789 14.4353 18.6003 15.3729L19.547 16.3195C20.911 15.2191 22.0439 13.8597 22.8803 12.3195L23.0536 11.9995L22.8603 11.6862Z" fill="#5F4F7F"/>
<path d="M3.24691 3.85271L6.22025 6.82604C4.34086 8.03612 2.80485 9.70989 1.76025 11.686L1.58691 11.9994L1.76025 12.3194C4.00691 16.4727 7.94691 18.986 12.3069 18.986C14.0087 18.9857 15.6884 18.6005 17.2202 17.8594L20.5536 21.1927L21.7202 20.1927L4.38691 2.85938L3.24691 3.85271ZM9.74691 10.3527L14.1802 14.786C13.6793 15.0961 13.1027 15.2622 12.5136 15.266C12.0855 15.2661 11.6617 15.1814 11.2665 15.017C10.8713 14.8526 10.5125 14.6117 10.2107 14.3081C9.909 14.0045 9.67027 13.6442 9.50829 13.248C9.34631 12.8517 9.26428 12.4274 9.26691 11.9994C9.27443 11.4171 9.44036 10.8478 9.74691 10.3527ZM8.78025 9.38604C8.15654 10.2656 7.8642 11.3376 7.95499 12.412C8.04578 13.4865 8.51385 14.4942 9.27632 15.2566C10.0388 16.0191 11.0465 16.4872 12.1209 16.578C13.1954 16.6688 14.2673 16.3764 15.1469 15.7527L16.2136 16.8194C14.9788 17.3472 13.6498 17.6193 12.3069 17.6194C8.55358 17.6194 5.14025 15.526 3.10691 11.9994C4.08272 10.2715 5.48806 8.82484 7.18691 7.79938L8.78025 9.38604Z" fill="#5F4F7F"/>
</g>
<defs>
<clipPath id="clip0_10091_8904">
<rect width="24" height="24" fill="white"/>
</clipPath>
</defs>
</svg>
