<svg width="24" height="24" viewBox="0 0 24 24" fill="none" xmlns="http://www.w3.org/2000/svg">
<path d="M11 15.8757C11 15.5775 11.1185 15.2916 11.3293 15.0807C11.5401 14.8699 11.8261 14.7514 12.1243 14.7514C12.4225 14.7514 12.7084 14.8699 12.9193 15.0807C13.1301 15.2916 13.2486 15.5775 13.2486 15.8757C13.2486 16.1739 13.1301 16.4599 12.9193 16.6707C12.7084 16.8815 12.4225 17 12.1243 17C11.8261 17 11.5401 16.8815 11.3293 16.6707C11.1185 16.4599 11 16.1739 11 15.8757ZM11.1113 9.1243C11.0963 8.98246 11.1113 8.83905 11.1554 8.70339C11.1994 8.56773 11.2715 8.44284 11.3669 8.33683C11.4623 8.23081 11.5789 8.14604 11.7092 8.08801C11.8395 8.02999 11.9805 8 12.1232 8C12.2658 8 12.4068 8.02999 12.5371 8.08801C12.6674 8.14604 12.7841 8.23081 12.8795 8.33683C12.9749 8.44284 13.0469 8.56773 13.091 8.70339C13.135 8.83905 13.15 8.98246 13.135 9.1243L12.7415 13.0672C12.7255 13.2201 12.6535 13.3616 12.5393 13.4645C12.4251 13.5673 12.2769 13.6243 12.1232 13.6243C11.9695 13.6243 11.8212 13.5673 11.707 13.4645C11.5928 13.3616 11.5208 13.2201 11.5048 13.0672L11.1113 9.1243Z" fill="#D75048"/>
<path d="M14.5574 5.8265L13.5212 4.7644L14.3256 3.97907L15.0254 4.69577L16.0268 4.68339C16.4602 4.67826 16.8903 4.75985 17.2918 4.92336C17.6932 5.08688 18.058 5.32901 18.3645 5.63553C18.671 5.94204 18.9131 6.30675 19.0766 6.70821C19.2402 7.10967 19.3217 7.53977 19.3166 7.97322L19.3054 8.97457L20.0209 9.67439C20.3309 9.97724 20.5771 10.339 20.7453 10.7384C20.9134 11.1377 21 11.5667 21 12C21 12.4333 20.9134 12.8623 20.7453 13.2617C20.5771 13.661 20.3309 14.0228 20.0209 14.3256L19.3042 15.0254L19.3166 16.0268C19.3217 16.4602 19.2402 16.8903 19.0766 17.2918C18.9131 17.6932 18.671 18.058 18.3645 18.3645C18.058 18.671 17.6932 18.9131 17.2918 19.0766C16.8903 19.2402 16.4602 19.3217 16.0268 19.3166L15.0254 19.3054L14.3256 20.0209C14.0228 20.3309 13.661 20.5771 13.2617 20.7453C12.8623 20.9134 12.4333 21 12 21C11.5667 21 11.1377 20.9134 10.7384 20.7453C10.339 20.5771 9.97724 20.3309 9.67439 20.0209L8.97457 19.3042L7.97322 19.3166C7.53977 19.3217 7.10967 19.2402 6.70821 19.0766C6.30675 18.9131 5.94204 18.671 5.63553 18.3645C5.32901 18.058 5.08688 17.6932 4.92336 17.2918C4.75985 16.8903 4.67826 16.4602 4.68339 16.0268L4.69464 15.0254L3.97907 14.3256C3.66914 14.0228 3.42288 13.661 3.25475 13.2617C3.08661 12.8623 3 12.4333 3 12C3 11.5667 3.08661 11.1377 3.25475 10.7384C3.42288 10.339 3.66914 9.97724 3.97907 9.67439L4.69577 8.97457L4.68339 7.97322C4.67826 7.53977 4.75985 7.10967 4.92336 6.70821C5.08688 6.30675 5.32901 5.94204 5.63553 5.63553C5.94204 5.32901 6.30675 5.08688 6.70821 4.92336C7.10967 4.75985 7.53977 4.67826 7.97322 4.68339L8.97457 4.69464L9.67439 3.97907C9.97724 3.66914 10.339 3.42288 10.7384 3.25475C11.1377 3.08661 11.5667 3 12 3C12.4333 3 12.8623 3.08661 13.2617 3.25475C13.661 3.42288 14.0228 3.66914 14.3256 3.97907L13.5212 4.7644C13.3231 4.56164 13.0865 4.40052 12.8253 4.29052C12.564 4.18051 12.2834 4.12385 12 4.12385C11.7166 4.12385 11.436 4.18051 11.1747 4.29052C10.9135 4.40052 10.6769 4.56164 10.4788 4.7644L9.44374 5.8265L7.95859 5.8085C7.67526 5.80533 7.39416 5.85882 7.1318 5.96582C6.86943 6.07282 6.63109 6.23118 6.43079 6.43159C6.23049 6.632 6.07226 6.87042 5.96539 7.13284C5.85853 7.39526 5.80519 7.67639 5.8085 7.95972L5.8265 9.44262L4.7644 10.4788C4.56164 10.6769 4.40052 10.9135 4.29052 11.1747C4.18051 11.436 4.12385 11.7166 4.12385 12C4.12385 12.2834 4.18051 12.564 4.29052 12.8253C4.40052 13.0865 4.56164 13.3231 4.7644 13.5212L5.8265 14.5563L5.8085 16.0414C5.80533 16.3247 5.85882 16.6058 5.96582 16.8682C6.07282 17.1306 6.23118 17.3689 6.43159 17.5692C6.632 17.7695 6.87042 17.9277 7.13284 18.0346C7.39526 18.1415 7.67639 18.1948 7.95972 18.1915L9.44262 18.1735L10.4788 19.2356C10.6769 19.4384 10.9135 19.5995 11.1747 19.7095C11.436 19.8195 11.7166 19.8762 12 19.8762C12.2834 19.8762 12.564 19.8195 12.8253 19.7095C13.0865 19.5995 13.3231 19.4384 13.5212 19.2356L14.5563 18.1735L16.0414 18.1915C16.3247 18.1947 16.6058 18.1412 16.8682 18.0342C17.1306 17.9272 17.3689 17.7688 17.5692 17.5684C17.7695 17.368 17.9277 17.1296 18.0346 16.8672C18.1415 16.6047 18.1948 16.3236 18.1915 16.0403L18.1735 14.5574L19.2356 13.5212C19.4384 13.3231 19.5995 13.0865 19.7095 12.8253C19.8195 12.564 19.8762 12.2834 19.8762 12C19.8762 11.7166 19.8195 11.436 19.7095 11.1747C19.5995 10.9135 19.4384 10.6769 19.2356 10.4788L18.1735 9.44374L18.1915 7.95859C18.1947 7.67526 18.1412 7.39416 18.0342 7.1318C17.9272 6.86943 17.7688 6.63109 17.5684 6.43079C17.368 6.23049 17.1296 6.07226 16.8672 5.96539C16.6047 5.85853 16.3236 5.80519 16.0403 5.8085L14.5574 5.8265Z" fill="#D75048"/>
<path d="M13.5212 4.7644L14.5574 5.8265L16.0403 5.8085C16.3236 5.80519 16.6047 5.85853 16.8672 5.96539C17.1296 6.07226 17.368 6.23049 17.5684 6.43079C17.7688 6.63109 17.9272 6.86943 18.0342 7.1318C18.1412 7.39416 18.1947 7.67526 18.1915 7.95859L18.1735 9.44374L19.2356 10.4788C19.4384 10.6769 19.5995 10.9135 19.7095 11.1747C19.8195 11.436 19.8762 11.7166 19.8762 12C19.8762 12.2834 19.8195 12.564 19.7095 12.8253C19.5995 13.0865 19.4384 13.3231 19.2356 13.5212L18.1735 14.5574L18.1915 16.0403C18.1948 16.3236 18.1415 16.6047 18.0346 16.8672C17.9277 17.1296 17.7695 17.368 17.5692 17.5684C17.3689 17.7688 17.1306 17.9272 16.8682 18.0342C16.6058 18.1412 16.3247 18.1947 16.0414 18.1915L14.5563 18.1735L13.5212 19.2356C13.3231 19.4384 13.0865 19.5995 12.8253 19.7095C12.564 19.8195 12.2834 19.8762 12 19.8762C11.7166 19.8762 11.436 19.8195 11.1747 19.7095C10.9135 19.5995 10.6769 19.4384 10.4788 19.2356L9.44262 18.1735L7.95972 18.1915C7.67639 18.1948 7.39526 18.1415 7.13284 18.0346C6.87042 17.9277 6.632 17.7695 6.43159 17.5692C6.23118 17.3689 6.07283 17.1306 5.96582 16.8682C5.85882 16.6058 5.80533 16.3247 5.8085 16.0414L5.8265 14.5563L4.7644 13.5212C4.56164 13.3231 4.40052 13.0865 4.29052 12.8253C4.18051 12.564 4.12385 12.2834 4.12385 12C4.12385 11.7166 4.18051 11.436 4.29052 11.1747C4.40052 10.9135 4.56164 10.6769 4.7644 10.4788L5.8265 9.44262L5.8085 7.95972C5.80519 7.67639 5.85853 7.39526 5.96539 7.13284C6.07226 6.87042 6.23049 6.632 6.43079 6.43159C6.63109 6.23118 6.86943 6.07283 7.1318 5.96582C7.39416 5.85882 7.67526 5.80533 7.95859 5.8085L9.44374 5.8265L10.4788 4.7644C10.6769 4.56164 10.9135 4.40052 11.1747 4.29052C11.436 4.18051 11.7166 4.12385 12 4.12385C12.2834 4.12385 12.564 4.18051 12.8253 4.29052C13.0865 4.40052 13.3231 4.56164 13.5212 4.7644ZM13.5212 4.7644L14.3256 3.97907M14.3256 3.97907L15.0254 4.69577L16.0268 4.68339C16.4602 4.67826 16.8903 4.75985 17.2918 4.92336C17.6932 5.08688 18.058 5.32901 18.3645 5.63553C18.671 5.94204 18.9131 6.30675 19.0766 6.70821C19.2402 7.10967 19.3217 7.53977 19.3166 7.97322L19.3054 8.97457L20.0209 9.67439C20.3309 9.97724 20.5771 10.339 20.7453 10.7384C20.9134 11.1377 21 11.5667 21 12C21 12.4333 20.9134 12.8623 20.7453 13.2617C20.5771 13.661 20.3309 14.0228 20.0209 14.3256L19.3042 15.0254L19.3166 16.0268C19.3217 16.4602 19.2402 16.8903 19.0766 17.2918C18.9131 17.6932 18.671 18.058 18.3645 18.3645C18.058 18.671 17.6932 18.9131 17.2918 19.0766C16.8903 19.2402 16.4602 19.3217 16.0268 19.3166L15.0254 19.3054L14.3256 20.0209C14.0228 20.3309 13.661 20.5771 13.2617 20.7453C12.8623 20.9134 12.4333 21 12 21C11.5667 21 11.1377 20.9134 10.7384 20.7453C10.339 20.5771 9.97724 20.3309 9.67439 20.0209L8.97457 19.3042L7.97322 19.3166C7.53977 19.3217 7.10967 19.2402 6.70821 19.0766C6.30675 18.9131 5.94204 18.671 5.63553 18.3645C5.32901 18.058 5.08688 17.6932 4.92336 17.2918C4.75985 16.8903 4.67826 16.4602 4.68339 16.0268L4.69464 15.0254L3.97907 14.3256C3.66914 14.0228 3.42288 13.661 3.25475 13.2617C3.08661 12.8623 3 12.4333 3 12C3 11.5667 3.08661 11.1377 3.25475 10.7384C3.42288 10.339 3.66914 9.97724 3.97907 9.67439L4.69577 8.97457L4.68339 7.97322C4.67826 7.53977 4.75985 7.10967 4.92336 6.70821C5.08688 6.30675 5.32901 5.94204 5.63553 5.63553C5.94204 5.32901 6.30675 5.08688 6.70821 4.92336C7.10967 4.75985 7.53977 4.67826 7.97322 4.68339L8.97457 4.69464L9.67439 3.97907C9.97724 3.66914 10.339 3.42288 10.7384 3.25475C11.1377 3.08661 11.5667 3 12 3C12.4333 3 12.8623 3.08661 13.2617 3.25475C13.661 3.42288 14.0228 3.66914 14.3256 3.97907Z" stroke="#D75048" stroke-width="0.25"/>
</svg>
