<svg width="24" height="24" viewBox="0 0 24 24" fill="none" xmlns="http://www.w3.org/2000/svg">
  <path d="M19.2945 5C18.1458 5 16.7974 5.19192 15.8985 5.91161C14.6 6.91918 13.8509 9.17421 12.0031 9.31815C10.1552 9.17421 9.40613 6.96716 8.10766 5.91161C7.20872 5.19192 5.86031 5.04798 4.71166 5C3.76278 5 3.76278 6.43938 4.71166 6.43938C6.60942 6.43938 7.65819 7.25503 8.70695 8.7424C9.0066 9.17421 9.35618 9.55805 9.65583 9.84592C8.00777 10.7096 6.95901 12.5328 6.85913 14.356C6.70931 17.1868 9.30624 19.2499 11.9531 19.3938C14.7498 19.5378 16.7974 17.1388 17.0471 14.5959C17.0471 14.5479 17.0971 14.452 17.0471 14.404V14.2121C16.8973 12.2929 15.7986 10.7575 14.2005 9.98986C14.6 9.65401 14.8996 9.27017 15.2492 8.79038C16.298 7.30301 17.3468 6.53534 19.2445 6.48736C20.2433 6.43938 20.2433 5 19.2945 5ZM15.6488 14.356C15.3991 19.01 8.60707 19.01 8.35736 14.356C8.05772 9.70199 15.3991 9.74997 15.6488 14.356Z" fill="#C896EF" stroke="#C896EF" stroke-width="0.5" stroke-miterlimit="10" />
</svg>