<svg width="18" height="18" viewBox="0 0 18 18" fill="none" xmlns="http://www.w3.org/2000/svg">
<path d="M13.8084 13.5684L11.6934 15.6834" stroke="#5F4F7F" stroke-linecap="round" stroke-linejoin="round"/>
<path d="M13.8084 15.6834L11.6934 13.5684" stroke="#5F4F7F" stroke-linecap="round" stroke-linejoin="round"/>
<path d="M9.11992 8.1525C9.04492 8.145 8.95492 8.145 8.87242 8.1525C7.08742 8.0925 5.66992 6.63 5.66992 4.83C5.66992 2.9925 7.15492 1.5 8.99992 1.5C10.8374 1.5 12.3299 2.9925 12.3299 4.83C12.3224 6.63 10.9049 8.0925 9.11992 8.1525Z" stroke="#5F4F7F" stroke-linecap="round" stroke-linejoin="round"/>
<path d="M8.99961 16.3573C7.63461 16.3573 6.27711 16.0123 5.24211 15.3223C3.42711 14.1073 3.42711 12.1273 5.24211 10.9198C7.30461 9.53977 10.6871 9.53977 12.7496 10.9198" stroke="#5F4F7F" stroke-linecap="round" stroke-linejoin="round"/>
</svg>
