<svg width="18" height="18" viewBox="0 0 18 18" fill="none" xmlns="http://www.w3.org/2000/svg">
<path d="M16.8368 1.44185C16.9421 1.54732 17.0013 1.69029 17.0013 1.83935C17.0013 1.98841 16.9421 2.13138 16.8368 2.23685L11.6408 7.4336C12.2777 8.26376 12.5911 9.29713 12.5227 10.3412C12.4542 11.3853 12.0086 12.3689 11.2688 13.1088L10.6448 13.7329L8.55453 16.8678C8.50841 16.9371 8.4475 16.9952 8.3762 17.0381C8.30489 17.0809 8.22497 17.1075 8.14219 17.1157C8.0594 17.124 7.97582 17.1137 7.89746 17.0858C7.8191 17.0578 7.74792 17.0129 7.68903 16.9541L1.32453 10.5896C1.26576 10.5307 1.22079 10.4595 1.19284 10.3812C1.16489 10.3028 1.15468 10.2192 1.16293 10.1364C1.17118 10.0537 1.19769 9.97374 1.24055 9.90244C1.28341 9.83113 1.34155 9.77022 1.41078 9.7241L4.54578 7.63385L5.16978 7.00985C5.9097 6.27002 6.89332 5.82438 7.93741 5.75595C8.98151 5.68751 10.0149 6.00094 10.845 6.63785L16.0418 1.44185C16.1473 1.33651 16.2902 1.27734 16.4393 1.27734C16.5883 1.27734 16.7313 1.33651 16.8368 1.44185ZM5.70003 8.0711L10.2075 12.5786L10.473 12.3138C11.0593 11.7138 11.3854 10.9067 11.3805 10.0678C11.3756 9.22885 11.0402 8.42567 10.4469 7.83245C9.85371 7.23922 9.05053 6.90379 8.2116 6.8989C7.37266 6.89402 6.56563 7.22007 5.96553 7.80635L5.70003 8.0711ZM4.83303 8.79485L2.60553 10.2798L7.99879 15.6731L9.48379 13.4456L4.83303 8.79485Z" fill="#5F4F7F"/>
</svg>
