<svg width="18" height="18" viewBox="0 0 18 18" fill="none" xmlns="http://www.w3.org/2000/svg">
<path d="M4.58249 13.1258C2.92499 11.5733 1.5 9.36083 1.5 6.51083C1.5 4.19333 3.3675 2.31836 5.67 2.31836C7.035 2.31836 8.2425 2.97835 9 3.99835C9.7575 2.97835 10.9725 2.31836 12.33 2.31836C13.1925 2.31836 13.995 2.58083 14.6625 3.03833" stroke="#5F4F7F" stroke-linecap="round" stroke-linejoin="round"/>
<path d="M16.3056 5.25C16.4331 5.6475 16.5006 6.075 16.5006 6.5175C16.5006 11.7675 11.6406 14.865 9.46561 15.615C9.21061 15.705 8.79061 15.705 8.53561 15.615C8.04811 15.45 7.43312 15.165 6.76562 14.7675" stroke="#5F4F7F" stroke-linecap="round" stroke-linejoin="round"/>
<path d="M16.5 1.5L1.5 16.5" stroke="#5F4F7F" stroke-linecap="round" stroke-linejoin="round"/>
</svg>
