<svg width="24" height="24" viewBox="0 0 24 24" fill="none" xmlns="http://www.w3.org/2000/svg">
<path d="M20.8236 5.30359L21.3435 4.76301L20.8236 5.30359ZM3.09665 5.30359L2.57678 4.76301L3.09665 5.30359ZM21.9203 8.27586L21.1729 8.3381L21.1737 8.34803L21.1748 8.35794L21.9203 8.27586ZM2 8.27586L1.25259 8.21363L1.25 8.24469V8.27586H2ZM6.1873 4.24894L6.24489 4.99672L6.9373 4.9434V4.24894H6.1873ZM7.69326 4.18487H6.94326V4.94899L7.70725 4.93474L7.69326 4.18487ZM17.733 4.24894H16.983V4.9434L17.6754 4.99672L17.733 4.24894ZM16.227 4.18487L16.213 4.93474L16.977 4.94899V4.18487H16.227ZM22 9V9.75H22.8371L22.7455 8.91792L22 9ZM2 9H1.25V9.75H2V9ZM8.44326 2.72414C8.44326 1.88266 7.74248 1.25 6.94028 1.25V2.75C6.9462 2.75 6.94936 2.75105 6.95079 2.75163C6.95264 2.75239 6.95326 2.75308 6.95284 2.75268C6.95241 2.75227 6.95001 2.74981 6.94755 2.74422C6.94483 2.73802 6.94326 2.73063 6.94326 2.72414H8.44326ZM6.94028 1.25C6.13809 1.25 5.4373 1.88266 5.4373 2.72414H6.9373C6.9373 2.73063 6.93574 2.73802 6.93301 2.74422C6.93055 2.74981 6.92815 2.75227 6.92772 2.75268C6.92731 2.75308 6.92792 2.75239 6.92978 2.75163C6.93121 2.75105 6.93437 2.75 6.94028 2.75V1.25ZM18.483 2.72414C18.483 1.88266 17.7822 1.25 16.98 1.25V2.75C16.9859 2.75 16.9891 2.75105 16.9905 2.75163C16.9924 2.75239 16.993 2.75308 16.9925 2.75268C16.9921 2.75227 16.9897 2.74981 16.9873 2.74422C16.9845 2.73802 16.983 2.73063 16.983 2.72414H18.483ZM16.98 1.25C16.1778 1.25 15.477 1.88266 15.477 2.72414H16.977C16.977 2.73063 16.9754 2.73802 16.9727 2.74422C16.9703 2.74981 16.9679 2.75227 16.9674 2.75268C16.967 2.75308 16.9676 2.75239 16.9695 2.75163C16.9709 2.75105 16.9741 2.75 16.98 2.75V1.25ZM9.95219 4.92241H13.9681V3.42241H9.95219V4.92241ZM22.6677 8.21363C22.5471 6.76592 22.2401 5.62524 21.3435 4.76301L20.3037 5.84417C20.8011 6.32245 21.062 7.0064 21.1729 8.3381L22.6677 8.21363ZM2.57678 4.76301C1.6802 5.62524 1.37313 6.76592 1.25259 8.21363L2.74741 8.3381C2.8583 7.0064 3.1192 6.32245 3.61653 5.84417L2.57678 4.76301ZM6.12972 3.50115C4.63683 3.61612 3.46698 3.9069 2.57678 4.76301L3.61653 5.84417C4.12024 5.35976 4.84769 5.10432 6.24489 4.99672L6.12972 3.50115ZM5.4373 2.72414V4.24894H6.9373V2.72414H5.4373ZM9.95219 3.42241C9.11179 3.42241 8.35559 3.42239 7.67927 3.435L7.70725 4.93474C8.36675 4.92244 9.10787 4.92241 9.95219 4.92241V3.42241ZM8.44326 4.18487V2.72414H6.94326V4.18487H8.44326ZM17.6754 4.99672C19.0726 5.10432 19.8 5.35976 20.3037 5.84417L21.3435 4.76301C20.4533 3.9069 19.2834 3.61612 17.7906 3.50115L17.6754 4.99672ZM18.483 4.24894V2.72414H16.983V4.24894H18.483ZM13.9681 4.92241C14.8124 4.92241 15.5535 4.92244 16.213 4.93474L16.241 3.435C15.5647 3.42239 14.8085 3.42241 13.9681 3.42241V4.92241ZM15.477 2.72414V4.18487H16.977V2.72414H15.477ZM21.1748 8.35794L21.2545 9.08208L22.7455 8.91792L22.6658 8.19378L21.1748 8.35794ZM2.75 9V8.27586H1.25V9H2.75ZM22 8.25H2.92456V9.75H22V8.25ZM2.92456 8.25H2V9.75H2.92456V8.25Z" fill="#5F4F7F"/>
<path d="M3.17159 20.8285L3.70192 20.2982H3.70192L3.17159 20.8285ZM20.8284 20.8285L20.2981 20.2982V20.2982L20.8284 20.8285ZM2.00966 9V8.25H1.27406L1.2598 8.98546L2.00966 9ZM21.9839 9L22.7337 8.98546L22.7194 8.25H21.9839V9ZM21.25 12.0001V14.0001H22.75V12.0001H21.25ZM14 21.2501H10V22.7501H14V21.2501ZM2.75001 14.0001V12.0001H1.25001V14.0001H2.75001ZM10 21.2501C8.09319 21.2501 6.73853 21.2485 5.71086 21.1103C4.70477 20.9751 4.12513 20.7214 3.70192 20.2982L2.64126 21.3588C3.38962 22.1072 4.33857 22.4393 5.51099 22.5969C6.66184 22.7517 8.1356 22.7501 10 22.7501V21.2501ZM1.25001 14.0001C1.25001 15.8645 1.24842 17.3383 1.40315 18.4891C1.56078 19.6615 1.89289 20.6105 2.64126 21.3588L3.70192 20.2982C3.27871 19.875 3.02504 19.2953 2.88977 18.2892C2.75161 17.2616 2.75001 15.9069 2.75001 14.0001H1.25001ZM21.25 14.0001C21.25 15.9069 21.2484 17.2616 21.1103 18.2892C20.975 19.2953 20.7213 19.875 20.2981 20.2982L21.3588 21.3588C22.1071 20.6105 22.4393 19.6615 22.5969 18.4891C22.7516 17.3383 22.75 15.8645 22.75 14.0001H21.25ZM14 22.7501C15.8644 22.7501 17.3382 22.7517 18.489 22.5969C19.6615 22.4393 20.6104 22.1072 21.3588 21.3588L20.2981 20.2982C19.8749 20.7214 19.2953 20.9751 18.2892 21.1103C17.2615 21.2485 15.9068 21.2501 14 21.2501V22.7501ZM1.2598 8.98546C1.24671 9.66031 1.25001 11.168 1.25001 12.0001H2.75001C2.75001 11.1541 2.7468 9.67022 2.75951 9.01454L1.2598 8.98546ZM22.75 12.0001C22.75 11.1631 22.7468 9.65946 22.7337 8.98546L21.234 9.01454C21.2467 9.67108 21.25 11.159 21.25 12.0001H22.75ZM2.00966 9.75H21.9839V8.25H2.00966V9.75Z" fill="#5F4F7F"/>
<path d="M18 17C18 17.5523 17.5523 18 17 18C16.4477 18 16 17.5523 16 17C16 16.4477 16.4477 16 17 16C17.5523 16 18 16.4477 18 17Z" fill="#5F4F7F"/>
<path d="M18 13C18 13.5523 17.5523 14 17 14C16.4477 14 16 13.5523 16 13C16 12.4477 16.4477 12 17 12C17.5523 12 18 12.4477 18 13Z" fill="#5F4F7F"/>
<path d="M13 17C13 17.5523 12.5523 18 12 18C11.4477 18 11 17.5523 11 17C11 16.4477 11.4477 16 12 16C12.5523 16 13 16.4477 13 17Z" fill="#5F4F7F"/>
<path d="M13 13C13 13.5523 12.5523 14 12 14C11.4477 14 11 13.5523 11 13C11 12.4477 11.4477 12 12 12C12.5523 12 13 12.4477 13 13Z" fill="#5F4F7F"/>
<path d="M8 17C8 17.5523 7.55228 18 7 18C6.44772 18 6 17.5523 6 17C6 16.4477 6.44772 16 7 16C7.55228 16 8 16.4477 8 17Z" fill="#5F4F7F"/>
<path d="M8 13C8 13.5523 7.55228 14 7 14C6.44772 14 6 13.5523 6 13C6 12.4477 6.44772 12 7 12C7.55228 12 8 12.4477 8 13Z" fill="#5F4F7F"/>
</svg>
