<svg width="24" height="24" viewBox="0 0 24 24" fill="none" xmlns="http://www.w3.org/2000/svg">
<path d="M5.03663 3.82307L5.03666 3.82314L11.0367 1.57314L11.0477 1.569L11.0477 1.56908C11.357 1.45864 11.6755 1.40039 12 1.40039C12.3245 1.40039 12.643 1.45864 12.9523 1.56908L12.9634 1.57306L12.9633 1.57314L18.9633 3.82314L18.9733 3.82689L18.9733 3.82696C19.4903 4.02926 19.9187 4.36045 20.2449 4.80977C20.5811 5.27279 20.7507 5.80245 20.75 6.37539C20.75 6.37579 20.75 6.37619 20.75 6.37659M5.03663 3.82307L12.475 21.8754C14.6583 21.1927 16.4583 19.8387 17.875 17.8134C19.2917 15.7881 20 13.5504 20 11.1004V6.37539L20.75 6.37659M5.03663 3.82307L5.02629 3.82712C4.50991 4.02953 4.08206 4.36076 3.75608 4.80977C3.41994 5.27278 3.25 5.80239 3.25 6.37539V11.1004C3.25 13.705 4.00647 16.0921 5.51042 18.2423C7.00448 20.3782 8.92204 21.8357 11.2564 22.5771C11.4186 22.6461 11.5867 22.6754 11.75 22.6754H12C12.2113 22.6754 12.489 22.6666 12.7173 22.5854M5.03663 3.82307L12.7173 22.5854M20.75 6.37659L20.75 11.1004C20.75 13.7056 19.9936 16.0931 18.4896 18.2433C16.9899 20.3872 15.0636 21.8473 12.7173 22.5854M20.75 6.37659L12.7173 22.5854M12.25 16.0004L12.25 16.0022C12.2502 16.0944 12.2273 16.1375 12.1827 16.1821C12.138 16.2267 12.0941 16.2504 12 16.2504L11.9982 16.2504C11.906 16.2506 11.8629 16.2276 11.8183 16.1831C11.7737 16.1384 11.75 16.0945 11.75 16.0004L11.75 12.0004L11.75 11.9986C11.7498 11.9063 11.7727 11.8633 11.8173 11.8187C11.862 11.774 11.9059 11.7504 12 11.7504L12.0018 11.7504C12.094 11.7502 12.1371 11.7731 12.1817 11.8177C12.2263 11.8624 12.25 11.9063 12.25 12.0004L12.25 16.0004ZM12 7.75039L12.0018 7.75039C12.094 7.75017 12.1371 7.77314 12.1817 7.81772C12.2263 7.86239 12.25 7.90633 12.25 8.00039L12.25 8.00216C12.2502 8.09444 12.2273 8.13748 12.1827 8.18206C12.138 8.22674 12.0941 8.25039 12 8.25039L11.9982 8.25039C11.906 8.25061 11.8629 8.22764 11.8183 8.18306C11.7737 8.13839 11.75 8.09445 11.75 8.00039L11.75 7.99862C11.7498 7.90634 11.7727 7.8633 11.8173 7.81872C11.862 7.77405 11.9059 7.75039 12 7.75039Z" stroke="#5F4F7F" stroke-width="1.5"/>
</svg>
